<svg xmlns="http://www.w3.org/2000/svg" width="739.22" height="84.65" viewBox="0 0 739.22 84.65">
  <title>1711</title>
  <g id="timeline">
    <g>
      <line x1="16.42" y1="25.16" x2="715.16" y2="25.16" fill="#fff"/>
      <polygon points="16.42 25.16 103.77 24.92 191.11 24.83 365.79 24.66 540.47 24.83 627.82 24.92 715.16 25.16 627.82 25.41 540.47 25.5 365.79 25.66 191.11 25.5 103.77 25.41 16.42 25.16" fill="#145f66"/>
    </g>
    <g>
      <line x1="16.42" y1="5.46" x2="16.42" y2="43.57" fill="#fff"/>
      <path d="M121.22,79.26c.21,3.18.3,6.35.38,9.53s.1,6.35.12,9.53,0,6.35-.12,9.53l-.14,4.76c-.08,1.59-.13,3.18-.25,4.76-.11-1.59-.16-3.18-.25-4.76l-.14-4.76c-.09-3.18-.1-6.35-.12-9.53s0-6.35.12-9.53S121,82.44,121.22,79.26Z" transform="translate(-104.8 -73.8)" fill="#145f66"/>
    </g>
    <g>
      <line x1="715.16" y1="7.66" x2="715.16" y2="45.77" fill="#fff"/>
      <path d="M820,81.46c.21,3.18.3,6.35.38,9.53s.1,6.35.12,9.53,0,6.35-.12,9.53l-.14,4.76c-.08,1.59-.13,3.18-.25,4.76-.11-1.59-.16-3.18-.25-4.76l-.14-4.76c-.09-3.18-.1-6.35-.12-9.53s0-6.35.12-9.53S819.75,84.63,820,81.46Z" transform="translate(-104.8 -73.8)" fill="#145f66"/>
    </g>
    <g>
      <line x1="420.9" x2="420.9" y2="51.38" fill="#fff"/>
      <path d="M525.7,73.8c.21,4.28.3,8.56.38,12.84s.07,8.56.12,12.84,0,8.56-.11,12.84l-.14,6.42c-.08,2.14-.13,4.28-.25,6.42-.11-2.14-.16-4.28-.25-6.42l-.14-6.42c-.08-4.28-.08-8.56-.11-12.84s0-8.56.12-12.84S525.49,78.08,525.7,73.8Z" transform="translate(-104.8 -73.8)" fill="#145f66"/>
    </g>
    <g>
      <line x1="218.66" x2="218.66" y2="51.38" fill="#fff"/>
      <path d="M323.46,73.8c.21,4.28.3,8.56.38,12.84s.07,8.56.12,12.84,0,8.56-.11,12.84l-.14,6.42c-.08,2.14-.13,4.28-.25,6.42-.11-2.14-.16-4.28-.25-6.42l-.14-6.42c-.08-4.28-.08-8.56-.11-12.84s0-8.56.12-12.84S323.26,78.08,323.46,73.8Z" transform="translate(-104.8 -73.8)" fill="#145f66"/>
    </g>
    <g>
      <line x1="601.12" y1="1.3" x2="601.12" y2="52.68" fill="#fff"/>
      <path d="M705.92,75.1c.21,4.28.3,8.56.38,12.84s.07,8.56.12,12.84,0,8.56-.11,12.84l-.14,6.42c-.08,2.14-.13,4.28-.25,6.42-.11-2.14-.16-4.28-.25-6.42l-.14-6.42c-.08-4.28-.08-8.56-.11-12.84s0-8.56.12-12.84S705.72,79.38,705.92,75.1Z" transform="translate(-104.8 -73.8)" fill="#145f66"/>
    </g>
    <text transform="translate(0 66.13)" font-size="20.78" fill="#231f20" font-family="MyriadPro-Regular, Myriad Pro">1600</text>
    <text transform="translate(691.1 72.25)" font-size="20.78" fill="#231f20" font-family="MyriadPro-Regular, Myriad Pro">1950</text>
    <text transform="translate(198.85 68.73)" font-size="20.78" fill="#231f20" font-family="MyriadPro-Regular, Myriad Pro">1700</text>
    <text transform="translate(406.33 68.73)" font-size="20.78" fill="#231f20" font-family="MyriadPro-Regular, Myriad Pro">1800</text>
    <text transform="translate(583.62 68.73)" font-size="20.78" fill="#231f20" font-family="MyriadPro-Regular, Myriad Pro">1900</text>
  </g>
  <g id="_1711" data-name="1711">
    <circle cx="233.67" cy="25.69" r="8.41" fill="#f6851f"/>
  </g>
</svg>
