<?xml version="1.0" encoding="utf-8"?>
<!-- Generator: Adobe Illustrator 21.0.2, SVG Export Plug-In . SVG Version: 6.00 Build 0)  -->
<svg version="1.1" xmlns="http://www.w3.org/2000/svg" xmlns:xlink="http://www.w3.org/1999/xlink" x="0px" y="0px"
	 viewBox="0 0 750 183.6" style="enable-background:new 0 0 750 183.6;" xml:space="preserve">
<style type="text/css">
	.st0{fill:#FFFFFF;}
	.st1{fill:#145F66;}
	.st2{fill:none;}
	.st3{font-family:'MyriadPro-Regular';}
	.st4{font-size:16px;}
	.st5{fill:#F6851F;}
	.st6{display:none;}
	.st7{display:inline;fill:#F6851F;}
	.st8{display:inline;fill:#C6D8DB;}
</style>
<g id="timeline">
	<g>
		<line class="st0" x1="63.5" y1="77" x2="601.6" y2="77"/>
		<polygon class="st1" points="63.5,77 130.8,76.7 198,76.7 332.6,76.5 467.1,76.7 534.4,76.7 601.6,77 534.4,77.2 467.1,77.3
			332.6,77.5 198,77.3 130.8,77.2 		"/>
	</g>
	<g>
		<line class="st0" x1="63.5" y1="61.8" x2="63.5" y2="91.2"/>
		<path class="st1" d="M63.5,61.8c0.2,2.4,0.3,4.9,0.4,7.3C64,71.6,64,74,64,76.5c0,2.4,0,4.9-0.1,7.3l-0.1,3.7
			c-0.1,1.2-0.1,2.4-0.2,3.7c-0.1-1.2-0.2-2.4-0.2-3.7l-0.1-3.7C63,81.4,63,78.9,63,76.5c0-2.4,0-4.9,0.1-7.3
			C63.2,66.7,63.3,64.3,63.5,61.8z"/>
	</g>
	<g>
		<line class="st0" x1="601.6" y1="63.5" x2="601.6" y2="92.9"/>
		<path class="st1" d="M601.6,63.5c0.2,2.4,0.3,4.9,0.4,7.3c0.1,2.4,0.1,4.9,0.1,7.3c0,2.4,0,4.9-0.1,7.3l-0.1,3.7
			c-0.1,1.2-0.1,2.4-0.2,3.7c-0.1-1.2-0.2-2.4-0.2-3.7l-0.1-3.7c-0.1-2.4-0.1-4.9-0.1-7.3c0-2.4,0-4.9,0.1-7.3
			C601.3,68.4,601.4,66,601.6,63.5z"/>
	</g>
	<g>
		<line class="st0" x1="375" y1="57.6" x2="375" y2="97.2"/>
		<path class="st1" d="M375,57.6c0.2,3.3,0.3,6.6,0.4,9.9c0.1,3.3,0.1,6.6,0.1,9.9c0,3.3,0,6.6-0.1,9.9l-0.1,4.9
			c-0.1,1.6-0.1,3.3-0.2,4.9c-0.1-1.6-0.2-3.3-0.2-4.9l-0.1-4.9c-0.1-3.3-0.1-6.6-0.1-9.9c0-3.3,0-6.6,0.1-9.9
			C374.7,64.2,374.8,60.9,375,57.6z"/>
	</g>
	<g>
		<line class="st0" x1="219.2" y1="57.6" x2="219.2" y2="97.2"/>
		<path class="st1" d="M219.2,57.6c0.2,3.3,0.3,6.6,0.4,9.9c0.1,3.3,0.1,6.6,0.1,9.9c0,3.3,0,6.6-0.1,9.9l-0.1,4.9
			c-0.1,1.6-0.1,3.3-0.2,4.9c-0.1-1.6-0.2-3.3-0.2-4.9l-0.1-4.9c-0.1-3.3-0.1-6.6-0.1-9.9c0-3.3,0-6.6,0.1-9.9
			C218.9,64.2,219,60.9,219.2,57.6z"/>
	</g>
	<g>
		<line class="st0" x1="513.8" y1="58.6" x2="513.8" y2="98.2"/>
		<path class="st1" d="M513.8,58.6c0.2,3.3,0.3,6.6,0.4,9.9c0.1,3.3,0.1,6.6,0.1,9.9c0,3.3,0,6.6-0.1,9.9l-0.1,4.9
			c-0.1,1.6-0.1,3.3-0.2,4.9c-0.1-1.6-0.2-3.3-0.2-4.9l-0.1-4.9c-0.1-3.3-0.1-6.6-0.1-9.9c0-3.3,0-6.6,0.1-9.9
			C513.5,65.2,513.6,61.9,513.8,58.6z"/>
	</g>
	<rect x="50.9" y="97.2" class="st2" width="37.1" height="23.6"/>
	<text transform="matrix(1 0 0 1 50.8516 108.537)" class="st3 st4">1600</text>
	<rect x="583.1" y="101.9" class="st2" width="37.1" height="18.2"/>
	<text transform="matrix(1 0 0 1 583.0906 113.2547)" class="st3 st4">1950</text>
	<rect x="204" y="99.2" class="st2" width="37.1" height="23.6"/>
	<text transform="matrix(1 0 0 1 203.9922 110.537)" class="st3 st4">1700</text>
	<rect x="363.8" y="99.2" class="st2" width="37.1" height="23.6"/>
	<text transform="matrix(1 0 0 1 363.7759 110.537)" class="st3 st4">1800</text>
	<rect x="500.3" y="99.2" class="st2" width="37.1" height="23.6"/>
	<text transform="matrix(1 0 0 1 500.3185 110.537)" class="st3 st4">1900</text>
</g>
<g id="Layer_1">
</g>
<g id="_x31_711">
	<circle class="st5" cx="230.8" cy="77.4" r="6.5"/>
</g>
<g id="_x31_943" class="st6">
	<circle class="st7" cx="566.7" cy="77" r="6.5"/>
	<circle class="st8" cx="230.8" cy="77.4" r="6.5"/>
</g>
<g id="_x31_642" class="st6">
	<circle class="st7" cx="107.6" cy="77.5" r="6.5"/>
	<circle class="st8" cx="566.7" cy="77" r="6.5"/>
	<circle class="st8" cx="230.8" cy="77.4" r="6.5"/>
	<circle class="st8" cx="566.7" cy="76.5" r="6.5"/>
</g>
<g id="_x31_728N" class="st6">
	<circle class="st8" cx="107.6" cy="77.5" r="6.5"/>
	<circle class="st7" cx="261.4" cy="76.5" r="6.5"/>
</g>
<g id="_x31_650" class="st6">
	<circle class="st7" cx="141.4" cy="76.5" r="6.5"/>
	<circle class="st8" cx="261.4" cy="76.5" r="6.5"/>
</g>
<g id="_x31_844" class="st6">
	<circle class="st7" cx="434.5" cy="77.5" r="6.5"/>
	<circle class="st8" cx="141.4" cy="77" r="6.5"/>
</g>
<g id="_x31_847" class="st6">
	<circle class="st7" cx="441" cy="89.5" r="6.5"/>
	<circle class="st8" cx="434.5" cy="77.5" r="6.5"/>
</g>
<g id="_x31_728_1_" class="st6">
	<circle class="st8" cx="441" cy="89.5" r="6.5"/>
	<circle class="st7" cx="261.4" cy="92.5" r="6.5"/>
</g>
<g id="_x31_657" class="st6">
	<circle class="st7" cx="162.6" cy="76.5" r="6.5"/>
	<circle class="st8" cx="261.4" cy="76.5" r="6.5"/>
	<circle class="st8" cx="261.4" cy="92.5" r="6.5"/>
</g>
<g id="_x31_794" class="st6">
	<circle class="st7" cx="359.6" cy="77.4" r="6.5"/>
	<circle class="st7" cx="497.3" cy="77" r="6.5"/>
	<circle class="st8" cx="162.6" cy="76.5" r="6.5"/>
</g>
<g id="_x31_772" class="st6">
	<circle class="st7" cx="337.8" cy="77.5" r="6.5"/>
	<circle class="st8" cx="359.6" cy="77.5" r="6.5"/>
	<circle class="st8" cx="497.3" cy="77" r="6.5"/>
</g>
<g id="_x31_849" class="st6">
	<circle class="st7" cx="447.5" cy="77.4" r="6.5"/>
	<circle class="st8" cx="337.8" cy="77.5" r="6.5"/>
</g>
</svg>
