<?xml version="1.0" encoding="utf-8"?>
<!-- Generator: Adobe Illustrator 21.0.2, SVG Export Plug-In . SVG Version: 6.00 Build 0)  -->
<svg version="1.1" id="Layer_1" xmlns="http://www.w3.org/2000/svg" xmlns:xlink="http://www.w3.org/1999/xlink" x="0px" y="0px"
	 viewBox="0 0 50 50" style="enable-background:new 0 0 50 50;" xml:space="preserve">
<style type="text/css">
	.st0{fill:#74CEDE;}
	.st1{fill:#FFFFFF;}
</style>
<path class="st0" d="M37.3,32c2.5-3.1,4-6.9,4-11.2C41.2,11,33.3,3,23.4,3C13.6,3,5.7,11,5.7,20.8c0,4.2,1.5,8.1,4,11.2h0
	c0,0,0,0,0,0c0.7,0.9,1.5,1.7,2.4,2.4c5.6,5.7,11.5,11.9,11.5,11.9l11.7-12.2C35.9,33.5,36.6,32.8,37.3,32L37.3,32L37.3,32z"/>
<circle class="st1" cx="23.4" cy="21.8" r="8.8"/>
</svg>
