<?xml version="1.0" encoding="utf-8"?>
<!-- Generator: Adobe Illustrator 21.0.2, SVG Export Plug-In . SVG Version: 6.00 Build 0)  -->
<svg version="1.1" id="Layer_1" xmlns="http://www.w3.org/2000/svg" xmlns:xlink="http://www.w3.org/1999/xlink" x="0px" y="0px"
	 viewBox="0 0 10 15" style="enable-background:new 0 0 10 15;" xml:space="preserve">
<style type="text/css">
	.st0{fill:#74CEDE;}
	.st1{fill:#FFFFFF;}
</style>
<path class="st0" d="M8.3,9.2c0.6-0.7,1-1.7,1-2.7c0-2.4-1.9-4.3-4.3-4.3c-2.4,0-4.3,1.9-4.3,4.3c0,1,0.4,2,1,2.7h0c0,0,0,0,0,0
	C1.8,9.4,2,9.6,2.2,9.8C3.6,11.2,5,12.7,5,12.7l2.8-2.9C8,9.6,8.2,9.4,8.3,9.2L8.3,9.2L8.3,9.2z"/>
<circle class="st1" cx="5" cy="6.7" r="2.1"/>
</svg>
