<svg id="Layer_1" data-name="Layer 1" xmlns="http://www.w3.org/2000/svg" width="26.14" height="35.15" viewBox="0 0 26.14 35.15">
  <title>magstade</title>
  <g>
    <path d="M25.41,2c.59.21.69.87,1.13,1.22l.46.95c.15.16.17.39.3.56h0a.45.45,0,0,1,.08.25.38.38,0,0,1-.14.33.31.31,0,0,1-.18,0,.37.37,0,0,1-.16-.1c-.09-.16-.17-.33-.27-.48a.75.75,0,0,1-.08-.16.63.63,0,0,0-.28-.42A.64.64,0,0,1,26.11,4a1.49,1.49,0,0,0-.44-.58,5.5,5.5,0,0,0-1-1,.34.34,0,0,1-.08-.37.33.33,0,0,1,.25-.12C25,1.94,25.18,2.21,25.41,2Z" transform="translate(-2.73 -1.04)" fill="#5d4535" fill-rule="evenodd"/>
    <path d="M28.49,8.23v.12a17.25,17.25,0,0,1,.18,4.74c-.13.23,0,.54-.25.75-.25,0-.28-.23-.36-.39a.54.54,0,0,1,0-.22,3.4,3.4,0,0,0,.19-1.05,17.22,17.22,0,0,0-.13-2.35A1.14,1.14,0,0,1,28,9.6a4.32,4.32,0,0,1,0-.78,1.59,1.59,0,0,1,.26-.6A.15.15,0,0,1,28.49,8.23Z" transform="translate(-2.73 -1.04)" fill="#604734" fill-rule="evenodd"/>
    <path d="M28.6,13.24a26.33,26.33,0,0,0-.1-4.89,14.93,14.93,0,0,1,.36,4c-.2.31,0,.71-.23,1Q28.5,13.34,28.6,13.24Z" transform="translate(-2.73 -1.04)" fill="#664f3c" fill-rule="evenodd"/>
    <path d="M28.35,8.23c0,.19,0,.4-.12.56A.44.44,0,0,1,28,8.63a.62.62,0,0,1-.08-.19,3,3,0,0,0-.3-1.16c0-.28-.16-.54-.12-.82a.5.5,0,0,1,.26-.33c.36,0,.15.33.31.45l.15.29C28.21,7.32,28.51,7.75,28.35,8.23Z" transform="translate(-2.73 -1.04)" fill="#523d2c" fill-rule="evenodd"/>
    <path d="M28,6.57l-.28-.42c-.5-.22-.54-.63-.45-1.09,0-.1,0-.2,0-.3A4.67,4.67,0,0,1,28,6.57Z" transform="translate(-2.73 -1.04)" fill="#664f3c" fill-rule="evenodd"/>
    <path d="M28.35,8.23l-.17-1.38a2.88,2.88,0,0,1,.32,1.37Z" transform="translate(-2.73 -1.04)" fill="#664f3c" fill-rule="evenodd"/>
    <path d="M27.3,4.78a.75.75,0,0,1-.3-.56A.59.59,0,0,1,27.3,4.78Z" transform="translate(-2.73 -1.04)" fill="#664f3c" fill-rule="evenodd"/>
    <path d="M25.41,2c0,.11,0,.21,0,.32-.25,0-.39-.19-.56-.31.05-.13.17-.15.29-.17h.17Z" transform="translate(-2.73 -1.04)" fill="#4c3a2c" fill-rule="evenodd"/>
    <path d="M20.71,20.82c-.51-.07-.62-.37-.46-.81l0,0h.12" transform="translate(-2.73 -1.04)" fill="#928171" fill-rule="evenodd"/>
    <path d="M28.17,13.39a.46.46,0,0,1,.18.42c.06.21-.08.39-.12.58a2.64,2.64,0,0,1-.63,1.12.27.27,0,0,1-.37-.09c-.15-.29,0-.52.11-.78a2.54,2.54,0,0,0,.16-.47C27.71,13.9,27.69,13.44,28.17,13.39Z" transform="translate(-2.73 -1.04)" fill="#604a39" fill-rule="evenodd"/>
    <path d="M27.27,15.36l.33.15-.13.27-.14.16c-.13.08-.26.23-.42.13s-.14-.3-.08-.48S27,15.28,27.27,15.36Z" transform="translate(-2.73 -1.04)" fill="#533a26" fill-rule="evenodd"/>
    <path d="M28.23,14.39a1,1,0,0,1,.12-.58l.26-.56,0,.16A1.4,1.4,0,0,1,28.23,14.39Z" transform="translate(-2.73 -1.04)" fill="#644c3c" fill-rule="evenodd"/>
    <path d="M27,15.65c-.22.46.15.26.32.29A8.36,8.36,0,0,1,25,18.07a6,6,0,0,1-.72.41l-1.91.09a.36.36,0,0,1-.3,0,.22.22,0,0,1-.05-.18c.28-.39.84-.08,1.13-.44.32-.12.71,0,1-.34a6,6,0,0,0,1.12-.71,1.18,1.18,0,0,0,.58-.42c.43-.22.5-.83,1-.94A.28.28,0,0,1,27,15.65Z" transform="translate(-2.73 -1.04)" fill="#5f4839" fill-rule="evenodd"/>
    <path d="M20,19.67l.24.34a2.26,2.26,0,0,0,.46.81s0,.08,0,.12.06.34.08.52a.22.22,0,0,1-.17.13.45.45,0,0,1-.3-.09,4.9,4.9,0,0,1-1.1-2c0-.32,0-.69.36-.88a18.81,18.81,0,0,1,2-.21.49.49,0,0,1,.43.16l.33,0-.59.27c-.46,0-.93,0-1.39,0" transform="translate(-2.73 -1.04)" fill="#5f4c3e" fill-rule="evenodd"/>
    <path d="M12.75,2.48l5.41-.55c.25,0,.5,0,.75,0s.36,0,.42.23c-.1.35-.49.3-.7.51-1.13.11-2.24.34-3.36.43a3.47,3.47,0,0,0-.82.14,4.29,4.29,0,0,1-1.47,0,.26.26,0,0,1-.12-.2A.27.27,0,0,1,13,2.79c.37-.09.75-.1,1.12-.18a6.15,6.15,0,0,0,2.15-.22,4.21,4.21,0,0,1-1.62.19,7.88,7.88,0,0,0-1.32.15.89.89,0,0,1-.56-.05A.14.14,0,0,1,12.75,2.48Z" transform="translate(-2.73 -1.04)" fill="#564131" fill-rule="evenodd"/>
    <path d="M12.9,2.9s0,.1,0,.14c-.46.47-1.06.34-1.62.38A4.44,4.44,0,0,0,10,3.56c-.24,0-.48,0-.6-.23S9.46,3,9.7,3a6.93,6.93,0,0,1-2.56.28c-.49-.16-1,0-1.5-.3.26-.62.78-.31,1.2-.32a.65.65,0,0,1,.2.16,1.29,1.29,0,0,0,.81.09,37.55,37.55,0,0,0,3.92-.38.14.14,0,0,1,.06.14C12.15,2.87,12.62,2.52,12.9,2.9Z" transform="translate(-2.73 -1.04)" fill="#523f33" fill-rule="evenodd"/>
    <path d="M19.28,2.05a.48.48,0,0,1-.41-.12c.05-.11.2-.06.26-.16h0a7.89,7.89,0,0,0,1.95-.32l.14,0c.46,0,.88-.23,1.35-.24.22.24.06.52.09.78-.29.34-.8.35-1.09.7a1.15,1.15,0,0,1-.54.42.63.63,0,0,1-.21,0,.49.49,0,0,1-.32-.24c-.06-.18,0-.31.14-.44.19-.4-.12-.33-.33-.35a2.59,2.59,0,0,0-.67.12A.44.44,0,0,1,19.28,2.05Z" transform="translate(-2.73 -1.04)" fill="#4a3426" fill-rule="evenodd"/>
    <path d="M22.61,1.28c-.46,0-.89.37-1.38.18a4.62,4.62,0,0,1,2.61-.35,1.06,1.06,0,0,1,0,.12.36.36,0,0,1-.14.16A1.12,1.12,0,0,1,22.61,1.28Z" transform="translate(-2.73 -1.04)" fill="#5a4134" fill-rule="evenodd"/>
    <path d="M21.08,1.44c-.58.55-1.29.26-1.95.32A9,9,0,0,1,21.08,1.44Z" transform="translate(-2.73 -1.04)" fill="#5a4134" fill-rule="evenodd"/>
    <path d="M11.78,2.64s0-.1,0-.15a1.31,1.31,0,0,1,1,0v.14A.84.84,0,0,1,11.78,2.64Z" transform="translate(-2.73 -1.04)" fill="#4d3a2d" fill-rule="evenodd"/>
    <path d="M19.14,1.77l-.26.16a.66.66,0,0,1-.72,0A2.23,2.23,0,0,1,19.14,1.77Z" transform="translate(-2.73 -1.04)" fill="#5a4134" fill-rule="evenodd"/>
    <path d="M22.61,1.28a2.11,2.11,0,0,1,1.11,0,5,5,0,0,1,1.12.38l.3.25-.29.17h-.38a1.89,1.89,0,0,0-1.05,0c-.28.07-.57.16-.79-.13S22.49,1.51,22.61,1.28Z" transform="translate(-2.73 -1.04)" fill="#412e1f" fill-rule="evenodd"/>
    <path d="M24.84,1.64a2,2,0,0,1-1.12-.38l.16,0C24.22,1.3,24.6,1.3,24.84,1.64Z" transform="translate(-2.73 -1.04)" fill="#4c3a2c" fill-rule="evenodd"/>
    <path d="M21,3l.37-.43a2.25,2.25,0,0,1,1.5-.49,1.22,1.22,0,0,0,.64-.2c.36,0,.74-.1,1,.19h0l.16.24a.16.16,0,0,1,0,.18c-.55.12-1.11,0-1.67.08a2.9,2.9,0,0,0-1.22.38l-.22.19c-.31.18-.39.63-.82.67a.37.37,0,0,1-.28-.1C20.43,3.28,20.77,3.17,21,3Z" transform="translate(-2.73 -1.04)" fill="#968575" fill-rule="evenodd"/>
    <path d="M26.29,4l.12.13c.21.12.22.36.32.54h0a7.52,7.52,0,0,1,.3.69h0a.41.41,0,0,1,.16.39.38.38,0,0,1-.11.18c-.44.05-.47-.34-.63-.59a1.59,1.59,0,0,0-.3-.71A.75.75,0,0,1,26,4.25.42.42,0,0,1,26.11,4,.13.13,0,0,1,26.29,4Z" transform="translate(-2.73 -1.04)" fill="#917a67" fill-rule="evenodd"/>
    <path d="M27.29,5.07l.45,1.09-.16.3c-.29,0-.4-.14-.43-.39s-.13-.49,0-.73Z" transform="translate(-2.73 -1.04)" fill="#513a28" fill-rule="evenodd"/>
    <path d="M24.73,2.47V2.31c.55.13.73.66,1.11,1,.1.07.09.17.07.28a.35.35,0,0,1-.18.09A1.54,1.54,0,0,1,24.73,2.47Z" transform="translate(-2.73 -1.04)" fill="#978371" fill-rule="evenodd"/>
    <path d="M25.86,3.56l0-.28a1.11,1.11,0,0,1,.44.7l-.13,0C25.92,3.93,25.78,3.83,25.86,3.56Z" transform="translate(-2.73 -1.04)" fill="#664f3c" fill-rule="evenodd"/>
    <path d="M27,5.35a.94.94,0,0,1-.3-.69A.8.8,0,0,1,27,5.35Z" transform="translate(-2.73 -1.04)" fill="#664f3c" fill-rule="evenodd"/>
    <path d="M27.16,5.34l.15.7c-.26.05-.17-.2-.26-.3s0-.26,0-.4Z" transform="translate(-2.73 -1.04)" fill="#664f3c" fill-rule="evenodd"/>
    <path d="M26.72,4.66l-.32-.54C26.68,4.2,26.73,4.41,26.72,4.66Z" transform="translate(-2.73 -1.04)" fill="#664f3c" fill-rule="evenodd"/>
    <path d="M28.17,13.39l-.51.85a.5.5,0,0,1-.19-.44,8.89,8.89,0,0,0,.22-4.56,1.55,1.55,0,0,1,0-.89.36.36,0,0,1,.17-.15c.23,0,.14.23.25.32h0c.2.35,0,.76.17,1.11h0a17.56,17.56,0,0,1,.14,2.54,3.86,3.86,0,0,1-.19,1.08Z" transform="translate(-2.73 -1.04)" fill="#887360" fill-rule="evenodd"/>
    <path d="M28.3,12.28q0-1.32-.07-2.64a9.86,9.86,0,0,1,.21,2.64C28.4,12.36,28.35,12.37,28.3,12.28Z" transform="translate(-2.73 -1.04)" fill="#664f3c" fill-rule="evenodd"/>
    <path d="M28.3,12.28h.14a1.42,1.42,0,0,1-.26,1C28.22,12.93,28.27,12.6,28.3,12.28Z" transform="translate(-2.73 -1.04)" fill="#644c3c" fill-rule="evenodd"/>
    <path d="M28.24,9.63c-.24-.34-.11-.74-.17-1.11l.15.27Z" transform="translate(-2.73 -1.04)" fill="#664f3c" fill-rule="evenodd"/>
    <path d="M27.92,8.25h-.14c-.48-.12-.38-.61-.5-.91s-.47-.9-.26-1.43c0-.05,0-.11,0-.17l.26.3a.53.53,0,0,0,.27.41,2,2,0,0,1,.19.82C27.81,7.6,28.11,7.89,27.92,8.25Z" transform="translate(-2.73 -1.04)" fill="#837361" fill-rule="evenodd"/>
    <path d="M27.92,8.25l-.15-1a1.86,1.86,0,0,1,.3,1.25Z" transform="translate(-2.73 -1.04)" fill="#664f3c" fill-rule="evenodd"/>
    <path d="M20.6,21.52h.13c.16-.09.2.05.28.13l.16.26a6.27,6.27,0,0,0,.3.71l.15.39a5.39,5.39,0,0,0,.29.71,7.21,7.21,0,0,1,.46,4c-.09.75-.29,1.48-.44,2.22-.12.1-.05.4-.35.3a.58.58,0,0,1-.24-.36,22.77,22.77,0,0,0,.45-3.12,8.84,8.84,0,0,0-.58-3.35A10.15,10.15,0,0,0,20.6,22,.47.47,0,0,1,20.6,21.52Z" transform="translate(-2.73 -1.04)" fill="#5a483a" fill-rule="evenodd"/>
    <path d="M21.64,30.27l.28-.29L21.5,31.5l-.23.19a.31.31,0,0,1-.13-.17C21.19,31.05,21.19,30.57,21.64,30.27Z" transform="translate(-2.73 -1.04)" fill="#645245" fill-rule="evenodd"/>
    <path d="M21.9,23.71a.81.81,0,0,1-.29-.71A1,1,0,0,1,21.9,23.71Z" transform="translate(-2.73 -1.04)" fill="#654e40" fill-rule="evenodd"/>
    <path d="M21,21.65l-.28-.13c0-.19,0-.38,0-.57l.11,0Z" transform="translate(-2.73 -1.04)" fill="#654e40" fill-rule="evenodd"/>
    <path d="M27.66,13.83c0,.14,0,.27,0,.41a.58.58,0,0,1-.13.43,4.9,4.9,0,0,1-.69,1,6.7,6.7,0,0,1-.93,1c-.2.13-.36.3-.55.42a4.27,4.27,0,0,1-1.1.7,6.59,6.59,0,0,1-1.58.4.89.89,0,0,1-.34,0c-.35-.33-1-.44-.89-1.1.32-.26.5,0,.72.17a2.42,2.42,0,0,0,2.58-.3,1.45,1.45,0,0,1,.23-.18,9.83,9.83,0,0,0,2.1-2.45C27.21,14.09,27.29,13.77,27.66,13.83Z" transform="translate(-2.73 -1.04)" fill="#9d8b7c" fill-rule="evenodd"/>
    <path d="M26.84,15.65a2.7,2.7,0,0,1,.69-1l-.26.7-.27.29Z" transform="translate(-2.73 -1.04)" fill="#634c3a" fill-rule="evenodd"/>
    <path d="M22.33,18h.26c.16.15.4,0,.55.14s-.13.26-.29.27l-.79,0c-.22.09-.43.15-.62-.07a.47.47,0,0,1,.26-.58A1,1,0,0,1,22.33,18Z" transform="translate(-2.73 -1.04)" fill="#443021" fill-rule="evenodd"/>
    <path d="M21.49,18.29c.16.16.37.12.57.13,0,0,0,.08,0,.12a20.48,20.48,0,0,1-2.49.21c0-.51.54-.28.77-.47a5.65,5.65,0,0,1,1.08-.05Z" transform="translate(-2.73 -1.04)" fill="#4b392a" fill-rule="evenodd"/>
    <path d="M23.14,18.13c-.19,0-.39,0-.55-.14a7.89,7.89,0,0,0,1.66-.21C24,18.19,23.53,18.07,23.14,18.13Z" transform="translate(-2.73 -1.04)" fill="#665545" fill-rule="evenodd"/>
    <path d="M25.36,17.08a.7.7,0,0,1,.55-.42A.7.7,0,0,1,25.36,17.08Z" transform="translate(-2.73 -1.04)" fill="#776153" fill-rule="evenodd"/>
    <path d="M19.41,19.48a6.92,6.92,0,0,0,1,1.9.26.26,0,0,1,0,.28.36.36,0,0,1-.38,0,.62.62,0,0,1-.24-.17,5,5,0,0,1-.46-.71,2.14,2.14,0,0,1-.15-.35,2.2,2.2,0,0,0-.58-1,24.51,24.51,0,0,1-1.5-2.7,1.38,1.38,0,0,1-.1-.41.44.44,0,0,1,.14-.29.38.38,0,0,1,.31,0,3.73,3.73,0,0,1,.75,1.21,2.8,2.8,0,0,0,.54,1.16c.06.07.14.12.21.18A2.16,2.16,0,0,1,19.41,19.48Z" transform="translate(-2.73 -1.04)" fill="#8c7a6a" fill-rule="evenodd"/>
    <path d="M19.41,19.48c-.28-.16-.32-.52-.56-.72s-.21-.43,0-.63a.51.51,0,0,1,.22-.07c.42.15.91.07,1.27.39-.22.25-.61,0-.82.3S19.62,19.27,19.41,19.48Z" transform="translate(-2.73 -1.04)" fill="#433021" fill-rule="evenodd"/>
    <path d="M20.46,21.66c0-.09,0-.18,0-.28l.14.14.15.41a.1.1,0,0,1,0,.17C20.44,22.07,20.36,21.92,20.46,21.66Z" transform="translate(-2.73 -1.04)" fill="#655143" fill-rule="evenodd"/>
    <path d="M14.41,3l3.46-.48c.25,0,.51,0,.73-.14.54-.13,1.08-.25,1.62-.34.6.08.63.13.34.59-.33.16-.7,0-1,.12a4.14,4.14,0,0,0-.73.16l-.18,0-.53,0a1.3,1.3,0,0,0-.9.09,2.36,2.36,0,0,0-.57.2,2,2,0,0,1-1.22.05C15.08,3.12,14.67,3.34,14.41,3Z" transform="translate(-2.73 -1.04)" fill="#8f7e70" fill-rule="evenodd"/>
    <path d="M11.78,2.64l1,0h.56c.45-.19.95,0,1.4-.16a9.06,9.06,0,0,0,1.89-.11,6.76,6.76,0,0,1-2.45.39c-.35.2-.76,0-1.12.16H12.9l-1.68,0A.57.57,0,0,1,11.78,2.64Z" transform="translate(-2.73 -1.04)" fill="#382419" fill-rule="evenodd"/>
    <path d="M14.41,3h1.15a.28.28,0,0,1-.18.28,12.9,12.9,0,0,0-2.07.25.8.8,0,0,1-.24,0c-.6-.07-1.21.16-1.8-.1a.17.17,0,0,1,0-.22L12.9,3Z" transform="translate(-2.73 -1.04)" fill="#938477" fill-rule="evenodd"/>
    <path d="M20.25,2.16l-1.66.21c.16-.25.51-.09.68-.31l.42,0A.77.77,0,0,1,20.23,2,.11.11,0,0,1,20.25,2.16Z" transform="translate(-2.73 -1.04)" fill="#5a4134" fill-rule="evenodd"/>
    <path d="M14.71,2.45c-.44.26-.93.1-1.4.16C13.75,2.33,14.24,2.5,14.71,2.45Z" transform="translate(-2.73 -1.04)" fill="#4d3a2d" fill-rule="evenodd"/>
    <path d="M13,2.89c.35-.25.74-.11,1.12-.16C13.8,3,13.4,2.84,13,2.89Z" transform="translate(-2.73 -1.04)" fill="#4d3a2d" fill-rule="evenodd"/>
    <path d="M7.18,3,10.31,3c-.33.22-.69,0-.89.3a2.12,2.12,0,0,1-2.2.12A.25.25,0,0,1,7.18,3Z" transform="translate(-2.73 -1.04)" fill="#433123" fill-rule="evenodd"/>
    <path d="M7.2,3.32a7.78,7.78,0,0,0,2.23,0c.16.15.36.09.55.1l.05.11a.33.33,0,0,1-.15.19,19.08,19.08,0,0,1-3,.14,2.19,2.19,0,0,0-1.23.34.41.41,0,0,1-.23-.06c-.21-.52.12-.72.53-.79a3.54,3.54,0,0,1,1.16,0Z" transform="translate(-2.73 -1.04)" fill="#7d6f63" fill-rule="evenodd"/>
    <path d="M7.18,3c0,.09,0,.18,0,.27h0c-.64.16-1.31,0-2,.19a.37.37,0,0,1-.06-.44.46.46,0,0,1,.14-.18.28.28,0,0,1,.32,0A6.28,6.28,0,0,1,7.18,3Z" transform="translate(-2.73 -1.04)" fill="#37271c" fill-rule="evenodd"/>
    <path d="M5.64,2.93,5.38,3c-.1-.16,0-.22.13-.3.47,0,.95-.17,1.39.11C6.49,2.84,6,2.64,5.64,2.93Z" transform="translate(-2.73 -1.04)" fill="#988674" fill-rule="evenodd"/>
    <path d="M11.23,3.21s0,.09,0,.14a.47.47,0,0,1-.42.22c-.28,0-.58.07-.81-.16l0,0A3.11,3.11,0,0,1,11.23,3.21Z" transform="translate(-2.73 -1.04)" fill="#7d6f63" fill-rule="evenodd"/>
    <path d="M20.25,2.16l0-.13A.29.29,0,0,1,20.49,2c.53,0,.47.28.34.62l-.27.28c.14.27-.08.4-.22.56a1.05,1.05,0,0,0-.42.45A10.31,10.31,0,0,1,19.12,5a.65.65,0,0,0-.25.45.62.62,0,0,1-.05.18.94.94,0,0,1-.31.38.51.51,0,0,1-.29.07A.33.33,0,0,1,18,6c-.17-.65.29-1.07.57-1.54a7.72,7.72,0,0,1,1.53-1.75.53.53,0,0,1,.29-.07C20.81,2.27,20.6,2.18,20.25,2.16Z" transform="translate(-2.73 -1.04)" fill="#7b6c5d" fill-rule="evenodd"/>
    <path d="M18.94,4.85l.83-1.13a2.39,2.39,0,0,0,.39-.42l.4-.45.29.14a15.84,15.84,0,0,1-1.3,2c-.21.29-.23.77-.75.78-.11,0-.18-.1-.14-.23a.89.89,0,0,1,0-.12A1.61,1.61,0,0,1,18.94,4.85Z" transform="translate(-2.73 -1.04)" fill="#3d2b1d" fill-rule="evenodd"/>
    <path d="M19.35,4.83A16.63,16.63,0,0,1,20.84,3H21l-.45.68a1.93,1.93,0,0,1-1,1.24A.32.32,0,0,1,19.35,4.83Z" transform="translate(-2.73 -1.04)" fill="#4d3d2d" fill-rule="evenodd"/>
    <path d="M23.46,1.95c-.64.38-1.44.23-2.07.63A1.87,1.87,0,0,1,22.63,2a1.43,1.43,0,0,0,.82-.15C23.55,1.85,23.55,1.9,23.46,1.95Z" transform="translate(-2.73 -1.04)" fill="#4c3a2c" fill-rule="evenodd"/>
    <path d="M20.83,2.57c0-.3,0-.57-.43-.55-.09,0-.09-.09,0-.14.25,0,.55-.07.68.18S21,2.42,20.83,2.57Z" transform="translate(-2.73 -1.04)" fill="#5a4134" fill-rule="evenodd"/>
    <path d="M20.4,1.88s0,.09,0,.14h-.7C19.9,1.84,20.16,1.9,20.4,1.88Z" transform="translate(-2.73 -1.04)" fill="#564131" fill-rule="evenodd"/>
    <path d="M23.46,1.95s0-.09,0-.14c.38,0,.83-.2,1.12.26A2.52,2.52,0,0,0,23.46,1.95Z" transform="translate(-2.73 -1.04)" fill="#5d4535" fill-rule="evenodd"/>
    <path d="M24.73,2.47c.47.25.65.75,1,1.1a1.7,1.7,0,0,1,.43.68l.16.27c0,.24.25.43.22.69s.38.65.46,1a.56.56,0,0,1-.05.18.79.79,0,0,0,.36,1.09c.43.26.4.72.13,1.13A1.15,1.15,0,0,1,26,8.55c-.08.31,0,.67-.27.88a.24.24,0,0,1-.2,0A.56.56,0,0,1,25.37,9,4.63,4.63,0,0,0,24,6.21c-.2-.55.11-.8.56-1,.19-.07.41,0,.58-.17.28-.41,0-.69-.29-.85A10.38,10.38,0,0,1,23.2,3a.5.5,0,0,0-.73,0,.54.54,0,0,1-.2.06c-.22,0-.45,0-.59-.18C22.65,2.36,23.63,1.91,24.73,2.47Z" transform="translate(-2.73 -1.04)" fill="#b0a392" fill-rule="evenodd"/>
    <path d="M20.85,3.68,21.53,3c.26-.16.59.09.84-.16s.49-.12.56.2-.1.63-.41.59c-.76-.09-.79.28-.67.85.07.32-.3.51-.34.92A.7.7,0,0,1,22.17,5c.32,0,.46.28.66.46a.32.32,0,0,1,.07.18c-.12.42-.64.24-.83.56a3.47,3.47,0,0,0-1.23,1.62c-.1.17-.16.37-.39.43a.8.8,0,0,1-.7-.28c-.07.42-.43.64-.61,1a.3.3,0,0,1-.42.11.47.47,0,0,1-.26-.58,1.44,1.44,0,0,0,.1-.93.63.63,0,0,1,0-.2c.06-.19.2-.33.22-.54a.73.73,0,0,1,.07-.18c.11-.37.48-.38.75-.53s.57-.27.27-.71.26-.68.27-1.07S20.57,3.85,20.85,3.68Z" transform="translate(-2.73 -1.04)" fill="#b0a392" fill-rule="evenodd"/>
    <path d="M20.85,3.68c-.11.29-.54.34-.54.71-.17.42-.48.76-.45,1.31s-.59.49-.91.73a.23.23,0,0,1-.18-.07.4.4,0,0,1,.12-.55c.33-.25.33-.7.63-1s.55-.9,1-1.16Z" transform="translate(-2.73 -1.04)" fill="#9a8c7c" fill-rule="evenodd"/>
    <path d="M22.37,2.81c-.21.42-.55.15-.84.16l.13-.14Z" transform="translate(-2.73 -1.04)" fill="#b3a696" fill-rule="evenodd"/>
    <path d="M26.93,6.34c-.17-.39-.31-.76-.46-1.13,0-.09.09-.09.14,0l.43.7a16.63,16.63,0,0,1,.75,2.34A17.19,17.19,0,0,1,28,12.46a2.5,2.5,0,0,1-.38,1.38A9.65,9.65,0,0,1,25.08,17a.19.19,0,0,1-.1-.09c-.41-1-.69-1-1.51-.19.42.37,1,.07,1.47.41a2.6,2.6,0,0,1-2.91.34c0-.53-.49-.47-.83-.57a8.05,8.05,0,0,0-.62-.56.57.57,0,0,1-.24-.78.55.55,0,0,1,.34-.24,1,1,0,0,1,.41,0c.63.14.63.14.94-.45-.56-.36-.83.32-1.27.35a1.88,1.88,0,0,1-1-.38.54.54,0,0,1-.12-.16c-.09-.22.07-.51-.2-.68a.73.73,0,0,1-.11-.16,8.77,8.77,0,0,0-.39-1.49c.06-.88.31-1.23.95-1.29.3,0,.6,0,.66.35.18,1,1,1.09,1.73,1.21a2.77,2.77,0,0,1,1.1.3c.13.22.64.29.23.73-.14.15.51.74.87.78a1.21,1.21,0,0,1,.88.31c.06,0,.11.12.2.13a.64.64,0,0,1-.21-.16c-.48-.67-.08-1.2.26-1.74a.49.49,0,0,1,.31-.07,1.19,1.19,0,0,1,.78.92c-.24-.69.49-.79.69-1.21s.08-.87.2-1.28-.28-.47-.4-.71-.15-.37,0-.49c.5-.36.29-.74.08-1.13a.47.47,0,0,1,.13-.48c.13-.42.23-.8-.42-.91a.47.47,0,0,1-.37-.69c0-.09.09-.16,0-.25-.51-.61.07-.35.31-.34,0,.08,0,.1,0,.08a.27.27,0,0,0,0-.06c0-.08-.12,0,0,0S26.93,6.33,26.93,6.34Z" transform="translate(-2.73 -1.04)" fill="#b0a392" fill-rule="evenodd"/>
    <path d="M26.61,5.21h-.14c0-.24-.32-.42-.15-.7A.9.9,0,0,1,26.61,5.21Z" transform="translate(-2.73 -1.04)" fill="#a3927f" fill-rule="evenodd"/>
    <path d="M26.15,4.25a1.56,1.56,0,0,1-.43-.68h.14l.3.4C26.16,4.06,26.15,4.16,26.15,4.25Z" transform="translate(-2.73 -1.04)" fill="#a3927f" fill-rule="evenodd"/>
    <path d="M4.6,29.69a12.48,12.48,0,0,1,2.8-.25c2.08,0,1.87.24,2.23-1.75a3.36,3.36,0,0,1,.09-.33,8.3,8.3,0,0,0-.92-3.6h0a.31.31,0,0,1-.07-.2c0-.19,0-.37.28-.41a1.75,1.75,0,0,1,.87,1.1,7,7,0,0,1,.63,3.61,3.63,3.63,0,0,0,0,.62c0,.38.14.51.55.48s1-.25,1.38.15a.32.32,0,0,1-.36.33c-.58,0-1.12.26-1.7.18a.68.68,0,0,1-.21-.05.77.77,0,0,1-.29-.31,1,1,0,0,1-1.34.57l-2.29,0C5.7,29.79,5.11,30.11,4.6,29.69Z" transform="translate(-2.73 -1.04)" fill="#58483c" fill-rule="evenodd"/>
    <path d="M8.94,23.17a.57.57,0,0,1-.13.43c-.22-.05-.31-.24-.43-.4l-.45-.66a4.59,4.59,0,0,0-.57-.7h0c-.16-.25-.41-.43-.57-.68L5.58,19.65l-.08-.14a4,4,0,0,1-.59-1.24c-.19-.32-.26-.72-.57-1,0-.54-.51-1-.45-1.52a.25.25,0,0,1,.18-.21.38.38,0,0,1,.19,0,.51.51,0,0,1,.23.3,5.55,5.55,0,0,0,.71,1.54c.09.17.2.32.29.48a1.63,1.63,0,0,0,.43.89,1.18,1.18,0,0,1,.16.23c.15.52.65.81.87,1.28a1,1,0,0,0,.29.45c.44.4.77.91,1.22,1.31a1.07,1.07,0,0,1,.18.22A3.44,3.44,0,0,0,9,23,.25.25,0,0,1,8.94,23.17Z" transform="translate(-2.73 -1.04)" fill="#4a3a30" fill-rule="evenodd"/>
    <path d="M13.13,35.77a9.25,9.25,0,0,1-2.32.24,27.32,27.32,0,0,1-5.58.06c-.06,0-.11-.07-.17-.11.34-.36.78-.25,1.16-.19a8.16,8.16,0,0,0,1.16.07,36.36,36.36,0,0,1,4.9-.22c-.46,0-.93.22-1.38-.09.07-.44.43-.3.7-.35,1.16,0,2.31-.13,3.47,0a.38.38,0,0,1,.17.16c-.1.48-.47.28-.76.31l-.22,0A3.79,3.79,0,0,0,13.13,35.77Z" transform="translate(-2.73 -1.04)" fill="#504138" fill-rule="evenodd"/>
    <path d="M4,29.84h.51a2.54,2.54,0,0,1,.79-.06c.17.09.51,0,.48.28s-.46.22-.68.38a1.09,1.09,0,0,1-.6.17c-.28-.06-.56-.17-.84,0l-.19.09c-.52-.05-.6-.3-.29-.91A1.18,1.18,0,0,1,4,29.84Z" transform="translate(-2.73 -1.04)" fill="#271e18" fill-rule="evenodd"/>
    <path d="M7.42,36c-.79.1-1.57-.19-2.36-.07-.19-.28-.53-.44-.61-.8a.3.3,0,0,1,.15-.21c.2-.07.34.08.5.14l.31.17.22.14a3.15,3.15,0,0,0,.89.06l.19,0c.24.12.56,0,.76.25A.25.25,0,0,1,7.42,36Z" transform="translate(-2.73 -1.04)" fill="#43372f" fill-rule="evenodd"/>
    <path d="M4.06,34.73a5.87,5.87,0,0,1-1.18-3.64c0-.44-.38-.93.09-1.35a.25.25,0,0,1,.08.2,8.71,8.71,0,0,0,.86,3.47C3.93,33.86,4.31,34.25,4.06,34.73Z" transform="translate(-2.73 -1.04)" fill="#504440" fill-rule="evenodd"/>
    <path d="M8.8,23.75a5.66,5.66,0,0,1,.92,3.6A16.58,16.58,0,0,0,8.8,23.75Z" transform="translate(-2.73 -1.04)" fill="#5f4e44" fill-rule="evenodd"/>
    <path d="M4.06,34.73a4.85,4.85,0,0,1-.31-1.24c0-.14,0-.17.15-.19.3.14.36.46.54.7a.94.94,0,0,1,.09.18c.07.27.36.51.1.82l-.17.17Z" transform="translate(-2.73 -1.04)" fill="#40322f" fill-rule="evenodd"/>
    <path d="M5.33,29.83H4.47l.13-.14,1.7,0C6.06,30.25,5.66,29.8,5.33,29.83Z" transform="translate(-2.73 -1.04)" fill="#483f38" fill-rule="evenodd"/>
    <path d="M14.39,35.6s0,.09,0,.13l-1.25,0C13.52,35.48,14,35.65,14.39,35.6Z" transform="translate(-2.73 -1.04)" fill="#604f45" fill-rule="evenodd"/>
    <path d="M7.36,21.84c.28.16.54.33.57.7l-.13,0C7.69,22.27,7.4,22.14,7.36,21.84Z" transform="translate(-2.73 -1.04)" fill="#5e4e44" fill-rule="evenodd"/>
    <path d="M3,29.89v-.15H3a1.25,1.25,0,0,1,.85,0l.15.13-.85,0C3.07,30,3,30,3,29.89Z" transform="translate(-2.73 -1.04)" fill="#483f38" fill-rule="evenodd"/>
    <path d="M8.38,23.2l.43.4v.16A.72.72,0,0,1,8.38,23.2Z" transform="translate(-2.73 -1.04)" fill="#5f4e44" fill-rule="evenodd"/>
    <path d="M3.81,29.71l-.85,0A.74.74,0,0,1,3.81,29.71Z" transform="translate(-2.73 -1.04)" fill="#58483c" fill-rule="evenodd"/>
    <path d="M6.8,21.16a1,1,0,0,1,.57.68A1.07,1.07,0,0,1,6.8,21.16Z" transform="translate(-2.73 -1.04)" fill="#4a3b30" fill-rule="evenodd"/>
    <path d="M4.91,18.27a3.79,3.79,0,0,1,.59,1.24A1.41,1.41,0,0,1,4.91,18.27Z" transform="translate(-2.73 -1.04)" fill="#53463b" fill-rule="evenodd"/>
    <path d="M3.05,10.78a8.52,8.52,0,0,1,.35-2.66c.27.17.24.49.35.73C3.82,9.93,3.41,11,3.57,12A13.56,13.56,0,0,0,4,14.36a.94.94,0,0,1,.07.22.8.8,0,0,1,0,.23c-.1.19-.11.47-.44.43h0c-.17-.31,0-.67-.15-1l-.17-.68c-.18-.25-.11-.55-.2-.82a6.42,6.42,0,0,0,0-.86A4.2,4.2,0,0,1,3.05,10.78Z" transform="translate(-2.73 -1.04)" fill="#4d3c30" fill-rule="evenodd"/>
    <path d="M3.08,12.06c.18.22,0,.45,0,.68a.78.78,0,0,1,0,.7H3Q3,12.74,3,12s.07,0,.09,0A.08.08,0,0,1,3.08,12.06Z" transform="translate(-2.73 -1.04)" fill="#7a6e62" fill-rule="evenodd"/>
    <path d="M3.58,15.24l.27-.42c.29.23.41.5.16.83l-.12.13C3.77,15.61,3.57,15.49,3.58,15.24Z" transform="translate(-2.73 -1.04)" fill="#3a2a20" fill-rule="evenodd"/>
    <path d="M3.43,14.27c.23.3.12.65.15,1A1.73,1.73,0,0,1,3.43,14.27Z" transform="translate(-2.73 -1.04)" fill="#504036" fill-rule="evenodd"/>
    <path d="M3.12,13.44q0-.35,0-.7c.22.25.13.56.15.85Z" transform="translate(-2.73 -1.04)" fill="#504036" fill-rule="evenodd"/>
    <path d="M3.57,8.83c-.2-.2-.12-.47-.16-.7l.13-1c.14-.12-.09-.49.29-.46a.72.72,0,0,1,.26.47C3.87,7.72,4.11,8.41,3.57,8.83Z" transform="translate(-2.73 -1.04)" fill="#43352a" fill-rule="evenodd"/>
    <path d="M3.08,12.06,3,12q0-.6,0-1.21l.12,0C3.06,11.21,3.07,11.64,3.08,12.06Z" transform="translate(-2.73 -1.04)" fill="#504036" fill-rule="evenodd"/>
    <path d="M19.38,34.26a3.63,3.63,0,0,1-1.65.72.16.16,0,0,1-.19,0c-.12-.34.19-.47.34-.68a.57.57,0,0,1,.26-.12,1.19,1.19,0,0,0,.64-.33l.15-.1c.55-.23.65-1,1.25-1.14a.26.26,0,0,1,.21.2.94.94,0,0,1-.22.56h0c-.18.11-.24.32-.39.45h0C19.67,34,19.52,34.1,19.38,34.26Z" transform="translate(-2.73 -1.04)" fill="#4f3d34" fill-rule="evenodd"/>
    <path d="M17.57,34.94l.16,0c-.35.36-.87.21-1.27.42l-.55,0c-.08-.35.25-.33.41-.46l.2,0a3.14,3.14,0,0,0,.78-.1A.33.33,0,0,1,17.57,34.94Z" transform="translate(-2.73 -1.04)" fill="#604f45" fill-rule="evenodd"/>
    <path d="M20.18,33.36l.13-.55c0-.39.14-.73.62-.75l.08.06A5.49,5.49,0,0,1,20.18,33.36Z" transform="translate(-2.73 -1.04)" fill="#5e4c40" fill-rule="evenodd"/>
    <path d="M21.25,31.53c0,.05,0,.11,0,.16a.58.58,0,0,1-.26.42l0,0C20.81,31.77,20.86,31.57,21.25,31.53Z" transform="translate(-2.73 -1.04)" fill="#5c4b3d" fill-rule="evenodd"/>
    <path d="M19.38,34.26a.66.66,0,0,1,.41-.45A.54.54,0,0,1,19.38,34.26Z" transform="translate(-2.73 -1.04)" fill="#5e4c40" fill-rule="evenodd"/>
    <path d="M19.78,33.81c.07-.21.14-.4.39-.45A.6.6,0,0,1,19.78,33.81Z" transform="translate(-2.73 -1.04)" fill="#5e4c40" fill-rule="evenodd"/>
    <path d="M21.34,23.29A7.83,7.83,0,0,1,22,27.64,13.81,13.81,0,0,1,21.5,30c0,.38.09.76-.44.85a.41.41,0,0,1-.1-.21,19.5,19.5,0,0,1,.48-2.44,8.89,8.89,0,0,0-.17-4c-.07-.26-.21-.53,0-.8Z" transform="translate(-2.73 -1.04)" fill="#645245" fill-rule="evenodd"/>
    <path d="M21.11,30.85c.29-.21.3-.55.39-.85l.14.27-.39,1.26a.94.94,0,0,0-.27.56l-.67.72-.14-.14a.25.25,0,0,1-.08-.16.51.51,0,0,1,.08-.26c.13-.23.3-.45.42-.68S20.83,31,21.11,30.85Z" transform="translate(-2.73 -1.04)" fill="#544234" fill-rule="evenodd"/>
    <path d="M20.74,22.08v-.15a3,3,0,0,1,.6,1.37l0,0A.94.94,0,0,1,20.74,22.08Z" transform="translate(-2.73 -1.04)" fill="#654e40" fill-rule="evenodd"/>
    <path d="M24.94,17.09c-.66.34-1.28-.14-1.93-.11-.22,0-.32-.2-.12-.31.56-.31.95-.94,1.74-.85.44,0,.71,0,.5.58a2,2,0,0,0-.05.55Z" transform="translate(-2.73 -1.04)" fill="#b2a595" fill-rule="evenodd"/>
    <path d="M22.33,18a.81.81,0,0,1-.57-.12c-.6-.26-1.18-.54-1.22-1.31.48-.28.55.32.86.41l0,.09C21.63,17.46,22.11,17.59,22.33,18Z" transform="translate(-2.73 -1.04)" fill="#665545" fill-rule="evenodd"/>
    <path d="M21.32,16.76l.94.18c.07.23-.27.28-.24.5-.19-.14-.28-.42-.58-.39h0C21.38,17,21.23,16.92,21.32,16.76Z" transform="translate(-2.73 -1.04)" fill="#aa9e8c" fill-rule="evenodd"/>
    <path d="M20.6,16.51c.19.62.83.85,1.16,1.35l-.27.43h0a5.81,5.81,0,0,1-.45-.44c-.22-.21-.34-.51-.66-.62a.47.47,0,0,1-.25-.4.49.49,0,0,1,.3-.37A.2.2,0,0,1,20.6,16.51Z" transform="translate(-2.73 -1.04)" fill="#4b392a" fill-rule="evenodd"/>
    <path d="M21.21,17.73a.56.56,0,0,1,.28.56,2.33,2.33,0,0,1-1.11.17,1.9,1.9,0,0,1-1.26-.25.36.36,0,0,1,.23-.19,3.16,3.16,0,0,1,1.09,0,.53.53,0,0,0,.61-.19A.48.48,0,0,1,21.21,17.73Z" transform="translate(-2.73 -1.04)" fill="#543f31" fill-rule="evenodd"/>
    <path d="M20,21.39l.15.14a4.71,4.71,0,0,1,.27.45.46.46,0,0,1,0,.4.48.48,0,0,1-.69,0c-.4-.36-.79-.66-1.3-.45.17.12.61.18.48.6s-.64.42-1,.38a1.5,1.5,0,0,1-1.51-1.06c-.2-.55-.59-1-.14-1.56.09-.11.14-.25.3-.26A15.75,15.75,0,0,1,19,19.88c.24.11.32.34.44.54l.15.26C19.7,21,19.68,21.28,20,21.39Z" transform="translate(-2.73 -1.04)" fill="#aca092" fill-rule="evenodd"/>
    <path d="M17.4,16.72l1.47,2.74-.08.06c-.41,0-.74,0-.76-.52,0,0,0,0,0,.08-.34.81-1.12.77-1.79.87-.39.06-.92.09-1-.54a.36.36,0,0,1,.15-.12,2.67,2.67,0,0,0,1.21-.11c.12-.06.3-.06.28-.24s-.19-.17-.33-.18-.37,0-.5-.17-.06-.32.08-.35c.82-.21.41-.76.31-1.18-.06-.24-.22-.45-.08-.71C16.88,15.95,17,16.6,17.4,16.72Z" transform="translate(-2.73 -1.04)" fill="#a79e8c" fill-rule="evenodd"/>
    <path d="M20.32,21.94a.51.51,0,0,1-.15-.42l.29.13.28.42a3.44,3.44,0,0,0,.57,1.25,16.85,16.85,0,0,1,.52,2.86,14.52,14.52,0,0,1-.75,4.5c-.15.25,0,.65-.42.77a.22.22,0,0,1-.18-.08c-.2-.49.1-.89.23-1.32a5.8,5.8,0,0,0,.27-.78,8.14,8.14,0,0,1,.22-1.1,4.5,4.5,0,0,1,0-.72c0-.07,0-.14,0-.2.06-.48.34-1,0-1.45a12.82,12.82,0,0,1-.3-1.52,1.37,1.37,0,0,0-.25-.8,1.56,1.56,0,0,1-.12-.25.72.72,0,0,1,0-.18,2.4,2.4,0,0,0-.14-.52C20.38,22.35,20.46,22.13,20.32,21.94Z" transform="translate(-2.73 -1.04)" fill="#9e9181" fill-rule="evenodd"/>
    <path d="M18.11,6h.15c.16.19.08.41,0,.62a9.09,9.09,0,0,0-.71,2.5,3.21,3.21,0,0,0-.28,1.23.62.62,0,0,1-.05.21c-.28.38-.17.82-.18,1.24s0,.87,0,1.31c0,.28-.16.57,0,.85a.86.86,0,0,1,.07.28,1.24,1.24,0,0,0,.14.88c.12.3.41.55.31.93a.32.32,0,0,1-.14.15h-.26c-.54-.17-.58-.66-.64-1.1-.08-.65-.2-1.3-.32-1.95a.87.87,0,0,1,0-.23A32.2,32.2,0,0,1,17.27,7C17.6,6.72,17.55,6.11,18.11,6Z" transform="translate(-2.73 -1.04)" fill="#7d6a5c" fill-rule="evenodd"/>
    <path d="M17.4,16.72c-.48.24-.58-.45-1-.4a1.18,1.18,0,0,1-.55-1,11.82,11.82,0,0,1,.08-2.4.65.65,0,0,1,.37-.55c.35.12.22.36.16.59h0c0,.85.26,1.67.24,2.53,0,.37.36.61.53.93Z" transform="translate(-2.73 -1.04)" fill="#a7998b" fill-rule="evenodd"/>
    <path d="M17.26,16.44A1.1,1.1,0,0,1,16.55,15a3.91,3.91,0,0,0-.12-1.42c0-.21-.11-.4.06-.58.3,1.05.19,2.2.77,3.18C17.26,16.26,17.26,16.35,17.26,16.44Z" transform="translate(-2.73 -1.04)" fill="#9f8e7f" fill-rule="evenodd"/>
    <path d="M17.52,16.16l0-.15a.28.28,0,0,1,.17-.08c.26,0,.36.26.54.4a1,1,0,0,1,.2.34,2.37,2.37,0,0,1,.25,1,.44.44,0,0,1-.11.17c-.36.09-.33-.26-.46-.42A5,5,0,0,1,17.52,16.16Z" transform="translate(-2.73 -1.04)" fill="#523f30" fill-rule="evenodd"/>
    <path d="M18.12,17.4l.43.41a.67.67,0,0,1,.16.83A2.37,2.37,0,0,1,18.12,17.4Z" transform="translate(-2.73 -1.04)" fill="#655143" fill-rule="evenodd"/>
    <path d="M19.45,20.43,19,20c-.23-.13-.36-.29-.15-.55h0C19.14,19.74,19.48,20,19.45,20.43Z" transform="translate(-2.73 -1.04)" fill="#a79e8c" fill-rule="evenodd"/>
    <path d="M18.71,18.63l-.16-.83s0-.1,0-.14c.39,0,.49.2.44.54-.17.16-.13.36-.13.56Z" transform="translate(-2.73 -1.04)" fill="#4b392a" fill-rule="evenodd"/>
    <path d="M20,21.39c-.53,0-.4-.4-.42-.7Z" transform="translate(-2.73 -1.04)" fill="#a99d8f" fill-rule="evenodd"/>
    <path d="M19,18.21l-.44-.54-.28-1a.35.35,0,0,1,.36.08c.28.3.41.69.66,1,.06.14.21.25.12.43l-.29,0Z" transform="translate(-2.73 -1.04)" fill="#655143" fill-rule="evenodd"/>
    <path d="M18.61,2.78l.13,0c.39-.07.92-.36,1.12,0s-.37.61-.63.87a14.75,14.75,0,0,0-1.27,2c-.14.14-.31.28-.24.52a.83.83,0,0,1-.35.66s-.05,0-.07,0c-.64-.56-1.52-.68-2.16-1.21a.38.38,0,0,0-.53-.05c-.24.15-.5.27-.76,0a.47.47,0,0,1,0-.39,1.87,1.87,0,0,1,1.47-.77c.18,0,.36,0,.46-.22.41-1,.42-1,1.43-.68.08,0,.06-.13,0,0h0c-.17,0-.28,0-.27-.21s.19-.3.39-.32a3.44,3.44,0,0,0,1.16-.15Z" transform="translate(-2.73 -1.04)" fill="#ada090" fill-rule="evenodd"/>
    <path d="M18.61,2.9c-.32.37-.75.27-1.16.31-.14,0-.36-.07-.36.17,0,.05.22.1.51.23-.37,0-.59,0-.79,0-.41,0-1-.13-.71.69.1.27-.31.56-.45.5-.7-.3-1.16.25-1.72.41-.06,0-.15-.07-.15-.13-.09-1-.86-1-1.61-1A.5.5,0,0,1,12,4c-.25-.21-.32-.41,0-.58s.8.07,1.18-.14h0a1.75,1.75,0,0,1,1.06-.07,2.14,2.14,0,0,0,1.17-.12L15.56,3c.38.23.73-.08,1.1,0A3.46,3.46,0,0,1,18.61,2.9Z" transform="translate(-2.73 -1.04)" fill="#ab9f91" fill-rule="evenodd"/>
    <path d="M17.31,6.83a1.47,1.47,0,0,0,.26-.7c0-.22.12-.32.27-.42a12.93,12.93,0,0,0,.66-1.21,1.85,1.85,0,0,1,.9-1.12c.18-.08.41-.26.36-.46s-.39-.13-.6-.16a3,3,0,0,0-.42,0,.65.65,0,0,1,.69-.16c.3-.09.6-.2.84.12a11.38,11.38,0,0,0-2,2.73,1.59,1.59,0,0,0-.16.52c-.28.29-.23.8-.64,1-.2.15.13.56-.29.6-.18-.18-.52-.28-.41-.6S17.08,6.71,17.31,6.83Z" transform="translate(-2.73 -1.04)" fill="#a69a8a" fill-rule="evenodd"/>
    <path d="M18.61,2.9,16.66,3c.15-.17.36-.14.55-.16a1.58,1.58,0,0,1,1,0,.41.41,0,0,1,.43,0S18.61,2.86,18.61,2.9Z" transform="translate(-2.73 -1.04)" fill="#a39082" fill-rule="evenodd"/>
    <path d="M20.27,2.72a1.6,1.6,0,0,0-.84-.12.87.87,0,0,1,1,0Z" transform="translate(-2.73 -1.04)" fill="#a39082" fill-rule="evenodd"/>
    <path d="M18.19,2.77l-1,0A.87.87,0,0,1,18.19,2.77Z" transform="translate(-2.73 -1.04)" fill="#938477" fill-rule="evenodd"/>
    <path d="M15.41,3.12a.94.94,0,0,1-1.21.22c-.26-.15-.67,0-1,0A7.56,7.56,0,0,1,15.41,3.12Z" transform="translate(-2.73 -1.04)" fill="#a49788" fill-rule="evenodd"/>
    <path d="M13.19,3.31a1.06,1.06,0,0,1-1.11.17c-.13.09-.29.09-.42.17a1,1,0,0,1-.8-.06.16.16,0,0,1,0-.21l.4,0Z" transform="translate(-2.73 -1.04)" fill="#a49788" fill-rule="evenodd"/>
    <path d="M10.82,3.5l.84,0c0,.5-.36.59-.75.58A7.74,7.74,0,0,0,9.77,4c.2.18.43.35.3.64A.6.6,0,0,1,9.44,5c-.51,0-1.15.26-1.27-.63,0-.24-.39-.28-.66-.26s-.41,0-.62,0-.24,0-.21.21c.06.43-.25.55-.59.59s-.58-.2-.65-.56a.3.3,0,0,1,.11-.26.9.9,0,0,1,.86-.45C7.6,3.6,8.8,3.56,10,3.53A1.11,1.11,0,0,1,10.82,3.5Z" transform="translate(-2.73 -1.04)" fill="#a2988c" fill-rule="evenodd"/>
    <path d="M5.24,3.36l2,0a2,2,0,0,1-1,.14c-.41,0-.72.15-.8.59a.76.76,0,0,1-.05.16,4.1,4.1,0,0,0-.23.47.52.52,0,0,1-.23.18.47.47,0,0,1-.2,0,.33.33,0,0,1-.16-.12.54.54,0,0,1,0-.2C4.75,4.15,4.59,3.51,5.24,3.36Z" transform="translate(-2.73 -1.04)" fill="#3e3227" fill-rule="evenodd"/>
    <path d="M4.91,4.76,5,4.62c.11-.18.1-.42.3-.55l.1,0h.16c0,.09,0,.18,0,.27A2.44,2.44,0,0,1,5.2,5.58a5.94,5.94,0,0,0-.41,1.24c-.11.27-.15.6-.55.6-.24-.2-.12-.46-.1-.7A3,3,0,0,1,4.91,4.76Z" transform="translate(-2.73 -1.04)" fill="#8d8377" fill-rule="evenodd"/>
    <path d="M10.82,3.5l-.83,0a.63.63,0,0,1,0-.12l.82,0S10.82,3.46,10.82,3.5Z" transform="translate(-2.73 -1.04)" fill="#938477" fill-rule="evenodd"/>
    <path d="M5.24,3.36c-.5.28-.43.86-.67,1.27a.08.08,0,0,1-.09,0s0,0,0,0,0-.18,0-.27c.25-.48.28-1.11.94-1.29Z" transform="translate(-2.73 -1.04)" fill="#503f36" fill-rule="evenodd"/>
    <path d="M18.65,5.53l.16.15c.16.27,0,.39-.22.5a.32.32,0,0,1-.21,0,.24.24,0,0,1,0-.3Z" transform="translate(-2.73 -1.04)" fill="#4d3d2d" fill-rule="evenodd"/>
    <path d="M18.4,5.84c0,.09,0,.18,0,.27.08.25.06.44-.28.42L18.25,6Z" transform="translate(-2.73 -1.04)" fill="#534233" fill-rule="evenodd"/>
    <path d="M18.94,4.85a.87.87,0,0,1-.26.56A.48.48,0,0,1,18.94,4.85Z" transform="translate(-2.73 -1.04)" fill="#4d3d2d" fill-rule="evenodd"/>
    <path d="M20.16,3.3a.45.45,0,0,1-.39.42A.63.63,0,0,1,20.16,3.3Z" transform="translate(-2.73 -1.04)" fill="#4d3d2d" fill-rule="evenodd"/>
    <path d="M18.55,6.1a.48.48,0,0,0,.26-.42c.31-.2.36-.57.54-.85h.17L18.8,6.37c.07.23.06.44-.23.51a.26.26,0,0,1-.19-.08C18.28,6.53,18.44,6.32,18.55,6.1Z" transform="translate(-2.73 -1.04)" fill="#534233" fill-rule="evenodd"/>
    <path d="M22.85,5.58a.55.55,0,0,1-.42-.18c-.34-.34-.6-.34-.69.21,0,.21-.09.48-.34.43s-.11-.35-.06-.47c.11-.3-.4-.79.29-.91.13,0,0-.26-.06-.36-.29-.32,0-.63.08-.9s.43-.19.67,0,.37.08.43-.15-.11-.41-.38-.41c.28-.4.58-.34,1-.11.59.37,1,.93,1.65,1.28.44.24.79.68.38,1.26-.28.18-.38,0-.48-.22s-.1-.34-.31-.16a6.85,6.85,0,0,1-.8.49C23.46,5.47,23.22,5.76,22.85,5.58Z" transform="translate(-2.73 -1.04)" fill="#b3a696" fill-rule="evenodd"/>
    <path d="M27.29,10.49a1.69,1.69,0,0,1,.19,2.22.49.49,0,0,1-.81.16,2.43,2.43,0,0,1-1.11-1.95c0-.16,0-.35.12-.45.39-.31.27-.62,0-1V9.41c0-.46,0-.92,0-1.47.49.42,1,.91,1.69.59,0,.19,0,.37,0,.56A1.82,1.82,0,0,0,27,11C27.06,10.82,27,10.56,27.29,10.49Z" transform="translate(-2.73 -1.04)" fill="#b3a695" fill-rule="evenodd"/>
    <path d="M23.31,13.09l-1.12-.25c-.15-.1-.45-.08-.33-.4.13-.15.31-.09.47-.09.5,0,1,.4,1.5,0a4.73,4.73,0,0,0,.68-.56.86.86,0,0,0,.38-.55,1.09,1.09,0,0,0,.13-.45A3.11,3.11,0,0,0,25,8.44,1.22,1.22,0,0,0,24.83,8a1,1,0,0,0-.3-.61A2.6,2.6,0,0,0,24,6.8a4.61,4.61,0,0,1-.4-.49c-.07-.18-.22-.31-.26-.51a.23.23,0,0,1,.1-.17c.47-.18.52.21.66.48a4.05,4.05,0,0,1,1.48,3.31,1,1,0,0,1,.22.78,6.33,6.33,0,0,0-.18,1.22,2.46,2.46,0,0,1-1.87,1.81A.62.62,0,0,1,23.31,13.09Z" transform="translate(-2.73 -1.04)" fill="#a39484" fill-rule="evenodd"/>
    <path d="M24.12,6.1c-.2-.2-.36-.45-.71-.39s-.42.14-.56-.12h0a1.79,1.79,0,0,1,.83-.44c.49,0,.85-.54,1.38-.31,0,.2,0,.38.29.41,0,.19,0,.35-.35.24C24.49,5.31,24.16,5.53,24.12,6.1Z" transform="translate(-2.73 -1.04)" fill="#b0a392" fill-rule="evenodd"/>
    <path d="M25.62,10.26c0-.28,0-.56,0-.85h.13C25.9,9.72,26.13,10,25.62,10.26Z" transform="translate(-2.73 -1.04)" fill="#a89686" fill-rule="evenodd"/>
    <path d="M21.9,12.44c0,.19.19.27.29.4a1.6,1.6,0,0,1-1.84-1.3c-.06-.19-.13-.26-.32-.26s-.58.06-.67.31-.3.47-.24.77a.37.37,0,0,1-.44-.09,5.86,5.86,0,0,1-.47-2.74,4.08,4.08,0,0,1,.17-1.68c.08-.16.08-.37.34-.35.2.23.67.43,0,.75-.11.06-.17.33-.11.52s.11.21.26.16c-.18-.51.9-.54.43-1.16a.21.21,0,0,1,0-.31c.12-.09.22,0,.28.1a2.29,2.29,0,0,0,.75.59.41.41,0,0,1,.16.38c-.14.54-.5,1.06-.22,1.66a2.56,2.56,0,0,0,.27.82c.09.4.17.81.74.64A.66.66,0,0,1,21.9,12.44Z" transform="translate(-2.73 -1.04)" fill="#ac9f8f" fill-rule="evenodd"/>
    <path d="M23.41,5.84c.2,0,.44.06.3.37a.15.15,0,0,1-.12.12.48.48,0,0,1-.18,0,.78.78,0,0,0-.84.08A2.24,2.24,0,0,0,21.14,8a4.19,4.19,0,0,0,.23,2.68c.08.26.29.48.16.78a.33.33,0,0,1-.18.13.46.46,0,0,1-.22,0,1.81,1.81,0,0,1-.81-1.84,4.77,4.77,0,0,1,.13-1.16c.05-.28.15-.55.21-.84A3.61,3.61,0,0,1,21.89,6,2,2,0,0,1,23.41,5.84Z" transform="translate(-2.73 -1.04)" fill="#8d7e6b" fill-rule="evenodd"/>
    <path d="M18.72,7.49a7.74,7.74,0,0,0,.11,4.73.88.88,0,0,1,.16.43.4.4,0,0,1-.13.43c-.37,0-.41-.3-.48-.54s-.08-.48-.17-.71a7.78,7.78,0,0,1,0-4.39,1.38,1.38,0,0,1,.37-.64l.21-.44H19a.33.33,0,0,1,0,.42h0a2.52,2.52,0,0,1-.26.56S18.72,7.45,18.72,7.49Z" transform="translate(-2.73 -1.04)" fill="#9c8b7c" fill-rule="evenodd"/>
    <path d="M19,6.79c0-.14,0-.28,0-.42.78-.44.69-1.46,1.34-2a.73.73,0,0,1-.2.57c-.09.1-.18.22-.07.37s.52.28.31.52-.59.7-1,.69C19,6.52,19.12,6.76,19,6.79Z" transform="translate(-2.73 -1.04)" fill="#aca190" fill-rule="evenodd"/>
    <path d="M23.41,5.84A5.6,5.6,0,0,0,21.89,6c.22-.36.69-.2,1-.45l.56.13S23.41,5.8,23.41,5.84Z" transform="translate(-2.73 -1.04)" fill="#a89686" fill-rule="evenodd"/>
    <path d="M20.67,7.72a2.3,2.3,0,0,1-.12.83l-.06.06-.07-.05c0-.14,0-.28,0-.42Z" transform="translate(-2.73 -1.04)" fill="#a39484" fill-rule="evenodd"/>
    <path d="M18.72,7.35A.83.83,0,0,1,19,6.79.54.54,0,0,1,18.72,7.35Z" transform="translate(-2.73 -1.04)" fill="#ac9f8f" fill-rule="evenodd"/>
    <path d="M25.62,10.26c.21-.26.1-.56.11-.84a.64.64,0,0,1,.37,1,1.69,1.69,0,0,0,.42,2.08c.27.23.54.56,1,.26.09,0,.19-.09.24,0a.2.2,0,0,1-.12.28c-.47.07-.79.22-.77.8,0,.15-.29.33-.47.47s-.34-.05-.25-.13c.53-.47,0-.77-.14-1.13s-.19-.23-.28,0c0,.57-.56,1.06-.24,1.68a.15.15,0,0,1-.14.14,1.77,1.77,0,0,0-.6-.11c-.74.13-1.08-.34-1.37-.88-.06-.12-.28-.25.08-.38s-.2-.22-.1-.39A2.72,2.72,0,0,0,25.62,10.26Z" transform="translate(-2.73 -1.04)" fill="#b3a393" fill-rule="evenodd"/>
    <path d="M27.29,10.49a.45.45,0,0,0,.13.61.24.24,0,0,1,0,.37c-.13.13-.25,0-.37,0a.67.67,0,0,1-.44-.71,2.22,2.22,0,0,0,0-.89c-.22-.76.47-.56.8-.74.75-.14.17.49.38.7s.06.46-.28.49C27.36,10.29,27.13,10.18,27.29,10.49Z" transform="translate(-2.73 -1.04)" fill="#b0a392" fill-rule="evenodd"/>
    <path d="M20.71,15.11c.08,0,.19,0,.25-.1s-.18-.5.26-.46.87-.22,1.22.2c.08.09.18.27.12.27-.79-.06-.26,1.06-.65.91s-.89-.16-1.19-.54A.2.2,0,0,1,20.71,15.11Z" transform="translate(-2.73 -1.04)" fill="#ada08f" fill-rule="evenodd"/>
    <path d="M18.85,13.07v-.44c.55.25.38.83.58,1.25.25.22.16.57.3.83h0c.27.24.63.41.71.82-.05.66.66.77.88,1.23l.13.29c-.38,0-.52-.44-.85-.54l-.12,0a.43.43,0,0,1-.44-.2,4.17,4.17,0,0,0-.65-1.08,8.41,8.41,0,0,1-.7-1.72A.42.42,0,0,1,18.85,13.07Z" transform="translate(-2.73 -1.04)" fill="#9e8c7d" fill-rule="evenodd"/>
    <path d="M25.3,14.86l.14-.14h.35c.18,0,.33.08.33.28a.46.46,0,0,1-.09.31c-.15.13-.3,0-.44-.08A.55.55,0,0,1,25.3,14.86Z" transform="translate(-2.73 -1.04)" fill="#b5a595" fill-rule="evenodd"/>
    <path d="M20.44,15.53c-.48-.07-.5-.52-.71-.82a3.2,3.2,0,0,1,1,.39c0,.09,0,.19,0,.28Z" transform="translate(-2.73 -1.04)" fill="#aa9e8c" fill-rule="evenodd"/>
    <path d="M19.43,13.88l-.58-1.25c0-.14,0-.27,0-.41l.28.13A2.8,2.8,0,0,1,19.43,13.88Z" transform="translate(-2.73 -1.04)" fill="#aa9e8c" fill-rule="evenodd"/>
    <path d="M25.68,13a.78.78,0,0,1,.11-.93c.19.31.51.54.17.92Z" transform="translate(-2.73 -1.04)" fill="#b3a695" fill-rule="evenodd"/>
    <path d="M19.73,14.71a1.39,1.39,0,0,1-.3-.83C20.56,13.79,19.68,14.42,19.73,14.71Z" transform="translate(-2.73 -1.04)" fill="#aa9e8c" fill-rule="evenodd"/>
    <path d="M26.86,6.19c.17.3.34.39.21.58C26.84,6.69,27,6.47,26.86,6.19Z" transform="translate(-2.73 -1.04)" fill="#b0a392" fill-rule="evenodd"/>
    <path d="M8.94,23.17l0-.11a3.7,3.7,0,0,0-.43-.68l-.15-.15a.28.28,0,0,1,0-.3.32.32,0,0,1,.19-.08c.52.11.7.56.94.94a8.94,8.94,0,0,1,.52.9c.08.5.42.9.51,1.4a2.34,2.34,0,0,1,.33,1.37,4.84,4.84,0,0,0,0,.95c0,.07,0,.13,0,.2,0,.26-.18.52,0,.78a1.33,1.33,0,0,0,.13.22c.48.36,1,.07,1.43,0A13.49,13.49,0,0,0,14,28.17c.34-.05.69-.34,1,0a.22.22,0,0,1,0,.21c-.09.11-.21.19-.31.29a.94.94,0,0,1-.48.18,1.13,1.13,0,0,0-.73.22,3.94,3.94,0,0,1-.83.17.45.45,0,0,1-.27-.18,7.69,7.69,0,0,0-1.51.13c-.48.12-.72,0-.65-.6A7.08,7.08,0,0,0,8.94,23.17Z" transform="translate(-2.73 -1.04)" fill="#8f8276" fill-rule="evenodd"/>
    <path d="M5.33,29.83c.33,0,.68.08,1-.16l2.51-.06c0,.1,0,.2-.1.21a.48.48,0,0,0-.41.35,1.48,1.48,0,0,1-.66.14,5.22,5.22,0,0,0-1.83.09c-.29.07-.64.14-.89-.16.17-.21.46-.08.67-.21Z" transform="translate(-2.73 -1.04)" fill="#42342b" fill-rule="evenodd"/>
    <path d="M8.4,30c-.31-.58.44-.11.41-.41.51.17.78,0,.83-.56a.77.77,0,0,1,.27-.6c.23.15.08.37.12.55s0,.34.16.43h0c.22.17.52-.07.73.15a.22.22,0,0,1,0,.19c-.21.2-.52.11-.75.25l-.2,0a3.86,3.86,0,0,0-1.14.14A.4.4,0,0,1,8.4,30Z" transform="translate(-2.73 -1.04)" fill="#35251d" fill-rule="evenodd"/>
    <path d="M10.9,29.69l-.7-.26a8.69,8.69,0,0,0,2.22-.34h.28c.13.13.37,0,.47.17a.32.32,0,0,1,0,.22,2.09,2.09,0,0,1-1.19.39C11.59,29.83,11.2,30,10.9,29.69Z" transform="translate(-2.73 -1.04)" fill="#4d3d33" fill-rule="evenodd"/>
    <path d="M10.2,29.43c-.52,0-.22-.24-.16-.43Z" transform="translate(-2.73 -1.04)" fill="#4d3d33" fill-rule="evenodd"/>
    <path d="M5.32,18,5,17.57A.79.79,0,0,1,5,17.07.2.2,0,0,1,5.12,17c.36.06.48.36.63.63a1,1,0,0,0,.31.57c.17.19.18.47.36.66a16.53,16.53,0,0,1,1.09,1.53c.46.24.78-.24,1.18-.25a.89.89,0,0,1,.3,0,.38.38,0,0,1,.32.22.25.25,0,0,1,0,.19c-.24.22-.56.25-.83.41A1.16,1.16,0,0,0,8,21.3a.42.42,0,0,1-.17.08c-.38-.05-.53-.41-.81-.61a1.22,1.22,0,0,1-.18-.33c-.24-.5-.68-.87-.94-1.36l-.14-.13C5.61,18.63,5.45,18.32,5.32,18Z" transform="translate(-2.73 -1.04)" fill="#8f8478" fill-rule="evenodd"/>
    <path d="M3.86,14.65a.55.55,0,0,0,0-.11,6.48,6.48,0,0,1-.3-1.67c0-.78-.07-1.56,0-2.34a.32.32,0,0,1,.14-.19.23.23,0,0,1,.21.07,2.39,2.39,0,0,1,.21,1.53,3.09,3.09,0,0,0,.24,1.94c.24.56.26,1.19.46,1.76a.84.84,0,0,1,.08.42.34.34,0,0,1-.11.18c-.34.12-.32-.17-.41-.35l-.15-.25C4,15.34,4.06,15,3.86,14.65Z" transform="translate(-2.73 -1.04)" fill="#85796d" fill-rule="evenodd"/>
    <path d="M7.07,20.71c.3.15.44.55.84.55a.68.68,0,0,1,.41.7v.27a13,13,0,0,1-1.27-1.37A.09.09,0,0,1,7.07,20.71Z" transform="translate(-2.73 -1.04)" fill="#5e4e44" fill-rule="evenodd"/>
    <path d="M4.31,15.89l.35.35A.76.76,0,0,1,5,17l0,.55A3.31,3.31,0,0,1,4.31,15.89Z" transform="translate(-2.73 -1.04)" fill="#534238" fill-rule="evenodd"/>
    <path d="M5.91,19.08a3.51,3.51,0,0,1,1,1.37.09.09,0,0,1-.1,0s-.05,0-.05,0C6.57,19.94,5.93,19.71,5.91,19.08Z" transform="translate(-2.73 -1.04)" fill="#53463b" fill-rule="evenodd"/>
    <path d="M3.86,14.65c.37.25.26.65.3,1H4l-.16-.83Z" transform="translate(-2.73 -1.04)" fill="#4c3c32" fill-rule="evenodd"/>
    <path d="M5.32,18a1.38,1.38,0,0,1,.44,1A1.16,1.16,0,0,1,5.32,18Z" transform="translate(-2.73 -1.04)" fill="#53463b" fill-rule="evenodd"/>
    <path d="M8.48,22.38a.62.62,0,0,1,.43.68A.78.78,0,0,1,8.48,22.38Z" transform="translate(-2.73 -1.04)" fill="#66574c" fill-rule="evenodd"/>
    <path d="M6.78,20.46h.15l.15.26v.15A.47.47,0,0,1,6.78,20.46Z" transform="translate(-2.73 -1.04)" fill="#4a3b30" fill-rule="evenodd"/>
    <path d="M5.47,35.53l-.12-.15c.36-.36.83-.15,1.24-.24a.6.6,0,0,1,.22,0,1.58,1.58,0,0,0,1.15,0l.22,0A4.44,4.44,0,0,0,9,35a6.12,6.12,0,0,1,1.05,0,5.11,5.11,0,0,0,.69-.09,1.57,1.57,0,0,0,.79-.05c.32,0,.64,0,1,0s.75-.14,1.07.17c0,.31-.22.21-.37.23a8.78,8.78,0,0,0-1.56.11,1.18,1.18,0,0,0-.7.16l-.07.08a2.17,2.17,0,0,1-.76.08c-.74,0-1.46.08-2.2.12-.41-.16-.86,0-1.28-.18h0C6.23,35.45,5.83,35.74,5.47,35.53Z" transform="translate(-2.73 -1.04)" fill="#7f7164" fill-rule="evenodd"/>
    <path d="M8,35.61a14.62,14.62,0,0,1,2.09,0,1,1,0,0,0,.83,0h0l1.86,0A47,47,0,0,1,7.42,36c0-.09,0-.18,0-.27C7.58,35.6,7.82,35.77,8,35.61Z" transform="translate(-2.73 -1.04)" fill="#4d4139" fill-rule="evenodd"/>
    <path d="M11.59,35.38c.38-.24.81-.1,1.22-.15.25,0,.52,0,.73-.16l.09-.06a7,7,0,0,0,1.5-.15.47.47,0,0,1,.51.14c0,.32-.12.44-.43.31Z" transform="translate(-2.73 -1.04)" fill="#604f45" fill-rule="evenodd"/>
    <path d="M15.21,35.3a.43.43,0,0,0,.4-.31.2.2,0,0,1,0-.18.35.35,0,0,1,.32-.19.5.5,0,0,1,.19.06c.13.14.31.25.36.45l-.55.3h0a.85.85,0,0,1-.7,0S15.21,35.34,15.21,35.3Z" transform="translate(-2.73 -1.04)" fill="#4f3d34" fill-rule="evenodd"/>
    <path d="M15.22,35.43h.7c-.48.28-1,.12-1.53.17C14.63,35.36,14.94,35.47,15.22,35.43Z" transform="translate(-2.73 -1.04)" fill="#604f45" fill-rule="evenodd"/>
    <path d="M10.9,29.69l1.13,0a.18.18,0,0,1,0,.22,16.39,16.39,0,0,1-4.83.62,10.22,10.22,0,0,0-2.81.29c-.53.12-.47.59-.39,1a9.55,9.55,0,0,0,.42,1.74c.09.21.17.44,0,.65a1.32,1.32,0,0,1-.47-.79,2.83,2.83,0,0,1-.34-2.93h0a1.25,1.25,0,0,1,.84,0,.92.92,0,0,0,.54-.15L8.4,30h.41c.4-.19.85,0,1.25-.17h0c.25-.19.58,0,.83-.16Z" transform="translate(-2.73 -1.04)" fill="#504440" fill-rule="evenodd"/>
    <path d="M3.53,30.42c-.34,1,.13,2,.34,2.93l-.13.14C3,32.79,3.17,31.84,3,31a6.69,6.69,0,0,1,0-1.1h.14C3.26,30.06,2.76,30.73,3.53,30.42Z" transform="translate(-2.73 -1.04)" fill="#413630" fill-rule="evenodd"/>
    <path d="M4.38,30.39l-.84,0A.72.72,0,0,1,4.38,30.39Z" transform="translate(-2.73 -1.04)" fill="#413630" fill-rule="evenodd"/>
    <path d="M4.34,34.14a13,13,0,0,1-.67-2.81c0-.56.14-.71.71-.79,2.53-.35,5.11-.18,7.61-.74a.25.25,0,0,1,.31,0,.28.28,0,0,1-.11.3c-.59.36-1.34.13-1.93.5a.91.91,0,0,1-.44.06,1.6,1.6,0,0,0-.44,0c-.94.09-1.89.05-2.83.16l-.2,0c-.36.05-.79-.26-1,.37-.11.31-.52.12-.81-.11a3.29,3.29,0,0,0,.09,2,3.19,3.19,0,0,0,.15.53.78.78,0,0,0,.24.54,1.09,1.09,0,0,1,.15.21,1,1,0,0,0,.22.35l.17.21c.21.14.45.08.68.1s.49,0,.48.33l-1.37,0L5,35.26a9,9,0,0,1-.7-1.12Z" transform="translate(-2.73 -1.04)" fill="#948a82" fill-rule="evenodd"/>
    <path d="M4.34,34.15A2.13,2.13,0,0,1,5,35.26c-.19,0-.28-.17-.42-.27Z" transform="translate(-2.73 -1.04)" fill="#4d423d" fill-rule="evenodd"/>
    <path d="M5.47,35.53c.37,0,.77-.14,1.12.11C6.23,35.49,5.8,36,5.47,35.53Z" transform="translate(-2.73 -1.04)" fill="#4d423d" fill-rule="evenodd"/>
    <path d="M8,35.61c-.15.17-.36.14-.56.15s-.59.1-.83-.13Z" transform="translate(-2.73 -1.04)" fill="#4d423d" fill-rule="evenodd"/>
    <path d="M3.66,12.88a11,11,0,0,0,.18,1.65,5.38,5.38,0,0,1-.46-2.2,16.72,16.72,0,0,1,.18-3.5,9.26,9.26,0,0,1,.37-1.68.44.44,0,0,1,.17-.59c.12,0,.18,0,.2.16l-.09.7v.1l0,.2A7.35,7.35,0,0,0,4,10a.4.4,0,0,1-.25.35h-.1A9.59,9.59,0,0,0,3.66,12.88Z" transform="translate(-2.73 -1.04)" fill="#504036" fill-rule="evenodd"/>
    <path d="M4.2,6.58a1,1,0,0,0-.26.57.6.6,0,0,1-.15-.43c0-.13,0-.26,0-.39s.15-.48.25-.7H4c.19-.28.12-.72.54-.85h.15A14,14,0,0,1,4.2,6.58Z" transform="translate(-2.73 -1.04)" fill="#433329" fill-rule="evenodd"/>
    <path d="M4.58,4.77,4,5.62V5.21l.39-.57h.14Z" transform="translate(-2.73 -1.04)" fill="#4f3e34" fill-rule="evenodd"/>
    <path d="M4,5.62a.87.87,0,0,1-.25.7A.85.85,0,0,1,4,5.62Z" transform="translate(-2.73 -1.04)" fill="#4f3e34" fill-rule="evenodd"/>
    <path d="M20.3,32.39l-.14.15a4.84,4.84,0,0,1-1.23,1.4h0a3.25,3.25,0,0,1-.71.43l-.25,0a1,1,0,0,1-.4.18,7.36,7.36,0,0,1-1,0l-.21,0c-.74-.39-1-1.14-1.45-1.78a2.82,2.82,0,0,1-.31-1.18,4.53,4.53,0,0,1,.07-1.25c.44-.27.46.15.51.36s.2.71.27,1.07a4.33,4.33,0,0,0,1.14,2.09.64.64,0,0,0,.77.09l.18-.05a1.55,1.55,0,0,0,.43-.14c.88-.21,1.23-1,1.84-1.56a.56.56,0,0,1,.18-.08.37.37,0,0,1,.29.08A.13.13,0,0,1,20.3,32.39Z" transform="translate(-2.73 -1.04)" fill="#968a7e" fill-rule="evenodd"/>
    <path d="M17.56,34.41H18c0,.26-.31.33-.41.53l-.27,0c-.25.18-.58,0-.83.16h0c-.24,0-.64.1-.42-.4a.28.28,0,0,1,.36-.25,1.55,1.55,0,0,0,.29,0,1.18,1.18,0,0,0,.63,0A.76.76,0,0,0,17.56,34.41Z" transform="translate(-2.73 -1.04)" fill="#402f26" fill-rule="evenodd"/>
    <path d="M18.93,33.94l1.23-1.4v.13C19.82,33.15,19.59,33.76,18.93,33.94Z" transform="translate(-2.73 -1.04)" fill="#5e4c40" fill-rule="evenodd"/>
    <path d="M18.22,34.37a1.19,1.19,0,0,1,.71-.43A.78.78,0,0,1,18.22,34.37Z" transform="translate(-2.73 -1.04)" fill="#5e4c40" fill-rule="evenodd"/>
    <path d="M16.46,35.13c.25-.22.55-.13.83-.16C17,35.18,16.75,35.1,16.46,35.13Z" transform="translate(-2.73 -1.04)" fill="#4f3d34" fill-rule="evenodd"/>
    <path d="M20.69,31.4l.4-.71c0,.05,0,.1,0,.16a.9.9,0,0,1-.39.85l-.07-.05A.19.19,0,0,1,20.69,31.4Z" transform="translate(-2.73 -1.04)" fill="#736254" fill-rule="evenodd"/>
    <path d="M20.3,32.39l0-.14c-.15-.39,0-.58.4-.59l0,0Z" transform="translate(-2.73 -1.04)" fill="#736254" fill-rule="evenodd"/>
    <path d="M20.19,16.79l.28.29c.21.12.46.23.32.56a2.32,2.32,0,0,1-1.94-2.3c.3-.22.43,0,.6.2a1.66,1.66,0,0,1,.22.33c.06.29.3.45.47.66A.41.41,0,0,1,20.19,16.79Z" transform="translate(-2.73 -1.04)" fill="#8a7868" fill-rule="evenodd"/>
    <path d="M20.19,16.79,20,16.68c0-.22-.34-.31-.31-.58A.26.26,0,0,1,20,16c.09,0,.12.15.21.19l.27.26A.34.34,0,0,1,20.19,16.79Z" transform="translate(-2.73 -1.04)" fill="#443022" fill-rule="evenodd"/>
    <path d="M20.76,17.62c0-.24-.19-.36-.29-.54.44,0,.49.44.74.66v.14a.27.27,0,0,1-.35,0A.22.22,0,0,1,20.76,17.62Z" transform="translate(-2.73 -1.04)" fill="#665545" fill-rule="evenodd"/>
    <path d="M20.91,17.76l.3.11c0,.47-.31.43-.62.41l-1.18-.09-.3-.25c.24-.35.59-.27.93-.24S20.6,17.88,20.91,17.76Z" transform="translate(-2.73 -1.04)" fill="#8a7868" fill-rule="evenodd"/>
    <path d="M18.87,19.47,19,20a2.47,2.47,0,0,1-1.43.1c-.1,0-.31,0-.32,0-.18.73-.48,0-.78.07-.1.17.13.56-.27.61a.16.16,0,0,0-.12.22c.16.37.91.45.54,1.09.39.2.68.61,1.19.56a1.23,1.23,0,0,1,.4.78c.16.58,0,.76-.65.73a3.82,3.82,0,0,0,.88.18c.38.06.64.26.52.72a.47.47,0,0,1-.35.29c-.47.05-.67.38-.84.75a1.57,1.57,0,0,1-1,.2c-.92-.24-.93-.29-.68-1.25.1-.39-.29-.55-.51-.73s-.92-.38-.69-1.06c.06-.17-.2-.21-.35-.26s-.52,0-.62-.36a3.59,3.59,0,0,0-.08-2.09c.47-.5,1-1,.8-1.79,0-.11.14-.23.28-.26a.33.33,0,0,1,.26.15,1.06,1.06,0,0,1,0,.73c.81.69,1.59.14,2.36-.08.48-.14.23-.61.35-1.06C18.3,18.7,18.16,19.46,18.87,19.47Z" transform="translate(-2.73 -1.04)" fill="#a99d8f" fill-rule="evenodd"/>
    <path d="M18.87,25c0-.2-.07-.42-.29-.39-.55.08-1-.35-1.53-.27-.13,0-.31,0-.32-.16a.25.25,0,0,1,.31-.28c1.11.38,1.13-.15.82-1a.88.88,0,0,1,0-.27c.3-.09.85.18.86-.25s-.46-.58-.9-.59c-.1,0-.24,0-.29-.17a.83.83,0,0,1,.7-.06c.21.05.45.47.54-.16,0-.16.51.09.69.32s.44.6.88.57a.52.52,0,0,1,.13.13c.13.17.17.39.3.56s0,.09,0,.14c-.14.24-.13.6-.55.57-.18-.29,0-.68-.13-.83.18.15-.06.57.15.85,0,.39-.17.56-.53.59-.12,0-.15-.26-.2-.24s-.14.2-.06.33a.65.65,0,0,1,.1.33C19.44,25.19,19.21,25.28,18.87,25Z" transform="translate(-2.73 -1.04)" fill="#aba090" fill-rule="evenodd"/>
    <path d="M20.34,22.5s0-.09,0-.14,0-.28,0-.41l.29.55A.18.18,0,0,1,20.34,22.5Z" transform="translate(-2.73 -1.04)" fill="#a99d8f" fill-rule="evenodd"/>
    <path d="M16.33,12.43a8,8,0,0,0,.09,3.9c0,.52.35.93.41,1.46s0,.7-.54.61a.19.19,0,0,0-.24.17.29.29,0,0,1-.28.08.78.78,0,0,1-.31-.25c-.22-.23-.35-.5-.67-.66s-.24-.52,0-.78c-.69-.09-1.13-.65-1.8-.79a.6.6,0,0,1-.25-.94c.28-.42.56-.25.86,0a.88.88,0,0,0,.47.28c.08-.14-.06-.27,0-.4a.59.59,0,0,1,0-.19c.11-.22,0-.32-.19-.43a1.19,1.19,0,0,1-.5-1.77c.16-.33.18-.87.78-.79s1.24-.11,1.83.15a.87.87,0,0,1,.31.14A.16.16,0,0,1,16.33,12.43Z" transform="translate(-2.73 -1.04)" fill="#aa9e90" fill-rule="evenodd"/>
    <path d="M15.78,18.57h.35c.4,0,1-.21,1.08.38s-.64.45-1,.57a1.07,1.07,0,0,1-.8-.11C15.17,19,15.14,18.61,15.78,18.57Z" transform="translate(-2.73 -1.04)" fill="#908072" fill-rule="evenodd"/>
    <path d="M15.78,18.57a.74.74,0,0,0-.4.84h-.14c-.2-.2-.14-.46-.16-.69s.19-.51.55-.43Z" transform="translate(-2.73 -1.04)" fill="#a69a8b" fill-rule="evenodd"/>
    <path d="M21.2,29.3a19.89,19.89,0,0,1-.65,2.1c0,.4-.39.55-.54.85h0c-.51.19-.88.69-1.5.62a.46.46,0,0,1-.17-.11c.1-.92-.65-1.35-1.11-1.94-.21-.27-.62-.46-.3-.85s.71-.26,1.06,0,.47.3.76.12.17-.3.08-.48a.82.82,0,0,1,0-.6.4.4,0,0,1,.64-.13,1.34,1.34,0,0,0,1.44.3A.32.32,0,0,1,21.2,29.3Z" transform="translate(-2.73 -1.04)" fill="#aa9e92" fill-rule="evenodd"/>
    <path d="M18.87,25c.3,0,.57,0,.55-.43-.05-.23,0-.32.27-.29l.54-.57h0c.18-.2.12-.62.55-.57l.14.14a4.65,4.65,0,0,0,.3.83,14.58,14.58,0,0,1,.32,1.66,7,7,0,0,1-.1,1.54h0c-.54.49-.91.48-1.53,0-.11-.31-.14-.64-.28-.94a.79.79,0,0,1,0-.48c.11-.36-.19-.17-.26-.15-.47.07-.86.38-1.34.43a.33.33,0,0,1-.26-.13c-.08-.55,0-.94.72-.86C18.61,25.19,18.74,25.09,18.87,25Z" transform="translate(-2.73 -1.04)" fill="#ada092" fill-rule="evenodd"/>
    <path d="M19.73,26.27c.48.14.31.51.3.83-.24.58-.16.73.41.8.35,0,.74-.08,1,.28a3.23,3.23,0,0,1-.25,1.12l-.75.27a.67.67,0,0,1-1-.48c-.06-.17-.31-.16-.49-.16-.35-.13-.63-.36-1-.5a.55.55,0,0,1-.14-1,9.09,9.09,0,0,0,1.32-1.1A.49.49,0,0,1,19.73,26.27Z" transform="translate(-2.73 -1.04)" fill="#aca093" fill-rule="evenodd"/>
    <path d="M21.44,28.18a8.39,8.39,0,0,0-1.21,0,.54.54,0,0,1-.66-.44c-.08-.32.11-.56.46-.63.4.48.9.36,1.4.25C21.43,27.62,21.44,27.9,21.44,28.18Z" transform="translate(-2.73 -1.04)" fill="#ab9f8f" fill-rule="evenodd"/>
    <path d="M21.43,27.35a3.12,3.12,0,0,1,.1-1.54C21.81,26.34,21.56,26.84,21.43,27.35Z" transform="translate(-2.73 -1.04)" fill="#ab9f8f" fill-rule="evenodd"/>
    <path d="M20,32.25c0-.38.41-.53.54-.85h.14c0,.09,0,.17,0,.26a1,1,0,0,0-.4.59Z" transform="translate(-2.73 -1.04)" fill="#97877a" fill-rule="evenodd"/>
    <path d="M21.21,24.15a1,1,0,0,1-.3-.83A1.43,1.43,0,0,1,21.21,24.15Z" transform="translate(-2.73 -1.04)" fill="#ab9f8f" fill-rule="evenodd"/>
    <path d="M20.34,22.5h.27l.16.55C20.53,22.93,20.45,22.7,20.34,22.5Z" transform="translate(-2.73 -1.04)" fill="#ab9f8f" fill-rule="evenodd"/>
    <path d="M17.67,16h-.13a2.34,2.34,0,0,0-.44-.83,1.67,1.67,0,0,1-.05-1l-.12-.12a1.29,1.29,0,0,1,0-.85c0-.51,0-1,0-1.52s-.08-.81.2-1.15c.29-.16.42-.71.92-.4.16.76.35,1.52.46,2.28a8.81,8.81,0,0,1,.34,1,8.49,8.49,0,0,1,.57,1.67.27.27,0,0,1-.18.1.78.78,0,0,1-.4-.16,8.77,8.77,0,0,1-.86-2.32,1.82,1.82,0,0,1-.14-.81c0-.22,0-.46-.19-.63l-.06,0a.14.14,0,0,0,0,.06,1,1,0,0,1,0,.17,1.86,1.86,0,0,0-.11.77,3.72,3.72,0,0,0,.14,1.28c0,.34.14.65.19,1s.2.66.16,1A.5.5,0,0,1,17.67,16Z" transform="translate(-2.73 -1.04)" fill="#4e382b" fill-rule="evenodd"/>
    <path d="M17.94,10.15c-.33,0-.46.42-.8.43a.1.1,0,0,1,0-.15.27.27,0,0,1,0-.12c.28-.38.11-.86.26-1.27a5.22,5.22,0,0,1,.77-2.52l.28-.42h.15l-.12.7c.11.17,0,.31,0,.45A12.53,12.53,0,0,0,17.94,10.15Z" transform="translate(-2.73 -1.04)" fill="#3d2b1d" fill-rule="evenodd"/>
    <path d="M16.33,12.43s0-.09,0-.14a.41.41,0,0,1-.1-.17,3.55,3.55,0,0,0,0-.7,1.44,1.44,0,0,0,0-.41c0-.28.2-.52.15-.81s.17-.6.23-.9.17-.74.26-1.12a.88.88,0,0,1,.34-.65L17.46,7A9.13,9.13,0,0,1,17,9.33a12.77,12.77,0,0,0-.44,3.33,1,1,0,0,1-.11.32C16.47,12.79,16.5,12.58,16.33,12.43Z" transform="translate(-2.73 -1.04)" fill="#9f8e7f" fill-rule="evenodd"/>
    <path d="M17.36,9c-.05.43.24.93-.26,1.27A2.8,2.8,0,0,1,17.36,9Z" transform="translate(-2.73 -1.04)" fill="#4e382b" fill-rule="evenodd"/>
    <path d="M17.09,10.44l0,.15-.26,1.13C16.94,11.28,16.65,10.8,17.09,10.44Z" transform="translate(-2.73 -1.04)" fill="#574433" fill-rule="evenodd"/>
    <path d="M17,14.2c0,.33,0,.65.05,1A.9.9,0,0,1,17,14.2Z" transform="translate(-2.73 -1.04)" fill="#5d4a3c" fill-rule="evenodd"/>
    <path d="M16.89,13.23c0,.28,0,.56,0,.85A.73.73,0,0,1,16.89,13.23Z" transform="translate(-2.73 -1.04)" fill="#5d4a3c" fill-rule="evenodd"/>
    <path d="M18.52,16.84l-.26-.17-.17-.26a2,2,0,0,1-.36-.87c0-.33-.23-.62-.16-1,0-.18-.11-.37,0-.55,0,0,.1,0,.13,0A5.09,5.09,0,0,1,18.52,16.84Z" transform="translate(-2.73 -1.04)" fill="#8e7e6e" fill-rule="evenodd"/>
    <path d="M17.8,15.59l.29.83L17.67,16c0-.14,0-.28,0-.42S17.76,15.5,17.8,15.59Z" transform="translate(-2.73 -1.04)" fill="#574536" fill-rule="evenodd"/>
    <path d="M18.52,16.84a27.69,27.69,0,0,1-.89-2.78,1.91,1.91,0,0,1-.29-1.31c.22-.41.45-.32.64,0a4.52,4.52,0,0,1,.34,1.1,5.86,5.86,0,0,0,.56,1.31l0,.1a3.82,3.82,0,0,0,1.85,2.33l.14.14c-.15.42-.5.28-.77.25a5,5,0,0,0-1-.07A3.47,3.47,0,0,1,18.52,16.84Z" transform="translate(-2.73 -1.04)" fill="#a39483" fill-rule="evenodd"/>
    <path d="M16.81,9.35a1.43,1.43,0,0,1-.26.84.69.69,0,0,1-.91.47,1.89,1.89,0,0,1-.73-.62c-.3-.5-.62-.88-1.3-.76-.28,0-.5-.22-.61-.5-.26-.7-.54-1.38-1.42-1.48A1,1,0,0,1,11.78,6c.69-.31,1.46-.07,2.16-.33.51,0,.75-.6,1.28-.6,0,.47.1.83.79.81.3,0,1-.06,1,.69,0,.09.2.18.3.27-1,.07.16.51-.12.7,0,.23-.08.46-.13.7C16.72,8.54,17,9,16.81,9.35Z" transform="translate(-2.73 -1.04)" fill="#ab9f91" fill-rule="evenodd"/>
    <path d="M13.94,5.66c0,.34-.19.43-.49.43l-1.59,0c-.28-.12-.54.06-.81.06s-.51,0-.61-.34a.56.56,0,0,1,.21-.67A2.17,2.17,0,0,1,12,4.59c-.3-.17-.53-.33-.39-.63a.2.2,0,0,1,.34-.07l1,0c.89,0,.92,0,.95.89,0,.16,0,.32,0,.48S13.94,5.52,13.94,5.66Z" transform="translate(-2.73 -1.04)" fill="#a99f93" fill-rule="evenodd"/>
    <path d="M17.84,5.7l-.27.42c-.25,0-.19-.2-.13-.34S17.7,5.73,17.84,5.7Z" transform="translate(-2.73 -1.04)" fill="#ab9f91" fill-rule="evenodd"/>
    <path d="M11.95,3.9c-.47.27-.21.35.11.41s.6-.08.55.32-.41.28-.63.23c-.58-.14-.8.47-1.27.57-.15,0-.13.29-.05.43s.28.12.43.06c.32-.13.62-.24.78.22a1.88,1.88,0,0,0-.11,1.12.54.54,0,0,1,.16.61.65.65,0,0,1-.91.23A1.3,1.3,0,0,1,10.07,7c0-.44-.17-.47-.55-.54A6.29,6.29,0,0,1,6.89,5.17a.45.45,0,0,1-.11-.71,1.35,1.35,0,0,1,.72-.59c.75-.2,1.15.14,1,.92.36,0,.71-.21,1.08,0a.24.24,0,0,0,.33-.18c.05-.21-.1-.28-.27-.32s-.23,0-.34-.05a.28.28,0,0,1-.23-.3c0-.17.17-.21.31-.21a5.19,5.19,0,0,1,1.22.08.89.89,0,0,0,1-.28h.42C12,3.6,11.83,3.71,11.95,3.9Z" transform="translate(-2.73 -1.04)" fill="#a79c90" fill-rule="evenodd"/>
    <path d="M7.49,3.87c-.29.23-.3.69-.82.84.38.24.58.54,1,.55s.66-.06.41.47c-.08.18.15.24.26.14.36-.29.6-.08.82.18a.55.55,0,0,0,.74.11c.3-.14.58-.06.56.34-.05,1.08.27,1.44,1.34,1.45a.56.56,0,0,1,.27.53,7,7,0,0,0,.42,1.7,1.46,1.46,0,0,1-.66,1.94c.38.21,1,.09.91.64s-.62.26-1,.3c-.09,0,0,0-.07,0A.85.85,0,0,1,11,13a.71.71,0,0,0-.86-.36.63.63,0,0,1-.64-.13,2.05,2.05,0,0,1-.12-1.77c.18-.31.56-.39.8-.68-.49,0-.93-.29-1.42-.08-.21.09-.37-.09-.49-.28a2.67,2.67,0,0,0-1-1C7.1,8.55,7,8.41,7,8.17s.26-.48.45-.47c.75,0,1.51.11,2.19.12,0,0-.07-.05-.14,0A3.92,3.92,0,0,1,7.77,7.5c-.08,0,0-.05-.06,0-.67.76-1.39,0-2.08.09a.59.59,0,0,1-.56-.67.53.53,0,0,1,.42-.56C5.08,6.27,4.87,6,5,5.46a2.89,2.89,0,0,1,.53-1.13c.27.06.35.58.76.3.13-.09.43-.14.12-.36C6.3,4.18,6.2,4.14,6.28,4a.32.32,0,0,1,.39-.19Z" transform="translate(-2.73 -1.04)" fill="#a49a8e" fill-rule="evenodd"/>
    <path d="M4.2,6.58c-.07-.67.35-1.2.53-1.81h.18c-.13.67-.53,1.26-.6,2Z" transform="translate(-2.73 -1.04)" fill="#4f3e34" fill-rule="evenodd"/>
    <path d="M5.29,4.07a1,1,0,0,1-.3.55C5,4.38,5,4.16,5.29,4.07Z" transform="translate(-2.73 -1.04)" fill="#503f36" fill-rule="evenodd"/>
    <path d="M5,5.46c.2.65.57,1,1.38.69-.27.59-1.17,0-1.15.81a.41.41,0,0,0,.37.43c.73.65.55,1-.66,1.47a1.94,1.94,0,0,1,1.21-.14l.19,0c.26.1.43-.15.65-.16s.53-.09.68.19,0,.47-.24.64c-.68.59-.67.59-.22,1.32-.17.65-.36.69-1,.23A.85.85,0,0,0,6,10.78c-.14-.07-.25-.19-.41-.22-.1.14,0,.3,0,.43a1.38,1.38,0,0,1-.5.42c-.75,0-1-.51-1.23-1H3.71l0-.41a1,1,0,0,0,.1-.25c0-.28,0-.56,0-.84A.83.83,0,0,1,4,8.68c.17-.41,0-.88.25-1.27h0c.38-.32.28-.82.46-1.21S4.8,5.65,5,5.46Z" transform="translate(-2.73 -1.04)" fill="#9f978a" fill-rule="evenodd"/>
    <path d="M17.94,10.15a8.17,8.17,0,0,1,.5-3.34h.15a9.14,9.14,0,0,0-.17,5,.85.85,0,0,1,0,.71A15.81,15.81,0,0,1,17.94,10.15Z" transform="translate(-2.73 -1.04)" fill="#5b4336" fill-rule="evenodd"/>
    <path d="M25.06,4.83a3,3,0,0,1-1.38.31,10.12,10.12,0,0,0,.91-.61C24.8,4.34,25.22,4.24,25.06,4.83Z" transform="translate(-2.73 -1.04)" fill="#b0a392" fill-rule="evenodd"/>
    <path d="M25,7.88a.47.47,0,0,1,.11.4c.11.22,0,.45.08.68,0,.52,0,1.05,0,1.58a.66.66,0,0,1,0,.44.43.43,0,0,1-.09.41,2,2,0,0,0-.45.56l-.66.57a.16.16,0,0,1-.11,0h-.06c-.14-.15-.1-.33-.11-.51a.46.46,0,0,1,.06-.17,2.4,2.4,0,0,0,.46-.57,1.32,1.32,0,0,0,.33-.59,4.35,4.35,0,0,0-.32-2.91,1.61,1.61,0,0,1-.31-.9.35.35,0,0,1,.19-.28c.26.11.37.38.55.57S24.85,7.7,25,7.88Z" transform="translate(-2.73 -1.04)" fill="#664c39" fill-rule="evenodd"/>
    <path d="M25.16,9c0-.24,0-.48,0-.73A3.62,3.62,0,0,1,25.22,11l0-.45A7.6,7.6,0,0,1,25.16,9Z" transform="translate(-2.73 -1.04)" fill="#6d5445" fill-rule="evenodd"/>
    <path d="M24.15,6.64c0,.1,0,.21,0,.31a.39.39,0,0,1-.28.12.83.83,0,0,1-.39-.16c-.16-.18-.47-.26-.37-.6s.31-.16.5-.06l.11,0C23.93,6.27,24,6.46,24.15,6.64Z" transform="translate(-2.73 -1.04)" fill="#463022" fill-rule="evenodd"/>
    <path d="M21.31,11.48l.16,0a.27.27,0,0,1,.17-.08c.22,0,.31.2.41.36a1.58,1.58,0,0,0,.27.46.33.33,0,0,1,0,.35l-.44-.11-.57-.69A.19.19,0,0,1,21.31,11.48Z" transform="translate(-2.73 -1.04)" fill="#958572" fill-rule="evenodd"/>
    <path d="M22.34,12.55l-.16-.26a.33.33,0,0,1,.14-.11,1,1,0,0,1,.45.06,1.08,1.08,0,0,0,.42.11c.22,0,.48,0,.65.18H24C23.47,13.06,22.9,12.62,22.34,12.55Z" transform="translate(-2.73 -1.04)" fill="#64503b" fill-rule="evenodd"/>
    <path d="M25,7.88c-.26-.15-.27-.43-.35-.68C25,7.34,25,7.63,25,7.88Z" transform="translate(-2.73 -1.04)" fill="#6d5445" fill-rule="evenodd"/>
    <path d="M24.68,12a.6.6,0,0,1,.45-.56A1.07,1.07,0,0,1,24.68,12Z" transform="translate(-2.73 -1.04)" fill="#6b5243" fill-rule="evenodd"/>
    <path d="M20.18,10.25a1.58,1.58,0,0,1,.24-1.68h0a2.31,2.31,0,0,1-.16,1.6Z" transform="translate(-2.73 -1.04)" fill="#a39484" fill-rule="evenodd"/>
    <path d="M21.31,11.48l0,.27c-.18,0-.21.36-.42.25a.93.93,0,0,1-.44-.92l.08,0c.29,0,.35.4.63.44Z" transform="translate(-2.73 -1.04)" fill="#a39484" fill-rule="evenodd"/>
    <path d="M20.47,11.07a1,1,0,0,1-.3-.83h0c.46.15.36.5.3.83Z" transform="translate(-2.73 -1.04)" fill="#a39484" fill-rule="evenodd"/>
    <path d="M22.74,12.41l-.42-.14a1.07,1.07,0,0,1-.43-.4l-.29-.42a5.39,5.39,0,0,1-.65-3.61,2.22,2.22,0,0,1,1.51-1.69,1.72,1.72,0,0,1,1.09,0l0,.11a.65.65,0,0,0-.45.17c-.15.25-.48.24-.65.46a1.45,1.45,0,0,1-.21.18c-.31.19-.39.55-.58.82a1.23,1.23,0,0,0-.11.74c0,.2,0,.4,0,.6a2,2,0,0,0,.13.88,6.73,6.73,0,0,1,.29.73,1.88,1.88,0,0,0,.51.88c.12.15.3.24.4.41a.49.49,0,0,1,0,.19C22.92,12.4,22.86,12.47,22.74,12.41Z" transform="translate(-2.73 -1.04)" fill="#513f2f" fill-rule="evenodd"/>
    <path d="M20.48,11.07a1.47,1.47,0,0,0-.3-.83c0-.57.39-1.08.24-1.67h.13c0,.41,0,.82,0,1.23a2.34,2.34,0,0,0,.66,1.69C20.7,11.77,20.77,11.11,20.48,11.07Z" transform="translate(-2.73 -1.04)" fill="#958572" fill-rule="evenodd"/>
    <path d="M20.95,7.84a8.56,8.56,0,0,0,.65,3.61h-.13a6.89,6.89,0,0,1-.69-2.35A2.61,2.61,0,0,1,20.95,7.84Z" transform="translate(-2.73 -1.04)" fill="#5a4633" fill-rule="evenodd"/>
    <path d="M23.55,6.13l-1.09,0A1.06,1.06,0,0,1,23.55,6.13Z" transform="translate(-2.73 -1.04)" fill="#624b3d" fill-rule="evenodd"/>
    <path d="M18.42,12.52c0-.24,0-.47,0-.71.23.39.12.9.44,1.27,0,.13,0,.27,0,.4a.09.09,0,0,1-.1,0s-.05,0-.05,0Z" transform="translate(-2.73 -1.04)" fill="#695040" fill-rule="evenodd"/>
    <path d="M18.73,13.48h.15l.72,1.66a.24.24,0,0,1,0,.29c-.25.07-.3-.08-.31-.28Z" transform="translate(-2.73 -1.04)" fill="#554032" fill-rule="evenodd"/>
    <path d="M19.6,15.41c0-.09,0-.19,0-.28a1.87,1.87,0,0,1,.61,1.08L20,16.1C19.81,15.92,19.46,15.82,19.6,15.41Z" transform="translate(-2.73 -1.04)" fill="#665545" fill-rule="evenodd"/>
    <path d="M14.07,28.36a7.41,7.41,0,0,1-1.8.46c-.56.07-1.14.27-1.67-.1,0-.09,0-.19,0-.28,0-.28-.19-.55,0-.83h0c.06-.08.08-.17.13-.25.28-.21.43-.43,0-.63-.06-.07-.08-.17-.15-.24.11-.51-.26-.91-.31-1.38.19-.21.4-.39,0-.62-.27-.14-.29-.51-.43-.76-.56-.5-.7-1.3-1.29-1.78-.43-.41,0-.5.25-.63s.85-.2.67-.81c0-.32-.25-.3-.46-.36s-.34-.23-.27-.48A.5.5,0,0,1,9,19.44a2.93,2.93,0,0,1,1.39.45c.17,1,.17,1,1.19.78a.61.61,0,0,1,.46,0,1.89,1.89,0,0,0,.76,1.09,1,1,0,0,1-.12,1.47c-.31.19-.27.52-.47.73-.05,0-.14.05-.17.1s.06.07.09.1a7.38,7.38,0,0,0,1.22.83c.18.37,0,.56-.33.69-.17.07-.38.05-.5.21s-.36.41,0,.58c.15.06.25.21.39.28.3.15.64.28.37.71a.63.63,0,0,1-1,.22c-.08,0-.13-.13-.24-.13a1.2,1.2,0,0,0-.05.46,2.51,2.51,0,0,0,1.14-.21c.41-.24.69,0,.9.38A.21.21,0,0,1,14.07,28.36Z" transform="translate(-2.73 -1.04)" fill="#a1998c" fill-rule="evenodd"/>
    <path d="M13.12,29.22a.51.51,0,0,1-.42-.12,1.76,1.76,0,0,1,.8-.18c.2-.2.49-.16.72-.28l.42-.14c.41,0,.46.24.45.55a.59.59,0,0,1-.16.31,1.69,1.69,0,0,0-.31,1.36c0,.14,0,.27,0,.41s0,.52-.24.57-.27-.26-.34-.44L14,31.06a2.59,2.59,0,0,1,0-.64c0-.24.16-.49,0-.73S13.31,29.5,13.12,29.22Z" transform="translate(-2.73 -1.04)" fill="#45382d" fill-rule="evenodd"/>
    <path d="M14.82,29.19l.12-.14c.17-.25-.08-.46,0-.7l.16,0c.5.08.3.48.35.76a2.83,2.83,0,0,1-.58,1.2c0,.47,0,.93,0,1.4a.24.24,0,0,1-.29-.22C14.5,30.69,14.21,29.89,14.82,29.19Z" transform="translate(-2.73 -1.04)" fill="#82786c" fill-rule="evenodd"/>
    <path d="M9.56,20.39c.29.63.19.79-.54,1.07-.22.08-.71-.06-.53.48H8.32a1,1,0,0,1-.41-.7h0a.55.55,0,0,1,.22-.16L8.47,21a.81.81,0,0,0,.47-.12l.13-.08c.14-.11.1-.3.19-.43l0,0A.18.18,0,0,1,9.56,20.39Z" transform="translate(-2.73 -1.04)" fill="#8f8478" fill-rule="evenodd"/>
    <path d="M9.78,23.73c.24.29.41.66.86.72.18,0,.4,0,.39.29s-.27.24-.46.28l-.33.09A6.76,6.76,0,0,1,9.78,23.73Z" transform="translate(-2.73 -1.04)" fill="#a09488" fill-rule="evenodd"/>
    <path d="M15.2,29.17c0-.28.08-.59-.15-.84s-.65.06-1,0v-.14c.48-.51.7-.53,1.34-.13a.59.59,0,0,1,.11.24C15.48,28.63,15.7,29,15.2,29.17Z" transform="translate(-2.73 -1.04)" fill="#999083" fill-rule="evenodd"/>
    <path d="M10.6,28.72a6.19,6.19,0,0,0,1.67.1c-.5.29-1.06.1-1.58.21C10.52,29.07,10.56,28.85,10.6,28.72Z" transform="translate(-2.73 -1.04)" fill="#999083" fill-rule="evenodd"/>
    <path d="M10.71,27.47l-.14.14,0-1.12.14.14C11.14,26.9,10.93,27.18,10.71,27.47Z" transform="translate(-2.73 -1.04)" fill="#999083" fill-rule="evenodd"/>
    <path d="M10.57,27.61c-.07.28.21.55,0,.83A.67.67,0,0,1,10.57,27.61Z" transform="translate(-2.73 -1.04)" fill="#999083" fill-rule="evenodd"/>
    <path d="M14.89,28.35a.54.54,0,0,1,0,.7c0-.23-.05-.45-.3-.56Z" transform="translate(-2.73 -1.04)" fill="#58483c" fill-rule="evenodd"/>
    <path d="M14.22,28.63a1.15,1.15,0,0,1-.72.28C13.64,28.58,13.95,28.65,14.22,28.63Z" transform="translate(-2.73 -1.04)" fill="#58483c" fill-rule="evenodd"/>
    <path d="M10.07,29.85c-.39.27-.83.11-1.25.17C9.21,29.75,9.65,29.91,10.07,29.85Z" transform="translate(-2.73 -1.04)" fill="#42342b" fill-rule="evenodd"/>
    <path d="M10.9,29.69c-.24.23-.55.13-.83.16C10.31,29.62,10.62,29.72,10.9,29.69Z" transform="translate(-2.73 -1.04)" fill="#4d3d33" fill-rule="evenodd"/>
    <path d="M12.3,29.81H12l0-.13,1.09-.31c.8-.14,1.07.06,1,.81a2.77,2.77,0,0,0,.11,1.22c.13.48.63.82.48,1.39a.5.5,0,0,1-.16.3c-.38.07-.48-.2-.54-.46a3.56,3.56,0,0,0-.3-.83,1.67,1.67,0,0,1-.18-.63c0-.21,0-.41,0-.62s.1-.39-.1-.54S12.59,30.28,12.3,29.81Z" transform="translate(-2.73 -1.04)" fill="#8a7a6e" fill-rule="evenodd"/>
    <path d="M14.14,31.44A2,2,0,0,1,14,30.25c.06-.8-.06-.91-.86-.89v-.14c.37,0,.84-.2,1,.39a.89.89,0,0,1,0,.7c0,.23,0,.46,0,.69A.37.37,0,0,1,14.14,31.44Z" transform="translate(-2.73 -1.04)" fill="#544639" fill-rule="evenodd"/>
    <path d="M4.72,16l-.15-.27a.35.35,0,0,0,.07-.13,1.38,1.38,0,0,1-.08-.32c0-.48.17-.71.67-.57.73.29,1.51.26,2.3.59-.08-.49-.42-.8-.08-1.13.54-.31.91.09,1.32.3a1.4,1.4,0,0,0,.87.36.7.7,0,0,1,.61.59.45.45,0,0,1-.44.58.62.62,0,0,1-.2,0c-.27-.15-.46,0-.66.15A4.37,4.37,0,0,1,6.9,17.55c-.33.07-.4.26-.28.55s.11.77-.43.84l-.3-.69c-.15-.15-.14-.4-.29-.55L5.16,17C4.76,16.81,4.95,16.33,4.72,16Z" transform="translate(-2.73 -1.04)" fill="#9f968b" fill-rule="evenodd"/>
    <path d="M6.19,18.94a.61.61,0,0,0,.11-.84c.13-.57.59-.57,1-.54a.77.77,0,0,0,.88-.45c.24-.49.76-.56,1.52-.33.18,0,.36.05.54.08a1.13,1.13,0,0,1,.67.85,1,1,0,0,1-.25.2,2.28,2.28,0,0,0,.38-.24.89.89,0,0,1,1,.11.55.55,0,0,1,0,.6c-.62.54-1.36.25-2.05.27-.49-.18-.74.28-1.09.44s-.5.33-.79.29c.24.1.6-.23.8.19l-.27.15c-.16.18,0,.52-.32.63a1,1,0,0,0-.62.19c-.18.15-.32.1-.44-.09Z" transform="translate(-2.73 -1.04)" fill="#9f978a" fill-rule="evenodd"/>
    <path d="M7.33,20.44c.38,0,.72-.26,1.11-.17a.19.19,0,0,1,.28,0c-.28.22-.66.17-.94.52S7.41,20.68,7.33,20.44Z" transform="translate(-2.73 -1.04)" fill="#998d80" fill-rule="evenodd"/>
    <path d="M4.72,16c.14.09.47,0,.32.37a.7.7,0,0,0,.11.59H5a1,1,0,0,1-.34-.78Z" transform="translate(-2.73 -1.04)" fill="#91887b" fill-rule="evenodd"/>
    <path d="M9.27,20.41c.15.26.35.52-.11.68-.2-.25-.52-.14-.76-.27a.3.3,0,0,1-.11-.15A2.55,2.55,0,0,1,9.27,20.41Z" transform="translate(-2.73 -1.04)" fill="#5e4e44" fill-rule="evenodd"/>
    <path d="M8.72,20.28H8.44c-.05-.25-.14-.53.27-.56.11.13.27.22.29.41s.09.09,0,.14Z" transform="translate(-2.73 -1.04)" fill="#a39b8e" fill-rule="evenodd"/>
    <path d="M8.17,21.28H7.91c.05-.25.1-.5.39-.6l0,0A.4.4,0,0,1,8.17,21.28Z" transform="translate(-2.73 -1.04)" fill="#5e4e44" fill-rule="evenodd"/>
    <path d="M5.59,17.7a.53.53,0,0,1,.29.55A.54.54,0,0,1,5.59,17.7Z" transform="translate(-2.73 -1.04)" fill="#988c81" fill-rule="evenodd"/>
    <path d="M9,20.26s0-.09,0-.14a.53.53,0,0,1,.56.27H9.29Z" transform="translate(-2.73 -1.04)" fill="#998d80" fill-rule="evenodd"/>
    <path d="M3.77,10.37c.28.19.6.33.75.68a.46.46,0,0,0,.5.26c.12,0,.18,0,.24.11.11.52-.35.66-.63.88s-.34.29-.18.55c.53.71.45,1-.34,1.14a1.61,1.61,0,0,1-.3-1Q3.79,11.65,3.77,10.37Z" transform="translate(-2.73 -1.04)" fill="#9b9488" fill-rule="evenodd"/>
    <path d="M4.11,14s0-.11,0-.13c.66-.34.5-.61-.07-.85.77-.51,1.17-.3,1.33.7a1.16,1.16,0,0,0,.09.58.43.43,0,0,1-.26.64c-.54-.15-.57.18-.54.57a.19.19,0,0,1,0,.28H4.58A10.3,10.3,0,0,1,4.11,14Z" transform="translate(-2.73 -1.04)" fill="#9c9588" fill-rule="evenodd"/>
    <path d="M3.66,12.88a5,5,0,0,1-.06-2.51Q3.63,11.63,3.66,12.88Z" transform="translate(-2.73 -1.04)" fill="#807267" fill-rule="evenodd"/>
    <path d="M9.39,30.42H9.8c.21,0-.09.53.33.31s.58-.53,1-.28c.38.49.07.71-.35.86s-.64.11-.83.47c.46.12,1.07-.17,1.34.43.13.29-.11.46-.33.59.33-.07.68-.15.65.4-.28.51-.53,1.06-1.27,1-.21,0-.38-.26-.66-.15.16.18.41.19.55.35a.55.55,0,0,1,.11.28.76.76,0,0,1-.31.62l-1.11,0a1.11,1.11,0,0,0-.84,0H8a.13.13,0,0,1-.2,0,4.34,4.34,0,0,1-.12-1.53c.11-.33-.15-.55-.26-.82s.09-.69-.25-1a.5.5,0,0,1,0-.86C7.88,30.82,8.67,30.72,9.39,30.42Z" transform="translate(-2.73 -1.04)" fill="#9e958c" fill-rule="evenodd"/>
    <path d="M6.72,35.36c-.41-.34-1,.16-1.4-.38,0-.23.38-.34.2-.65-.07-.13.08-.26.22-.29a1.12,1.12,0,0,1,1.09.27c.28.29.75.56.52,1.11-.17,0-.34.06-.5,0Z" transform="translate(-2.73 -1.04)" fill="#96908a" fill-rule="evenodd"/>
    <path d="M10.06,35.28c-.15-.23.14-.36.13-.56a1.58,1.58,0,0,1,2.09-.48.32.32,0,0,1,.18.34c0,.19-.18.25-.35.28s-.61,0-.84.22-.37,0-.52.17Z" transform="translate(-2.73 -1.04)" fill="#a0978e" fill-rule="evenodd"/>
    <path d="M13.54,35.06l-1.12,0a.18.18,0,0,1,0-.22c.5-.3,1-.56,1.53-.05,0,.31-.29.17-.43.26Z" transform="translate(-2.73 -1.04)" fill="#96908a" fill-rule="evenodd"/>
    <path d="M12.42,34.95v.14l-1,0c-.09.06-.15,0-.18-.07A.93.93,0,0,1,12.42,34.95Z" transform="translate(-2.73 -1.04)" fill="#a0978e" fill-rule="evenodd"/>
    <path d="M6.85,35.36l.57,0a.28.28,0,0,1,.42,0H8A1.21,1.21,0,0,1,6.85,35.36Z" transform="translate(-2.73 -1.04)" fill="#948a82" fill-rule="evenodd"/>
    <path d="M8.11,35.33a.67.67,0,0,1,.84,0Z" transform="translate(-2.73 -1.04)" fill="#96908a" fill-rule="evenodd"/>
    <path d="M10.9,35.53a.64.64,0,0,1-.83,0Z" transform="translate(-2.73 -1.04)" fill="#504138" fill-rule="evenodd"/>
    <path d="M11.31,35.11h.14c-.2.19-.46.14-.7.15a.52.52,0,0,1,.41-.15s.06-.07.09-.05S11.31,35.09,11.31,35.11Z" transform="translate(-2.73 -1.04)" fill="#96908a" fill-rule="evenodd"/>
    <path d="M13.54,35.06a.52.52,0,0,1,.41-.15c.21-.35.59-.22.88-.32.12-.34-.22-.51-.3-.77s-.31-.46-.08-.74c0-.09,0-.19,0-.29.33-.06.42.2.53.42a4.83,4.83,0,0,0,.66,1,.55.55,0,0,1,0,.62l0,.12A4,4,0,0,1,13.54,35.06Z" transform="translate(-2.73 -1.04)" fill="#7f7164" fill-rule="evenodd"/>
    <path d="M15.47,34.32c-.52-.38-.58-1.07-1-1.52l-.32-1.36c0-.15,0-.29,0-.44l.29.64c0-.61,0-1.06,0-1.5s0-.75.42-1a2.64,2.64,0,0,0,0,2.5l.31,1.09c.3.65.55,1.33,1.3,1.64h0c.08.05.08.1,0,.15l-.41.16H15.9C15.75,34.59,15.66,34.4,15.47,34.32Z" transform="translate(-2.73 -1.04)" fill="#534035" fill-rule="evenodd"/>
    <path d="M15.47,34.32a.42.42,0,0,1,.43.41l-.27.15Z" transform="translate(-2.73 -1.04)" fill="#615349" fill-rule="evenodd"/>
    <path d="M11.54,33.16c-.12-.35-.32-.29-.5-.07s-.41.13-.6,0-.24-.16-.2-.33.18-.13.29-.14l.35,0c.14,0,.28-.09.28-.25s-.17-.26-.33-.27a2.14,2.14,0,0,0-.89.09A.39.39,0,0,1,9.44,32c-.17-.25.11-.29.22-.41a1.37,1.37,0,0,1,1.08-.53c.36,0,.5-.2.32-.55a.44.44,0,0,1,.49-.36.94.94,0,0,0,.61-.23l.14-.13c.48.12.91-.23,1.38-.18.14.18.06.39.09.58-.17.31-.37.61,0,.94l.15.55c.27.64-.12.91-.61,1.14C12.62,32.6,12.11,33,11.54,33.16Z" transform="translate(-2.73 -1.04)" fill="#a1988e" fill-rule="evenodd"/>
    <path d="M7.83,35.33H7.42c-.5-.21-.47-1-1.11-1a3.29,3.29,0,0,0-.65,0c0,.37.51.28.54.62-.27.22-.63-.26-.87.11l-.14-.14c-.16-.09.07-.33-.15-.41l-.14-.14c-.15-.15-.08-.43-.29-.55l-.15-.55a3.84,3.84,0,0,0,.26-.32c.38-.63.53-.62.93.05a2,2,0,0,0,1.3.29.77.77,0,0,1,1,.45A4.52,4.52,0,0,1,7.83,35.33Z" transform="translate(-2.73 -1.04)" fill="#9a958f" fill-rule="evenodd"/>
    <path d="M5.27,33.17a2.63,2.63,0,0,0,0-.48c0-.05-.14-.1-.22-.11s-.12.11-.11.14c.23.59-.22.43-.5.47a1.71,1.71,0,0,1-.14-1.79c.13-.27-.19-.34-.14-.54.24,0,.47-.09.63.15s.27.28.46.14-.13-.28-.09-.47l1.17,0c.12.49-.62.67-.35,1.22a2.1,2.1,0,0,1,.7-.23.48.48,0,0,1,.2,0c.54.39.19.72-.07,1.05a1.24,1.24,0,0,1-.52.36C6,33.12,5.63,33.32,5.27,33.17Z" transform="translate(-2.73 -1.04)" fill="#988f86" fill-rule="evenodd"/>
    <path d="M6.65,32.58c.05-.28.69-.47.12-.84-.33.22-.82.23-.9.83-.44-.88-.33-1.28.45-1.94h.14c.58-.14.79.12.71.68a.39.39,0,0,0,.19.62c.93.26.37.66.13,1a.48.48,0,0,1-.6.15C6.63,33,6.77,32.75,6.65,32.58Z" transform="translate(-2.73 -1.04)" fill="#9c938a" fill-rule="evenodd"/>
    <path d="M7.18,31.31c-.29-.17-.2-.75-.71-.68a26.11,26.11,0,0,1,2.92-.21A3.71,3.71,0,0,1,7.18,31.31Z" transform="translate(-2.73 -1.04)" fill="#988f86" fill-rule="evenodd"/>
    <path d="M12.16,29.94c-.25.41-.8.26-1.1.58-.43-.15-.47.44-.82.44-.15-.18-.2-.37,0-.56C10.81,30,11.54,30.18,12.16,29.94Z" transform="translate(-2.73 -1.04)" fill="#9a9184" fill-rule="evenodd"/>
    <path d="M10.22,30.4c0,.19.12.37,0,.56-.34,0-.57.58-.8.35s.37-.47.36-.83a.36.36,0,0,1,0-.07Z" transform="translate(-2.73 -1.04)" fill="#988f86" fill-rule="evenodd"/>
    <path d="M4.59,33.74c.15,0,.38-.1.43,0,.16.22-.18.37-.14.59A.54.54,0,0,1,4.59,33.74Z" transform="translate(-2.73 -1.04)" fill="#968d87" fill-rule="evenodd"/>
    <path d="M5,34.43c.54,0,0,.31.15.41A.49.49,0,0,1,5,34.43Z" transform="translate(-2.73 -1.04)" fill="#968d87" fill-rule="evenodd"/>
    <path d="M3.88,9.81l-.13.14A4.81,4.81,0,0,1,4.1,7.43,2.08,2.08,0,0,1,4,8.83H4C3.82,9.14,4,9.5,3.88,9.81Z" transform="translate(-2.73 -1.04)" fill="#807267" fill-rule="evenodd"/>
    <path d="M4,8.83,4.1,7.43l.12,0C4.17,7.89,4.48,8.42,4,8.83Z" transform="translate(-2.73 -1.04)" fill="#8d8377" fill-rule="evenodd"/>
    <path d="M15.2,29.17c.22-.25.1-.56.12-.84a.23.23,0,0,1,.27.07,9.41,9.41,0,0,0,.65,1.13,1.39,1.39,0,0,1,.14,1.5c-.25.54-.19.61.43.55a2.24,2.24,0,0,1,.48,0c.24,0,.49.11.5.39s-.24.42-.5.46a1,1,0,0,1-.42,0c.41.27,1.06-.22,1.47.34h.14c0,.48-.51.56-.76.86s-.35.42-.54.63c-.21,0-.42.07-.62,0-1.1-.79-1.32-2-1.6-3.21-.05-.22,0-.46-.16-.65A1.12,1.12,0,0,1,15.2,29.17Z" transform="translate(-2.73 -1.04)" fill="#a49a8e" fill-rule="evenodd"/>
    <path d="M17.28,34.13c-.14-.16-.49-.16-.39-.48s.31-.06.47-.1.22-.06.23-.11c.08-.52.57-.52.9-.73.55,0,.9-.65,1.51-.46a8,8,0,0,1-1,1.29A1.31,1.31,0,0,1,18,34a.62.62,0,0,0-.41.15h0A.19.19,0,0,1,17.28,34.13Z" transform="translate(-2.73 -1.04)" fill="#a69c90" fill-rule="evenodd"/>
    <path d="M16.45,34.42c-.85-.21-1.12-.89-1.3-1.64A6,6,0,0,0,16.45,34.42Z" transform="translate(-2.73 -1.04)" fill="#615349" fill-rule="evenodd"/>
    <path d="M16.45,34.57s0-.1,0-.15h1.11l-.14.14a.87.87,0,0,1-.7,0Z" transform="translate(-2.73 -1.04)" fill="#615349" fill-rule="evenodd"/>
    <path d="M17.28,34.13h.28a.86.86,0,0,1-1,0Z" transform="translate(-2.73 -1.04)" fill="#9f8f84" fill-rule="evenodd"/>
    <path d="M17.55,34.12c.13-.07.12-.54.41-.15A.5.5,0,0,1,17.55,34.12Z" transform="translate(-2.73 -1.04)" fill="#a49a8e" fill-rule="evenodd"/>
    <path d="M16.73,34.57h.7A.52.52,0,0,1,16.73,34.57Z" transform="translate(-2.73 -1.04)" fill="#4f3d34" fill-rule="evenodd"/>
    <path d="M19.6,15.41l.43.69h-.27c-.16.09-.2,0-.27-.13l-.17-.26c0-.19-.18-.35-.14-.56h.15Z" transform="translate(-2.73 -1.04)" fill="#543f31" fill-rule="evenodd"/>
    <path d="M19.49,16l.27.13c.1.19.3.33.28.57A1.13,1.13,0,0,1,19.49,16Z" transform="translate(-2.73 -1.04)" fill="#554032" fill-rule="evenodd"/>
    <path d="M19.18,15.15a.86.86,0,0,1,.14.56c-.14-.14-.21-.35-.41-.42h0a.18.18,0,0,1,0-.28Z" transform="translate(-2.73 -1.04)" fill="#695040" fill-rule="evenodd"/>
    <path d="M11.74,12.82l.86,0c-.12-.46-.41-.26-.63-.27s-.55,0-.61-.3.17-.4.39-.51,1.08-.16.2-.7c-.22-.13-.09-.39.18-.43s.4-.21.19-.35c-.75-.49-.47-1.23-.54-1.89,0-.14,0-.28,0-.42l0-.7c1.07,0,1.17.06,1.46,1.3.13.55.39.68.81.37s.58.12.68.3c.26.46.61.85.89,1.28-.16.31-.51.3-.77.4-.57.2-.87.54-.72,1.17l-.13,0c.07.44-.47.69-.34,1.15a.31.31,0,0,1,0,.25c-.4.45,0,.58.29.74a3.12,3.12,0,0,1,.43.22c.38.28.34.47-.19.5l0,0c0,.09,0,0,0,0s0,.11,0,0l0,0a.54.54,0,0,0,.32.34c.19.08.37.23.16.41s-.35.42-.64.2-.29-.3-.46-.41-.2-.61-.53-.16a.42.42,0,0,0,.19.68c.71,0,1.1.76,1.81.65.21,0,.47,0,.51.27s-.26.24-.44.28-.25,0-.28.15a.17.17,0,0,0,.14.21c.46,0,.53.47.75.74l-.55.43-.14-.14c-.16-.09-.24-.58-.5-.07s-.47.26-.67,0a1.45,1.45,0,0,1-.19-1.12c.08-.42,0-.64-.48-.74a2.74,2.74,0,0,1-1.25-.68.57.57,0,0,1-.09-.17,1.38,1.38,0,0,1,.07-1.14c.14-.24,0-.43,0-.65C11.64,13.61,11.45,13.22,11.74,12.82Z" transform="translate(-2.73 -1.04)" fill="#a89c8e" fill-rule="evenodd"/>
    <path d="M12,15.87a15.17,15.17,0,0,0,1.6.59c.33.06.5.34.34.75a1.32,1.32,0,0,0,.26,1.42c.21-.26-.08-1,.61-.73.32.1.5.36.18.68a1.28,1.28,0,0,0,0,.94c.11.47-.08.68-.58.73-.17,0-.08.33-.32.3a2.09,2.09,0,0,1-1.83.14c-.16-.49-.72-.49-1-.82a.24.24,0,0,1,.06-.17c.14-.16.39-.08.52-.26l0-.16c.05-.31-.08-.66.22-.91,0-.19,0-.37,0-.56A1.55,1.55,0,0,1,12,15.87Z" transform="translate(-2.73 -1.04)" fill="#a69a8b" fill-rule="evenodd"/>
    <path d="M15.47,28.46l-.14-.14s0-.09,0-.14a.61.61,0,0,1,0-.2c.26-.72.26-.72-.5-.82-.24,0-.45-.11-.5-.38a.47.47,0,0,1,.26-.52l.53-.31a.87.87,0,0,1,.92.1.45.45,0,0,0,.63,0l1.11,0h.28c.55-.12,1.1-.52,1.67,0a.16.16,0,0,1,0,.28,2,2,0,0,0-.89.92c-.1.28-.45.28-.71.36a.34.34,0,0,0-.28.4c0,.2.15.27.33.29.41.05.79.15.79.68,0,.23,0,.46,0,.7,0,.05-.14.12-.17.08-.58-.51-1.48-.42-2-1.07-.13,0-.14.17-.21.25-.37.46-.55.45-.84-.07A1.79,1.79,0,0,0,15.47,28.46Z" transform="translate(-2.73 -1.04)" fill="#a89d91" fill-rule="evenodd"/>
    <path d="M12.21,20.6l1.81,0c.15.53.65,1,.32,1.63a2.8,2.8,0,0,1-.27.45c-.05.22.14.18.24.23a.72.72,0,0,1,.4.74c0,.3-.21.44-.49.48-.7.07-1.42.36-2.08-.15,0-.3,0-.6,0-.9.21-.21.75.36.72-.36,0-.91-.11-1-1.27-1a1.59,1.59,0,0,0,.49-.91C12,20.62,12.08,20.57,12.21,20.6Z" transform="translate(-2.73 -1.04)" fill="#a49b8c" fill-rule="evenodd"/>
    <path d="M14.38,23.9c.36-.41,0-.66-.21-.94-.07-.11-.22-.15-.1-.3a.78.78,0,0,0,.59.13.77.77,0,0,1,.74.41c.13.28-.3.31-.33.63.92-.07,1,1,1.78,1.23-.11.43-.87-.06-.74.59a.47.47,0,0,0,.54.43.45.45,0,0,1-.68.19,1.42,1.42,0,0,0-.85-.16c-.66.24-.8.18-1-.45a3,3,0,0,1-.13-.46C14,24.72,13.88,24.22,14.38,23.9Z" transform="translate(-2.73 -1.04)" fill="#a69a8c" fill-rule="evenodd"/>
    <path d="M15.15,20.2c.14.18.27.32.15.51,0,0-.09,0-.12,0C15,20.6,15,20.44,15.15,20.2Z" transform="translate(-2.73 -1.04)" fill="#a69a8b" fill-rule="evenodd"/>
    <path d="M19.68,24.32l-.27.29c-.4,0-.41-.18-.26-.47s.24-.6.56-.46S19.63,24.1,19.68,24.32Z" transform="translate(-2.73 -1.04)" fill="#a99d8f" fill-rule="evenodd"/>
    <path d="M20.23,23.75c-.28-.3,0-.95-.68-1,.48-.17.68,0,.67.46,0,.18,0,.37,0,.55Z" transform="translate(-2.73 -1.04)" fill="#a99d8f" fill-rule="evenodd"/>
    <path d="M14.09,12.06c-.65-.52-.63-.8.13-1.2a2.13,2.13,0,0,1,1.36-.36,1.25,1.25,0,0,0,1-.3l-.12.84c-.16.3-.67.58-.08.95a.13.13,0,0,1,0,.17v.14a7.12,7.12,0,0,0-1.61,0C14.49,12.37,14.2,12.4,14.09,12.06Z" transform="translate(-2.73 -1.04)" fill="#a79b8b" fill-rule="evenodd"/>
    <path d="M15.94,17.48a.27.27,0,0,1,.26-.27c.23,0,.24.16.24.33s0,.24-.19.23A.3.3,0,0,1,15.94,17.48Z" transform="translate(-2.73 -1.04)" fill="#a79e8c" fill-rule="evenodd"/>
    <path d="M17,19a1.67,1.67,0,0,1-1.13.34.23.23,0,0,1-.25-.2.21.21,0,0,1,.21-.23A1.62,1.62,0,0,1,17,19Z" transform="translate(-2.73 -1.04)" fill="#553f32" fill-rule="evenodd"/>
    <path d="M15.47,28.46h.07c.49.3.72.24,1.06-.25.21-.31.46-.18.49.07.08.64.38.76.95.57.2-.07.32.13.41.3s.23.46.54.47.41,0,.46.2-.2.21-.3.31c-.46.45-.91.58-1.37,0a.45.45,0,0,0-.72,0c-.22.32.22.29.32.43.38.54.92.93,1.28,1.47.21.32-.22.46-.29.7a14,14,0,0,0-2,0c-.16,0-.29,0-.32-.17a.24.24,0,0,1,.24-.28c.3,0,.6,0,.9-.06s.46,0,.44-.21-.31-.2-.51-.18-.5.11-.75.12a.66.66,0,0,1-.58-.32c-.14-.24.12-.37.25-.51a1,1,0,0,0,.09-1.25A4.71,4.71,0,0,1,15.47,28.46Z" transform="translate(-2.73 -1.04)" fill="#a69c90" fill-rule="evenodd"/>
    <path d="M19.73,26a8.77,8.77,0,0,0-1.67,0,3.77,3.77,0,0,1,1.73-.59c.19,0,.48-.12.52.16s-.25.21-.41.28A1,1,0,0,0,19.73,26Z" transform="translate(-2.73 -1.04)" fill="#ab9f8f" fill-rule="evenodd"/>
    <path d="M20.67,25.92c.25,0,.46.12.44.43,0,.15-.07.29-.24.26a.6.6,0,0,1-.5-.43C20.31,26,20.51,25.94,20.67,25.92Z" transform="translate(-2.73 -1.04)" fill="#ab9f8f" fill-rule="evenodd"/>
    <path d="M18.9,15c0,.09,0,.19,0,.28-.61-.49-.64-1.25-.89-1.91-.11-.28,0-.75-.56-.69a.46.46,0,0,1,0-.71c.22-.18.35,0,.42.24a.71.71,0,0,0,.28.46A14.36,14.36,0,0,0,18.9,15Z" transform="translate(-2.73 -1.04)" fill="#8f7468" fill-rule="evenodd"/>
    <path d="M17.86,12.39c-.14-.06-.12-.39-.31-.28s-.07.38-.09.57l.17,1.38c0,.19,0,.38,0,.56s-.1.08-.12,0a2.22,2.22,0,0,1-.17-1,5.15,5.15,0,0,1-.11-1.36c0-.29-.08-.58,0-.86a.6.6,0,0,0,0-.13c.58-.29.59.12.63.51C17.9,12,18,12.21,17.86,12.39Z" transform="translate(-2.73 -1.04)" fill="#85695d" fill-rule="evenodd"/>
    <path d="M17.85,11.83c0-.36-.15-.59-.56-.53,0-.21,0-.46.24-.5s.3.24.36.42a4.56,4.56,0,0,1,.1.6C17.94,11.92,17.89,11.92,17.85,11.83Z" transform="translate(-2.73 -1.04)" fill="#5b4336" fill-rule="evenodd"/>
    <path d="M17.29,12.26q0,.7,0,1.39c-.29-.43-.11-.92-.17-1.39C17.2,12.17,17.25,12.17,17.29,12.26Z" transform="translate(-2.73 -1.04)" fill="#5d4a3c" fill-rule="evenodd"/>
    <path d="M17.51,14.61l.12,0,.17,1h-.14C17.66,15.26,17.45,15,17.51,14.61Z" transform="translate(-2.73 -1.04)" fill="#5d4a3c" fill-rule="evenodd"/>
    <path d="M17.85,11.83H18a1.93,1.93,0,0,0,.16.84.34.34,0,0,1-.28-.28C17.85,12.21,17.85,12,17.85,11.83Z" transform="translate(-2.73 -1.04)" fill="#695040" fill-rule="evenodd"/>
    <path d="M17.29,12.26h-.12c0-.28-.1-.58.11-.84Z" transform="translate(-2.73 -1.04)" fill="#5b4336" fill-rule="evenodd"/>
    <path d="M16.32,12c-.32,0-.59-.11-.61-.41,0-.49.5-.35.73-.56,0,.14,0,.28,0,.42C16.3,11.61,16.47,11.85,16.32,12Z" transform="translate(-2.73 -1.04)" fill="#aa9e90" fill-rule="evenodd"/>
    <path d="M16.81,9.35c.09-.37-.25-.84.25-1.12C16.92,8.59,17,9,16.81,9.35Z" transform="translate(-2.73 -1.04)" fill="#a69a8a" fill-rule="evenodd"/>
    <path d="M16.32,12c0-.2,0-.4.13-.56,0,.24.07.49-.12.7C16.32,12.1,16.32,12.05,16.32,12Z" transform="translate(-2.73 -1.04)" fill="#a7998b" fill-rule="evenodd"/>
    <path d="M16.92,7.77c-.46,0-.46,0-.56-.5A1.34,1.34,0,0,1,16.92,7.77Z" transform="translate(-2.73 -1.04)" fill="#a69a8a" fill-rule="evenodd"/>
    <path d="M16,7.63c0-.08,0-.14.13-.12a.14.14,0,0,1,.07.11c0,.08,0,.14-.13.11S16,7.67,16,7.63Z" transform="translate(-2.73 -1.04)" fill="#a69a8a" fill-rule="evenodd"/>
    <path d="M6.22,8.91H5.8c-.44,0-1-.09-.71.83-.61-.7-.5-1.1.14-1.24s.69-.4.39-1.12a.85.85,0,0,1,.21,0c.67.12,1.34.39,2-.16a.46.46,0,0,1,.61.19c.14.21.34.18.56.15s.35-.47.47-.21.65.54.79.94a.16.16,0,0,1-.16.24c-.18,0-.45.06-.48-.16-.08-.56-.42-.43-.75-.33a1.37,1.37,0,0,1-1.07-.15c-.33-.17-.5,0-.61.26s.21.22.3.33c.33.41,1,.46,1.09,1.16,0,.3.27.1.4,0s.48-.48.72,0c.08.17.33.05.5,0s.35-.21.46,0,.13.5-.15.6-.54.37-.89.34-.29.42-.48.61-.55.46-.85.08-.67-.36-1-.5L7.1,10.7a.67.67,0,0,1-.23-1.24,1.63,1.63,0,0,1,.3-.17c.17-.09.49-.15.35-.4s-.43-.12-.67,0-.3.6-.63.16c.16-.17.24-.41.44-.55,0,0,0,0,0,0C6.46,8.62,6.41,8.84,6.22,8.91Z" transform="translate(-2.73 -1.04)" fill="#a1998c" fill-rule="evenodd"/>
    <path d="M7.24,10.7c.51,0,1-.06,1.27.53.12.28.26.08.34,0s.17-.37.29-.53.28-.45.47,0q0,.91,0,1.81c.27.74-.6.82-.78,1.32-.09.26-.52.14-.81,0s-.39-.33-.65-.37c-.62-.06-1-.55-1.62-.75-.41-.14-.4-.6,0-.9a1.57,1.57,0,0,1,.94-.42C7.27,11.39,7.25,11.08,7.24,10.7Z" transform="translate(-2.73 -1.04)" fill="#a39b90" fill-rule="evenodd"/>
    <path d="M11.74,12.82c.18.5.09,1.12.6,1.49.1.07.12.27,0,.3-.67.2-.34.73-.4,1.13a1.28,1.28,0,0,0-.38.63c-.17.82-.29.88-1.08.62a.29.29,0,0,0-.32,0c-.14.06-.27.17-.42,0a.82.82,0,0,1-.48-.95c.05-.22.13-.46.45-.31,0,0,0,.09,0,.14.24.23.51.27.7,0s.41-.54,0-.79a.32.32,0,0,1-.16-.36c.27-.74-.27-.61-.67-.64a.37.37,0,0,1-.26-.19A1.13,1.13,0,0,1,11,12.83Z" transform="translate(-2.73 -1.04)" fill="#a49b8c" fill-rule="evenodd"/>
    <path d="M11,12.83C10,12.87,9.8,13,9.41,14c-.12.29-.5.35-.6.66l-.08.05c-.43-.1-.77-.49-1.26-.39-.22-.37-.36-.73,0-1.11a2.78,2.78,0,0,1,.85.44.46.46,0,0,0,.52,0c.14-.1.12-.23,0-.37-.18-.3,0-.37.25-.37s.57,0,.55-.44l.82-.15C10.88,12.23,11.08,12.41,11,12.83Z" transform="translate(-2.73 -1.04)" fill="#a2998b" fill-rule="evenodd"/>
    <path d="M7.44,13.2c-.15.38.36.73,0,1.11,0,.2,0,.43.23.53s.43,0,.35.3a.59.59,0,0,1-.45.39.7.7,0,0,1-.41,0,6.1,6.1,0,0,0-1.89-.4c-.1,0-.07-.15-.05-.24,0-.28.51-.79-.33-.59,0-.28.33-.28.3-.52l.05,0c.17-.23.64.11.67-.29s-.43-.42-.67-.6a1.17,1.17,0,0,0-.32-.11c-.46-.16-.46-.29-.16-.66.15-.19.65-.22.39-.66L5,11.31c-.25-.65.25-.23.41-.29s.47-.43.83-.3.58,1,.83,0h.14c.18.33.11.76.5,1-.14.14-.29.15-.36.09-.57-.5-1,.12-1.49.21a.27.27,0,0,0,0,.54C6.47,12.62,6.87,13.08,7.44,13.2Z" transform="translate(-2.73 -1.04)" fill="#a1998e" fill-rule="evenodd"/>
    <path d="M6.26,10.72c-.28.09-.4.62-.83.3,0-.15-.15-.21-.24-.31a.4.4,0,0,1,0-.55c.16-.19.32,0,.46.08Z" transform="translate(-2.73 -1.04)" fill="#9b9386" fill-rule="evenodd"/>
    <path d="M6.22,8.91a.35.35,0,0,1,.41-.43.09.09,0,0,1,.09,0s0,0,0,0c-.12.25-.2.54-.54.57C6.22,9,6.22,9,6.22,8.91Z" transform="translate(-2.73 -1.04)" fill="#a49a8e" fill-rule="evenodd"/>
    <path d="M3.88,9.81c0-.33-.12-.68.11-1C4,9.15,4.09,9.5,3.88,9.81Z" transform="translate(-2.73 -1.04)" fill="#85796d" fill-rule="evenodd"/>
    <path d="M21.56,7.71c.23-.27.24-.7.64-.84.16.14.1.31.05.47s-.19.43-.29.64a2.85,2.85,0,0,0,0,1.57.92.92,0,0,1,0,.19,1.46,1.46,0,0,0,.14.74,2.37,2.37,0,0,1,.46.61c.13.72.8.49,1.22.7a.16.16,0,0,1,0,.18.5.5,0,0,0,0,.12.36.36,0,0,1-.16.17.74.74,0,0,1-.79-.12.51.51,0,0,1-.42-.27c-.3-.25-.34-.66-.58-.95l-.29-.7c-.2-.31,0-.68-.16-1,0-.22,0-.44,0-.66C21.58,8.3,21.29,8,21.56,7.71Z" transform="translate(-2.73 -1.04)" fill="#927f70" fill-rule="evenodd"/>
    <path d="M23.87,6.94h.27a5.87,5.87,0,0,1,.78,2.94A5.77,5.77,0,0,1,24.79,11a.15.15,0,0,1-.2,0,.67.67,0,0,1-.13-.65A4,4,0,0,0,24,7.65C23.88,7.43,23.69,7.21,23.87,6.94Z" transform="translate(-2.73 -1.04)" fill="#6d5445" fill-rule="evenodd"/>
    <path d="M25.16,9a3.41,3.41,0,0,1,0,1.51A1.87,1.87,0,0,1,25.16,9Z" transform="translate(-2.73 -1.04)" fill="#553b2b" fill-rule="evenodd"/>
    <path d="M23.71,12.11l.11,0c.42.12.05.29,0,.43-.23,0-.45.14-.68,0s0-.24.1-.32S23.58,12.24,23.71,12.11Z" transform="translate(-2.73 -1.04)" fill="#523927" fill-rule="evenodd"/>
    <path d="M23.86,12v-.14a.45.45,0,0,1,.46-.48l.09,0A.64.64,0,0,1,23.86,12Z" transform="translate(-2.73 -1.04)" fill="#6b5243" fill-rule="evenodd"/>
    <path d="M24.64,11h.15l-.39.44,0,0C24.24,11.1,24.33,11,24.64,11Z" transform="translate(-2.73 -1.04)" fill="#6b5243" fill-rule="evenodd"/>
    <path d="M24.64,11a.58.58,0,0,0-.27.42l-.53.45c-.91.18-1.14.06-1.41-.67.13-.1.26,0,.39,0,.81.22,1.26,0,1.36-.86a6,6,0,0,0,.05-1.1,8.88,8.88,0,0,0-.82-2,.48.48,0,0,1,.07-.3l.08-.07.29.13A5.32,5.32,0,0,1,24.64,11Z" transform="translate(-2.73 -1.04)" fill="#a89885" fill-rule="evenodd"/>
    <path d="M22.34,6.75c.17-.33.49-.33.8-.34.14.14.4.15.43.4v.06C23.17,6.87,22.74,7,22.34,6.75Z" transform="translate(-2.73 -1.04)" fill="#644f3c" fill-rule="evenodd"/>
    <path d="M21.89,11.87a1,1,0,0,1,.43.4h-.14A.45.45,0,0,1,21.89,11.87Z" transform="translate(-2.73 -1.04)" fill="#5a4633" fill-rule="evenodd"/>
    <path d="M23.3,12.27l-.14.27a.52.52,0,0,1-.42-.13l.14-.15A.33.33,0,0,1,23.3,12.27Z" transform="translate(-2.73 -1.04)" fill="#5a4633" fill-rule="evenodd"/>
    <path d="M22.34,6.75a1.32,1.32,0,0,1,1.24.12c0,.08,0,.15,0,.23-.4.16-.87,0-1.25.29a.33.33,0,0,1-.26-.12l.12-.4Z" transform="translate(-2.73 -1.04)" fill="#ac9b86" fill-rule="evenodd"/>
    <path d="M21.87,10.92a2.12,2.12,0,0,1,.58.95C22,11.67,22,11.28,21.87,10.92Z" transform="translate(-2.73 -1.04)" fill="#5a4633" fill-rule="evenodd"/>
    <path d="M21.42,9.22a2,2,0,0,1,.16,1C21.32,9.92,21.44,9.56,21.42,9.22Z" transform="translate(-2.73 -1.04)" fill="#5a4633" fill-rule="evenodd"/>
    <path d="M23.3,12.27h-.42s0-.09,0-.13l.84,0A.5.5,0,0,1,23.3,12.27Z" transform="translate(-2.73 -1.04)" fill="#64503b" fill-rule="evenodd"/>
    <path d="M21.56,7.71c-.1.27,0,.59-.16.85C21.42,8.27,21.26,8,21.56,7.71Z" transform="translate(-2.73 -1.04)" fill="#5a4633" fill-rule="evenodd"/>
    <path d="M14.13,25c.1.18.27.36.27.54,0,.54.32.59.73.55,0,.19-.16.26-.33.3s-.36.15-.28.39.27.12.42.15c.32.08.72-.55.93.05a1,1,0,0,1-.56,1.19,1.56,1.56,0,0,0-1.25,0c-.41-.19-.78-.42-1.2.08a3.87,3.87,0,0,1-1.13.09c-.29,0-.31-.19-.13-.36s.49-.46.07-.76a.16.16,0,0,1,0-.24.15.15,0,0,1,.28,0c.1.19.34.17.45.29.42.44.65.25.89-.25-.34.05-.61,0-.71-.35,0,0-.06-.1-.09-.1-1,0-.52-.43-.27-.87a.54.54,0,0,1,.55-.31c.3,0,.57,0,.56-.43A.52.52,0,0,1,14.13,25Z" transform="translate(-2.73 -1.04)" fill="#a49a8e" fill-rule="evenodd"/>
    <path d="M14.13,25l-.84,0a1.09,1.09,0,0,1-1.07-.46.69.69,0,0,0-.49-.33c-.17,0-.41,0-.42-.23a.46.46,0,0,1,.16-.29c.23-.23.29.09.43.15l.26.08,2.23-.05C14.17,24.24,14.42,24.69,14.13,25Z" transform="translate(-2.73 -1.04)" fill="#a19888" fill-rule="evenodd"/>
    <path d="M12,19.49s0,.09,0,.14c-.2.17-.49,0-.69.16h-.14a.69.69,0,0,1-.83.16c-.53.1-.94-.25-1.4-.38l-1.1,0c-.11,0-.26,0-.28-.12s.13-.3.24-.26c.63.22.84-.63,1.42-.53.11,0,.18-.12.21-.25.16-.68.31-.23.47,0a.9.9,0,0,0,1,.75A1.16,1.16,0,0,1,12,19.49Z" transform="translate(-2.73 -1.04)" fill="#a39b8e" fill-rule="evenodd"/>
    <path d="M10.39,20a1.51,1.51,0,0,1,.83-.16c.37.22,1.11,0,1,.81l-.14.14-.73.2c-.33.09-.71.27-1,0S10.24,20.28,10.39,20Z" transform="translate(-2.73 -1.04)" fill="#998d80" fill-rule="evenodd"/>
    <path d="M10.71,27.47c0-.28.18-.56,0-.84.32,0,.65.09.65.44S10.94,27.37,10.71,27.47Z" transform="translate(-2.73 -1.04)" fill="#9c9587" fill-rule="evenodd"/>
    <path d="M14.12,30.31q0-.35,0-.7A.53.53,0,0,1,14.12,30.31Z" transform="translate(-2.73 -1.04)" fill="#534035" fill-rule="evenodd"/>
    <path d="M8.17,21.28a1,1,0,0,1,.15-.56l.61,0c.32,0,.32.18.22.41h0c-.19.19-.5,0-.68.19A.18.18,0,0,1,8.17,21.28Z" transform="translate(-2.73 -1.04)" fill="#473b2f" fill-rule="evenodd"/>
    <path d="M8.48,21.28c.17-.25.44-.17.68-.19C9,21.29,8.71,21.23,8.48,21.28Z" transform="translate(-2.73 -1.04)" fill="#5e4e44" fill-rule="evenodd"/>
    <path d="M13.2,32.84c0-.12,0-.23,0-.35s-.06-.42.21-.43.08.32.25.41c.4-.16-.09-.58.21-.77.35.4.19,1,.59,1.38a3.21,3.21,0,0,0,.74,1.31c.16.16.31.31,0,.47a1.54,1.54,0,0,1-1-.82c-.14-.3-.21-.66-.69-.67C13.28,33.38,13.15,33.1,13.2,32.84Z" transform="translate(-2.73 -1.04)" fill="#9f9589" fill-rule="evenodd"/>
    <path d="M13.72,31.15c-.66-.44-.66-.44,0-.84.06,0,.06.09,0,.15Z" transform="translate(-2.73 -1.04)" fill="#9a9184" fill-rule="evenodd"/>
    <path d="M13.71,30.46v-.15c0-.23,0-.46,0-.69A.66.66,0,0,1,13.71,30.46Z" transform="translate(-2.73 -1.04)" fill="#948a82" fill-rule="evenodd"/>
    <path d="M9.73,15.79c-.45.43-.26.84,0,1.25-.38-.28-.77-.1-1.16,0-.14,0-.2.07-.2.22,0,.66-.43.71-.95.63s-.83-.13-1.15.26c-.14-.86.63-.79,1.09-1,.11-.06.39,0,.39,0,0-.58.7-.56.86-.9C8.91,15.53,9.27,15.6,9.73,15.79Z" transform="translate(-2.73 -1.04)" fill="#a2998b" fill-rule="evenodd"/>
    <path d="M9.68,14c.07-.3.22-.18.41-.12A6.81,6.81,0,0,0,11,14c0,.28-.22.29-.35.39s-.25.29-.16.49.25.09.4,0,.4,0,.27.17-.23.64-.38.94a.6.6,0,0,1-.52.4c-.3,0-.44-.23-.49-.5.22,0,.46-.15.34-.39s-.29-.49-.61-.45a.68.68,0,0,1-.74-.38h0A2.25,2.25,0,0,0,9.68,14Z" transform="translate(-2.73 -1.04)" fill="#a2998b" fill-rule="evenodd"/>
    <path d="M4.71,15.77v-.28c.08,0,.19-.09.23,0S4.85,15.74,4.71,15.77Z" transform="translate(-2.73 -1.04)" fill="#a1998e" fill-rule="evenodd"/>
    <path d="M12,19.49c-.56.13-1.1-.14-1.68,0-.37.09-.6-.51-.44-1.06l2.09,0C11.92,18.75,12.28,19.12,12,19.49Z" transform="translate(-2.73 -1.04)" fill="#a59b91" fill-rule="evenodd"/>
    <path d="M10.18,17c.17-.23.35-.19.61-.1s.68-.11.54-.45c-.32-.76.24-.66.63-.75v.14c.18.65-.18,1.3,0,1.95l-1.11,0a.08.08,0,0,1,0-.14c-.16-.19-.77,0-.46-.59Z" transform="translate(-2.73 -1.04)" fill="#a2998b" fill-rule="evenodd"/>
    <path d="M10.89,17.71s0,.09,0,.14-.07.2-.14.23-.4.26-.64.12A.19.19,0,0,1,10,18c.1-.26.32-.3.56-.31Z" transform="translate(-2.73 -1.04)" fill="#9c9384" fill-rule="evenodd"/>
    <path d="M5.17,11.44c.18.14.55.24.06.49a3.44,3.44,0,0,0-.58.5L6,12.91a.42.42,0,0,1,.33.44c.05.76,0,.82-.74.55l-.33-.09a.6.6,0,0,1-.07-.19c0-.82-.59-.62-1.07-.62-.23-.39-.09-.65.29-.83A1.36,1.36,0,0,0,5.17,11.44Z" transform="translate(-2.73 -1.04)" fill="#9e978b" fill-rule="evenodd"/>
    <path d="M13.2,32.84c.24.13.38.82.81.14a4.49,4.49,0,0,0,1.19,1.89l-1.25,0c-.52-.35-1,.13-1.53,0-.37.05-.77-.09-1.11.16h-.14c.11-.69.8-.25,1.21-.65-.82,0-1.55-.4-2.19.26,0-.09,0-.19,0-.28s-.19-.36.13-.42a.73.73,0,0,0,.7-.35c.15-.19.25-.46.53-.51a2.2,2.2,0,0,0,.26-.21C12.46,32.21,12.53,32.2,13.2,32.84Z" transform="translate(-2.73 -1.04)" fill="#a2988e" fill-rule="evenodd"/>
    <path d="M6.8,33l.7,0a.7.7,0,0,1,.43.69,1.34,1.34,0,0,0-1.11-.19,5.17,5.17,0,0,1-1.55-.31,2.67,2.67,0,0,0,1-.3C6.42,32.94,6.65,32.78,6.8,33Z" transform="translate(-2.73 -1.04)" fill="#97928c" fill-rule="evenodd"/>
    <path d="M10.31,34a.5.5,0,0,0-.13.42,1.93,1.93,0,0,1-1-.28C9.78,33.47,9.88,33.46,10.31,34Z" transform="translate(-2.73 -1.04)" fill="#a0978e" fill-rule="evenodd"/>
    <path d="M6.8,33c-.2,0-.4,0-.56-.13l.41-.29C7,32.62,6.88,32.81,6.8,33Z" transform="translate(-2.73 -1.04)" fill="#9e958c" fill-rule="evenodd"/>
    <path d="M6.77,31.74c-.14-.1-.34-.15-.3-.38,0,0,.12-.1.15-.09.21.1.13.3.16.47Z" transform="translate(-2.73 -1.04)" fill="#988f86" fill-rule="evenodd"/>
    <path d="M13.7,14.84a.26.26,0,0,1,.24-.2c.14,0,.18.09.21.2s0,.16-.12.14S13.75,15,13.7,14.84Z" transform="translate(-2.73 -1.04)" fill="#aa9e90" fill-rule="evenodd"/>
    <path d="M13.93,19.17c.22,0,.61,0,.56.35a.81.81,0,0,1-.88.61c-.3,0-.71-.1-.66-.44S13.47,19.17,13.93,19.17Z" transform="translate(-2.73 -1.04)" fill="#918476" fill-rule="evenodd"/>
    <path d="M11.36,19.79c.2-.2.45-.13.69-.16C11.85,19.83,11.59,19.77,11.36,19.79Z" transform="translate(-2.73 -1.04)" fill="#a59b91" fill-rule="evenodd"/>
    <path d="M6.76,8.48H6.63a1.07,1.07,0,0,1-.07-.12c-.08-.17-.38-.24-.22-.5,0,0,.18,0,.24,0C6.8,8,7,8.19,6.76,8.48Z" transform="translate(-2.73 -1.04)" fill="#9f978a" fill-rule="evenodd"/>
    <path d="M9.68,14c0,.87-.07.92-1,.72C8.47,14,9,14,9.41,14Z" transform="translate(-2.73 -1.04)" fill="#a69c90" fill-rule="evenodd"/>
    <path d="M24.47,9.17c0,.32,0,.64,0,1a1.42,1.42,0,0,1-.62,1.3,1.06,1.06,0,0,1-1.44-.27L22,10.62s0-.06,0-.09a2.88,2.88,0,0,0-.06-.7.83.83,0,0,1,0-.18c-.15-.41.13-.87-.14-1.27a.63.63,0,0,1,0-.29,1.4,1.4,0,0,1,.66-.76c.53-.12.58.29.68.63s.07.67.12,1c.33.09.43-.26.66-.29C24.3,8.56,24.24,9,24.47,9.17Z" transform="translate(-2.73 -1.04)" fill="#b0a493" fill-rule="evenodd"/>
    <path d="M21.81,8.39c.6.4.06.93.17,1.39,0,0-.06,0-.09,0s0,0,0,0,0-.09,0-.13A2.44,2.44,0,0,1,21.81,8.39Z" transform="translate(-2.73 -1.04)" fill="#ac9c8b" fill-rule="evenodd"/>
    <path d="M21.81,8.39c0,.42,0,.84,0,1.26a2.52,2.52,0,0,1,0-1.81.19.19,0,0,1,0,.28C21.8,8.21,21.8,8.3,21.81,8.39Z" transform="translate(-2.73 -1.04)" fill="#a89885" fill-rule="evenodd"/>
    <path d="M21.8,8.12c0-.09,0-.19,0-.28l.28-.56h.27c.07,0,.07.09,0,.14C22.26,7.72,22,7.86,21.8,8.12Z" transform="translate(-2.73 -1.04)" fill="#ac9c8b" fill-rule="evenodd"/>
    <path d="M21.84,9.79H22a1.15,1.15,0,0,1,0,.83h0C21.78,10.37,21.87,10.07,21.84,9.79Z" transform="translate(-2.73 -1.04)" fill="#a89885" fill-rule="evenodd"/>
    <path d="M22.34,7.41s0-.09,0-.14c.35-.53.79-.39,1.24-.17a4.59,4.59,0,0,1,.89,2.07c-.09,0-.21.28-.27,0s-.07-.36-.3-.39a3.5,3.5,0,0,1-1-.67C22.68,7.9,22.88,7.34,22.34,7.41Z" transform="translate(-2.73 -1.04)" fill="#b5a591" fill-rule="evenodd"/>
    <path d="M10.69,20.63c-.25-.26-.11-.46.15-.51s.69-.18,1,.11c.1.1,0,.24-.1.27-.33.1-.64.43-1,.13l.08-.08Z" transform="translate(-2.73 -1.04)" fill="#635447" fill-rule="evenodd"/>
    <path d="M12.4,33.84c-.3-.08-.46-.2-.38-.46,0-.05.1-.13.14-.12C12.48,33.35,12.34,33.63,12.4,33.84Z" transform="translate(-2.73 -1.04)" fill="#a1988e" fill-rule="evenodd"/>
    <path d="M12.36,33.79c.31.23.65.11,1.1.26C13,34.07,12.62,34.25,12.36,33.79Z" transform="translate(-2.73 -1.04)" fill="#a1988e" fill-rule="evenodd"/>
    <path d="M13.85,19.38c.16,0,.34,0,.3.16s-.3.32-.53.34-.39,0-.37-.17S13.66,19.48,13.85,19.38Z" transform="translate(-2.73 -1.04)" fill="#55473a" fill-rule="evenodd"/>
    <path d="M22.91,8.09c.56-.12.85.17,1,.67a2,2,0,0,1-.24.42c-.16.17-.36.34-.61.22s-.21-.32-.18-.55A6.78,6.78,0,0,0,22.91,8.09Z" transform="translate(-2.73 -1.04)" fill="#b6a697" fill-rule="evenodd"/>
    <path d="M22,10.61c0-.28,0-.55,0-.83A.67.67,0,0,1,22,10.61Z" transform="translate(-2.73 -1.04)" fill="#ac9c8b" fill-rule="evenodd"/>
    <path d="M10.69,20.63a.92.92,0,0,1,.14-.3c.13-.12.32-.16.39,0s-.14.19-.26.24a1.13,1.13,0,0,1-.27,0Z" transform="translate(-2.73 -1.04)" fill="#514135" fill-rule="evenodd"/>
  </g>
</svg>
