<svg id="Layer_2" data-name="Layer 2" xmlns="http://www.w3.org/2000/svg" width="1200.25" height="407" viewBox="0 0 1200.25 407">
  <title>overlayKbh</title>
  <g>
    <polygon points="735.16 135.4 744.4 132.32 748.9 136.82 757.17 136.27 756 126.88 751.14 122.76 751.16 113.13 756 109.58 756 101.06 747.71 101.06 743.92 105.08 734.92 102.01 734.92 98.93 725.21 92.53 723.79 102.24 725.45 105.32 723.32 113.14 717.02 112.51 711.47 117.88 716.68 124.98 722.37 125.22 726.39 131.14 724.03 135.17 724.74 143.22 733.03 141.8 735.16 135.4" fill="none" stroke="#47a8a5" stroke-miterlimit="10"/>
    <polyline points="695.09 119.64 681.54 132.42 663.34 137.06 633.52 163.4 605.63 190.12 583.17 220.72 563.81 248.6 580.07 278.03 633.52 325.28" fill="none" stroke="#93d6e2" stroke-miterlimit="10"/>
    <polyline points="638.16 329.54 664.5 351.22 698.19 362.45 720.26 360.52 741.57 353.16 765.96 341.93 785.33 326.83 785.33 321.79 804.69 306.69 824.44 281.52 835.67 256.34 841.87 224.97 841.87 189.73" fill="none" stroke="#93d6e2" stroke-miterlimit="10"/>
    <path d="M843.88,190.41l.47,8.84,4.54.58,3.84,5.21-4,5.73h-3.26l-.23,19.31,3.61.58,3.28,6.8-5.26,4.72h-2.09l-6.17,19.2,3.22,2.09v8.84L836,275l-2.44-1s-9.07,15.47-9.89,15.82,1.75,3.49,1.75,3.49l-1.4,6h-5.24l-2-1.4-5.93,8.26,1.13,2.32-1.13,7.18h-6.32l-1.66-2.76-9.95,7.18v7.18l-7.59-.45" fill="none" stroke="#47a8a5" stroke-miterlimit="10"/>
    <polyline points="785.33 325.28 790.98 325.28 790.98 319.72 802.82 310.56 805.35 314.35 809.46 314.35 810.4 308.35 808.83 306.3 816.72 295.4 819.02 297.45 823.2 297.45 823.67 293.5 821.46 289.87 832.67 271.71 835.99 273.29 840.41 270.6 839.94 264.13 836.78 262.07 844.04 240.28 846.97 240.28 850.42 236.87 848.02 232.13 844.04 231.75 844.04 208.69 847.84 208.69 850.42 205.04 848.01 201.06 844.04 200.8 844.28 197.9" fill="none" stroke="#47a8a5" stroke-miterlimit="10" stroke-width="0.5"/>
    <polyline points="783.24 329.35 785.85 331.81 768.19 345.4 769.65 347.79 767.11 353.78 760.35 352.09 758.2 348.48 738.46 357.85 739.53 361.77 734.62 366.76 727.32 364.07 727.32 360.61 709.27 364.92 709.27 369.29 701.82 372.75 696.13 368.14 696.13 364.07 681.92 361.31 679.92 366.99 672.93 368.83 670.17 362.45 672.7 357.46 661.64 353.78 658.88 358.54 650.81 358.46 649.81 351.78 652.73 348.25 646.28 342.56 642.98 345.71 633.76 346.02 633.76 337.88 637.52 333.42" fill="none" stroke="#47a8a5" stroke-miterlimit="10" stroke-width="0.5"/>
    <polyline points="853.89 204.93 866.81 213.01 863.32 253.65 866.81 260.11 860.35 263.6 853.89 296.71 855.51 304.25 850.42 304.25 826.71 333.04 826.71 339.5 819.98 339.5 780.42 369.38 780.42 376.91 772.88 372.75 732.51 379.87 730.63 386.87 723.09 381.49 691.07 383.91 685.41 388.49 683.26 382.3 654.19 376.91 646.12 380.95 646.12 374.29 618.13 353.23 612.48 353.5 615.98 347.04 633.76 331.16 636.47 333.1 632.55 337.38 632.55 347.38 643.51 347.14 646.6 344.29 651.13 348.57 648.74 351.46 649.93 359.76 659.46 359.76 662.55 355.24 671.12 358.1 668.98 362.45 672.31 370.24 680.64 368.1 682.79 362.45 695.09 365 695.09 369.05 701.36 374.29 710.4 370.48 710.4 365.71 726.12 362.45 726.12 365.24 734.69 368.33 741.12 362.45 740.01 358.33 757.78 350.24 759.45 353.1 767.54 355.72 771.11 347.86 769.92 345.72 788.01 332.15 784.29 328.64" fill="none" stroke="#47a8a5" stroke-miterlimit="10"/>
    <polyline points="853.38 205.93 865.02 213.59 861.67 255.21 864.07 258.85 859.2 262.22 851.95 297.62 853.7 302.56 850.42 302.56 825 332.86 825 337.64 819.74 337.64 778.6 368.58 778.6 373.68 773.34 370.17 731.24 377.82 729.65 383.73 723.43 379.42 690.1 381.97 686.43 385 684.84 380.69 654.07 374.95 647.53 378.46 647.53 372.75 618.51 351.05 614.68 351.83 617.87 347.53 633.76 332.86" fill="none" stroke="#93d6e2" stroke-miterlimit="10" stroke-width="0.5"/>
    <polyline points="733.19 99.61 733.19 103.61 743.65 107.1 746.75 104.13" fill="none" stroke="#93d6e2" stroke-miterlimit="10" stroke-width="0.5"/>
    <polyline points="752.57 109.55 749.34 112.14 749.34 123.5 752.05 125.57" fill="none" stroke="#93d6e2" stroke-miterlimit="10" stroke-width="0.5"/>
    <polyline points="747.4 133.06 744.69 130.35 733.19 134.49 731.9 139.01" fill="none" stroke="#93d6e2" stroke-miterlimit="10" stroke-width="0.5"/>
    <polyline points="726.08 134.1 727.89 131.13 722.86 123.89 720.27 123.89" fill="none" stroke="#93d6e2" stroke-miterlimit="10" stroke-width="0.5"/>
    <polyline points="725.7 102.84 727.12 105.55 724.66 114.46 721.56 114.46" fill="none" stroke="#93d6e2" stroke-miterlimit="10" stroke-width="0.5"/>
    <polyline points="740.93 101.15 740.93 97.5 744.58 97.5 743.51 92.53 739.65 93.86 726.13 87.64 726.13 84.42 721.56 82.7 721.56 87.64 724.08 88.49 720.27 102 716.7 102 716.7 107.1 707.48 116.59 704.47 115.73 704.47 117.56 699.75 119.64 704.47 121.09 704.47 123.89 708.12 121.74 715.2 129 713.7 134.1 717.77 134.68 721.56 145.93 718.5 148.69 720.82 153.57 725.5 151.13 724.8 147.21 735.36 144.47 737.07 147.69 742.44 145.12 739.65 141.68 739.65 135.68" fill="none" stroke="#93d6e2" stroke-miterlimit="10" stroke-width="0.5"/>
    <polyline points="695.09 117.88 690.19 111.87 675.74 111.87 673.72 123.89 679.44 129 663.3 132.37 660.27 129 648.17 129 646.83 138.43 650.53 142.79 638.16 153.57 633.38 148.51 620.27 148.51 618.26 161.96 623.64 166.66 610.19 179.77 606.16 176.41 591.03 176.41 589.68 189.73 595.74 194.22 585.32 209.01 579.94 205.93 568.17 208.01 568.85 222.46 574.89 225.15 566.83 238.26 560.44 238.26 548.68 244.98 555.21 255.55 563.81 255.55 567.71 265.13 561.16 269.07 559.85 279.39 568.69 283.65 576.23 279.39 582.13 285.45 574.92 289.71 574.1 300.69 585.24 302 591.96 297.41 600.15 304.95 593.43 309.54 594.09 320.51 604.9 321.99 611.62 316.25 618.66 321.99 612.48 328.38 614.68 341.98 629.45 329.35" fill="none" stroke="#47a8a5" stroke-miterlimit="10"/>
    <polyline points="629.45 327.07 615.72 339.19 613.91 328.54 620.63 321.82 611.46 314.29 604.41 320.18 595.4 318.38 594.74 310.68 602.61 304.78 591.63 294.79 584.42 300.03 576.07 298.72 576.07 290.86 584.59 286.11 576.07 277.26 569.19 281.36 561.49 278.41 562.3 270.05 570 265.3 564.6 254.16 556.9 254.16 551 245.47 560.83 239.74 567.55 239.74 577.05 224.5 570.33 221.39 569.84 209.27 579.34 207.63 586.06 210.74 597.86 193.7 591.47 188.95 591.96 177.81 604.74 177.81 610.14 182.07 625.87 166.18 619.65 160.61 621.88 150.12 631.94 150.12 638.16 156.18 652.74 142.58 648.32 137.83 649.47 130.13 659.46 130.13 662.74 133.9 682.23 129.31 675.19 122.76 676.83 113.75 688.95 113.75 693.38 118.14" fill="none" stroke="#47a8a5" stroke-miterlimit="10" stroke-width="0.5"/>
    <polygon points="658.9 118.29 665.45 114.68 665.31 106.62 653.55 102.09 651.43 114.37 658.9 118.29" fill="none" stroke="#93d6e2" stroke-miterlimit="10" stroke-width="0.5"/>
    <polygon points="579.85 231.13 566.1 247.83 569.28 253.83 591.84 244.66 579.85 231.13" fill="none" stroke="#93d6e2" stroke-miterlimit="10" stroke-width="0.5"/>
    <polygon points="592.74 248.44 599.44 255.13 583.93 274.88 571.24 257.25 592.74 248.44" fill="none" stroke="#93d6e2" stroke-miterlimit="10" stroke-width="0.5"/>
    <polygon points="602.65 257.88 612.28 267.4 600.3 288.07 586.2 277.62 602.65 257.88" fill="none" stroke="#93d6e2" stroke-miterlimit="10" stroke-width="0.5"/>
    <polygon points="613.21 272.29 601.81 290.49 607.51 296.96 622.15 275.39 613.21 272.29" fill="none" stroke="#93d6e2" stroke-miterlimit="10" stroke-width="0.5"/>
    <polygon points="615.57 268.84 622.44 271.66 632.49 264.43 626.85 259.67 615.57 268.84" fill="none" stroke="#93d6e2" stroke-miterlimit="10" stroke-width="0.5"/>
    <polygon points="611.11 263.63 621.94 256.59 619.68 241.89 603.02 254.09 611.11 263.63" fill="none" stroke="#93d6e2" stroke-miterlimit="10" stroke-width="0.5"/>
    <polygon points="595.19 244.04 601.39 252.22 616.11 241.67 617.74 231.49 612.84 231.13 595.19 244.04" fill="none" stroke="#93d6e2" stroke-miterlimit="10" stroke-width="0.5"/>
    <polygon points="593.06 242.48 581.78 229.64 603.8 203.7 610.52 227.95 593.06 242.48" fill="none" stroke="#93d6e2" stroke-miterlimit="10" stroke-width="0.5"/>
    <rect x="686.18" y="133.45" width="28.5" height="1.82" transform="matrix(0.87, 0.5, -0.5, 0.87, 161.02, -332.21)" fill="#93d6e2"/>
    <rect x="689.13" y="130.78" width="25.31" height="1.82" transform="translate(159.87 -333.25) rotate(30)" fill="#93d6e2"/>
    <rect x="684.66" y="137.07" width="30.46" height="2.16" transform="translate(162.84 -331.44) rotate(30)" fill="#93d6e2"/>
    <rect x="682.86" y="140.2" width="30.46" height="2.16" transform="translate(164.16 -330.12) rotate(30)" fill="#93d6e2"/>
    <rect x="681.14" y="143.17" width="30.46" height="2.16" transform="translate(165.42 -328.86) rotate(30)" fill="#93d6e2"/>
    <rect x="679.12" y="145.67" width="30.46" height="2.16" transform="translate(166.4 -327.52) rotate(30)" fill="#93d6e2"/>
    <rect x="677.41" y="148.63" width="30.46" height="2.16" transform="translate(167.65 -326.26) rotate(30)" fill="#93d6e2"/>
    <rect x="675.71" y="151.59" width="30.46" height="2.16" transform="translate(168.9 -325.01) rotate(30)" fill="#93d6e2"/>
    <rect x="673.46" y="154.47" width="30.46" height="2.16" transform="translate(170.04 -323.51) rotate(30)" fill="#93d6e2"/>
    <polygon points="696.37 125.33 694.35 135.46 693.38 143.22 694.99 161.21 693.29 160.63 692.42 143.22 695.09 125.33 696.37 125.33" fill="#fff"/>
    <polygon points="673.44 151.13 690.94 161.34 685.12 168.03 668.22 157.1 673.44 151.13" fill="none" stroke="#93d6e2" stroke-miterlimit="10" stroke-width="0.5"/>
    <polygon points="665.45 139.01 674.79 144.25 667.29 156.57 654.06 147.79 665.45 139.01" fill="none" stroke="#93d6e2" stroke-miterlimit="10" stroke-width="0.5"/>
    <polygon points="667.06 138.49 675.61 142.92 681.27 135.48 676.03 135.48 667.06 138.49" fill="none" stroke="#93d6e2" stroke-miterlimit="10" stroke-width="0.5"/>
    <polygon points="691.51 162.57 698 166.49 687.13 179.25 680.82 174.97 691.51 162.57" fill="none" stroke="#93d6e2" stroke-miterlimit="10" stroke-width="0.5"/>
    <polygon points="678.97 175.16 685.11 179.22 682.04 182.18 676.54 178.67 678.97 175.16" fill="none" stroke="#93d6e2" stroke-miterlimit="10" stroke-width="0.5"/>
    <polygon points="675.98 164.3 683.3 168.66 676.03 177.52 669.79 172.9 675.98 164.3" fill="none" stroke="#93d6e2" stroke-miterlimit="10" stroke-width="0.5"/>
    <polygon points="655.11 149.71 674.17 161.93 650.61 190.68 633.76 170.66 655.11 149.71" fill="none" stroke="#93d6e2" stroke-miterlimit="10" stroke-width="0.5"/>
    <polygon points="667.68 175.16 674.17 179.08 663.3 191.84 656.99 187.56 667.68 175.16" fill="none" stroke="#93d6e2" stroke-miterlimit="10" stroke-width="0.5"/>
    <polygon points="675.12 179.94 681.6 183.86 670.73 196.62 664.43 192.34 675.12 179.94" fill="none" stroke="#93d6e2" stroke-miterlimit="10" stroke-width="0.5"/>
    <polygon points="683.3 184.75 689.79 188.67 678.92 201.43 672.61 197.16 683.3 184.75" fill="none" stroke="#93d6e2" stroke-miterlimit="10" stroke-width="0.5"/>
    <polygon points="696.46 170.33 702.94 174.25 692.07 187.01 685.76 182.73 696.46 170.33" fill="none" stroke="#93d6e2" stroke-miterlimit="10" stroke-width="0.5"/>
    <polygon points="691.12 189.31 697.6 193.23 686.74 205.98 680.43 201.71 691.12 189.31" fill="none" stroke="#93d6e2" stroke-miterlimit="10" stroke-width="0.5"/>
    <polygon points="703.89 175.16 710.37 179.08 699.5 191.84 693.2 187.56 703.89 175.16" fill="none" stroke="#93d6e2" stroke-miterlimit="10" stroke-width="0.5"/>
    <polygon points="584.81 114.46 595.51 123.89 563.81 168.03 551 159.58 584.81 114.46" fill="#145f66"/>
    <polygon points="601.06 119.64 617.12 102.09 622.19 88.44 645.78 70.35 641.01 54.93 612.48 77.05 606.5 92.53 588.36 110.19 601.06 119.64" fill="#145f66"/>
    <polygon points="559.32 172.35 548.68 164.3 522.46 211.09 534.52 219.13 559.32 172.35" fill="#145f66"/>
    <polygon points="519.11 222.46 532.51 226.92 529.83 253.1 513.08 252.95 519.11 222.46" fill="#145f66"/>
    <polygon points="513.08 257.35 526.48 263.36 522.8 288.06 517.1 295.47 507.72 296.71 513.08 257.35" fill="#145f66"/>
    <polygon points="773.75 -10.43 769.03 76.48 771.39 87.28 769.03 99.61 760.95 109.55 760.95 117.56 764.32 119.64 767.35 119.64 767.35 139.2 760.95 139.2 760.95 147.79 747.4 189.73 739.64 194.99 733.19 209.2 739.64 216.32 746.75 204.93 748.77 208.14 738.56 230.79 740.63 232.27 737.96 239.68 734.32 239.68 731.89 245.45 696.81 229.9 695.77 232.27 729.23 247.08 723.75 256.4 709.39 270.02 697.25 275.36 695.09 278.46 694.59 288.06 693.38 288.06 696.36 291.05 699.32 288.68 704.06 297.56 705.39 296.71 699.47 287.2 702.58 284.09 708.65 290.46 711.02 288.83 704.65 281.87 737.95 258.85 743.75 263.36 745.68 261.59 741.57 257.35 748.09 252.95 756.79 258.85 732.15 289.73 721.28 277.4 719.83 278.85 730.46 290.93 731.91 292.62 759.69 261.59 770.8 267.11 772.25 270.64 772.01 263.36 752.2 252.95 751.96 249.62 746.89 247.93 753.41 235.13 765.97 240.8 761.14 253.1 763.8 254.46 769.59 242.86 798.42 254.93 807.76 258.85 804.86 267.5 789.88 261.59 787.95 265.08 777.57 261.59 780.95 280.3 785.33 280.3 785.33 288.03 778.53 288.03 774.42 272.49 774.67 282.48 777.08 290.69 781.91 292.87 789.16 291.66 809.45 269.67 820.08 244.55 823.71 215.45 822.5 196.62 806.07 196.15 799.79 196.62 797.62 204.93 800.51 204.93 801.96 199.66 813.08 205.98 813.32 228.37 807.04 248.9 799.31 253.25 770.8 240.69 786.5 205.93 784.09 204.93 769.35 236.34 759.69 231.51 761.62 216.77 770.8 201.43 778.05 203.41 779.26 201.43 773.22 199.66 777.08 190.41 788.68 196.15 786.75 201.43 787.95 201.43 793.03 190.41 796.41 187.01 797.86 179.25 799.07 179.25 799.55 170.33 795.68 170.91 796.17 158.07 799.55 156.57 799.55 147.79 787.95 146.75 787.95 142.92 799.07 143.27 799.07 139.2 810.18 139.01 814.04 155.55 812.35 156.57 820.57 193.09 823.71 193.09 815.01 159.58 822.74 156.57 823.71 152.67 825.15 141.28 829.74 140.19 826.85 138.15 824.91 139.2 802.69 134.1 804.14 127.39 823.95 134.1 825.4 127.87 804.38 121.35 805.59 104.92 829.74 114.46 829.74 111.87 805.83 102.09 808.97 85.12 821.53 88.26 824.19 80.53 809.94 76.18 814.04 55.89 826.85 72.56 839.16 76.66 842.31 68.93 820.81 58.3 836.27 52.99 881.44 49.36 773.75 -10.43" fill="#145f66"/>
    <polygon points="693.38 295.47 689.84 291.01 652.68 315.2 644.12 325.28 640 327.79 649.88 339.19 693.38 295.47" fill="#145f66"/>
    <polygon points="617.12 354.63 563.81 397.7 568.57 403 563.81 406.98 559.63 404.33 555.32 408.63 555.32 413.94 548.68 408.63 546.71 410.62 555.65 417.91 538.75 434.48 540.41 434.48 570.56 409.3 556.98 441.11 522.52 449.72 522.52 455.35 544.72 449.06 551 451.04 543.39 472.96 561.95 472.96 574.21 443.42 591.77 450.05 585.8 443.75 575.53 440.11 582.82 423.88 629.45 364.24 617.12 354.63" fill="#145f66"/>
    <polygon points="724.08 179.94 730.35 183.5 734.32 178.67 727.89 175.16 724.08 179.94" fill="none" stroke="#93d6e2" stroke-miterlimit="10" stroke-width="0.5"/>
    <polygon points="729.2 174.38 735.47 177.94 739.44 173.11 733.01 169.6 729.2 174.38" fill="none" stroke="#93d6e2" stroke-miterlimit="10" stroke-width="0.5"/>
    <polygon points="734.32 168.64 740.59 172.2 744.56 167.37 738.13 163.86 734.32 168.64" fill="none" stroke="#93d6e2" stroke-miterlimit="10" stroke-width="0.5"/>
    <polygon points="738.44 162.18 744.71 165.74 748.68 160.91 742.25 157.4 738.44 162.18" fill="none" stroke="#93d6e2" stroke-miterlimit="10" stroke-width="0.5"/>
    <rect x="703.28" y="163.54" width="11.37" height="4.4" transform="translate(177.85 -332.28) rotate(30)" fill="none" stroke="#93d6e2" stroke-miterlimit="10"/>
    <rect x="706.14" y="158.58" width="11.37" height="4.4" transform="translate(175.76 -334.37) rotate(30)" fill="none" stroke="#93d6e2" stroke-miterlimit="10"/>
    <rect x="709.04" y="153.56" width="11.37" height="4.4" transform="translate(173.64 -336.49) rotate(30)" fill="none" stroke="#93d6e2" stroke-miterlimit="10"/>
    <rect x="708.41" y="184.94" width="11.48" height="11.48" rx="5.33" ry="5.33" transform="translate(225.14 -363.61) rotate(33.63)" fill="none" stroke="#93d6e2" stroke-miterlimit="10" stroke-width="1.5"/>
    <polygon points="711.83 179.94 727.12 188.28 711.83 208.94 696.37 199.76 711.83 179.94" fill="none" stroke="#93d6e2" stroke-miterlimit="10" stroke-width="0.5"/>
    <polygon points="696.37 201.43 687.19 212.43 704.93 222.46 711.75 210.47 696.37 201.43" fill="none" stroke="#93d6e2" stroke-miterlimit="10" stroke-width="0.5"/>
    <polygon points="712.69 211.94 707.38 222.46 714.15 226.47 719.84 215.93 712.69 211.94" fill="none" stroke="#93d6e2" stroke-miterlimit="10" stroke-width="0.5"/>
    <polygon points="722.17 217.97 715.96 227.77 724.08 232.05 729.2 222.46 722.17 217.97" fill="none" stroke="#93d6e2" stroke-miterlimit="10" stroke-width="0.5"/>
    <polygon points="724.94 215.93 730.45 219.21 731.9 215.93 727.12 213.07 724.94 215.93" fill="none" stroke="#93d6e2" stroke-miterlimit="10" stroke-width="0.5"/>
    <circle cx="683.3" cy="228.76" r="4.29" fill="none" stroke="#93d6e2" stroke-miterlimit="10" stroke-width="0.5"/>
    <polygon points="675.49 236.56 680.64 237.25 680.59 242.53 673.23 240.75 675.49 236.56" fill="none" stroke="#93d6e2" stroke-miterlimit="10" stroke-width="0.5"/>
    <polygon points="673.23 242.53 680.59 244.01 682.48 254.77 673.23 254.77 673.23 242.53" fill="none" stroke="#93d6e2" stroke-miterlimit="10" stroke-width="0.5"/>
    <polygon points="673.23 256.24 682.48 256.24 685.12 267.07 672 267.07 673.23 256.24" fill="none" stroke="#93d6e2" stroke-miterlimit="10" stroke-width="0.5"/>
    <polygon points="672 268.83 685.12 268.83 687.15 275.26 672 284.62 672 268.83" fill="none" stroke="#93d6e2" stroke-miterlimit="10" stroke-width="0.5"/>
    <polygon points="681.95 236.76 685.48 235.75 688.51 244.64 683.1 246.47 681.95 236.76" fill="none" stroke="#93d6e2" stroke-miterlimit="10" stroke-width="0.5"/>
    <polygon points="689.36 246.47 683.1 248.71 685.23 256.81 692.23 253.76 689.36 246.47" fill="none" stroke="#93d6e2" stroke-miterlimit="10" stroke-width="0.5"/>
    <polygon points="687.67 261.33 694.04 256.81 697.63 267.77 690.14 270.45 687.67 261.33" fill="none" stroke="#93d6e2" stroke-miterlimit="10" stroke-width="0.5"/>
    <polygon points="687.91 236.43 696.35 235.27 724.94 247.64 716.84 257.47 700.1 265.67 687.91 236.43" fill="none" stroke="#93d6e2" stroke-miterlimit="10" stroke-width="0.5"/>
    <polygon points="631.32 175.16 640 184.75 633.76 189.31 625.32 179.25 631.32 175.16" fill="none" stroke="#93d6e2" stroke-miterlimit="10" stroke-width="0.5"/>
    <polygon points="641.01 187.01 649.11 193.09 641.01 199.54 636.4 191.72 641.01 187.01" fill="none" stroke="#93d6e2" stroke-miterlimit="10" stroke-width="0.5"/>
    <polygon points="650.6 196.62 658.45 203.41 650.6 208.94 642.75 201.43 650.6 196.62" fill="none" stroke="#93d6e2" stroke-miterlimit="10" stroke-width="0.5"/>
    <polygon points="661.44 205.93 672 213.07 664.43 216.32 654.06 211.13 661.44 205.93" fill="none" stroke="#93d6e2" stroke-miterlimit="10" stroke-width="0.5"/>
    <polygon points="674.17 216.14 680.43 219.13 674.17 224.47 664.43 219.13 674.17 216.14" fill="none" stroke="#93d6e2" stroke-miterlimit="10" stroke-width="0.5"/>
    <polygon points="678.56 322.08 692.65 310.8 685.23 306.57 674.94 317.57 678.56 322.08" fill="none" stroke="#93d6e2" stroke-miterlimit="10" stroke-width="0.5"/>
    <polygon points="687.15 304.88 693.38 309.39 697.63 304.88 692.23 299.8 687.15 304.88" fill="none" stroke="#93d6e2" stroke-miterlimit="10" stroke-width="0.5"/>
    <polygon points="699.08 290.32 696.97 292.44 703.04 302.86 710.96 295.47 702.91 285.97 701.72 287.15 708.19 296.71 703.96 299.8 699.08 290.32" fill="none" stroke="#93d6e2" stroke-miterlimit="10" stroke-width="0.5"/>
    <polygon points="678.46 324.72 691.27 315.1 695.85 321 681.82 330.13 678.46 324.72" fill="none" stroke="#93d6e2" stroke-miterlimit="10" stroke-width="0.5"/>
    <polygon points="702.66 305.83 706.43 310.52 717.21 301.14 712.84 297.56 702.66 305.83" fill="none" stroke="#93d6e2" stroke-miterlimit="10" stroke-width="0.5"/>
    <polygon points="701.37 307.29 704.76 311.17 696.97 319.25 692.65 314.32 701.37 307.29" fill="none" stroke="#93d6e2" stroke-miterlimit="10" stroke-width="0.5"/>
    <polygon points="717.21 302.86 721.09 307.29 710.96 316.02 707.35 311.81 717.21 302.86" fill="none" stroke="#93d6e2" stroke-miterlimit="10" stroke-width="0.5"/>
    <polygon points="704.76 313.27 708.96 317.31 701.37 323.94 698.7 320.22 704.76 313.27" fill="none" stroke="#93d6e2" stroke-miterlimit="10" stroke-width="0.5"/>
    <polygon points="696.97 322.08 698.7 324.58 686.17 336.06 683.8 331.21 696.97 322.08" fill="none" stroke="#93d6e2" stroke-miterlimit="10" stroke-width="0.5"/>
    <polygon points="681.2 332.67 683.8 336.93 674.94 341.98 672 337.32 681.2 332.67" fill="none" stroke="#93d6e2" stroke-miterlimit="10" stroke-width="0.5"/>
    <polygon points="674.94 325.28 678.56 331.31 672 335.19 667.43 323.94 672.99 320.83 674.94 325.28" fill="none" stroke="#93d6e2" stroke-miterlimit="10" stroke-width="0.5"/>
    <polygon points="666.69 328.01 669.75 335.19 667.43 336.06 663.55 329.07 666.69 328.01" fill="none" stroke="#93d6e2" stroke-miterlimit="10" stroke-width="0.5"/>
    <polygon points="662.38 331.12 666.65 337.32 663.55 339.19 658.89 332.67 662.38 331.12" fill="none" stroke="#93d6e2" stroke-miterlimit="10" stroke-width="0.5"/>
    <polygon points="658.89 336.06 666.69 345.66 674.94 345.66 698.7 329.35 699.82 331.12 675.96 347.6 665.68 347.6 656.95 337.32 658.89 336.06" fill="none" stroke="#93d6e2" stroke-miterlimit="10" stroke-width="0.5"/>
    <polygon points="702.66 328.01 703.83 329.35 713.4 322.61 710.96 320.83 702.66 328.01" fill="none" stroke="#93d6e2" stroke-miterlimit="10" stroke-width="0.5"/>
    <polygon points="712.62 318.6 714.22 320.83 765.96 272.49 763.05 270.45 728.91 302.86 715.92 289.61 714.22 291.01 726.97 304.59 712.62 318.6" fill="none" stroke="#93d6e2" stroke-miterlimit="10" stroke-width="0.5"/>
    <polygon points="667.43 338.48 670.58 342.34 667.98 344.04 665.02 339.83 667.43 338.48" fill="none" stroke="#93d6e2" stroke-miterlimit="10" stroke-width="0.5"/>
    <polygon points="668.78 337.32 670.58 336.78 672.99 341.26 671.38 341.98 668.78 337.32" fill="none" stroke="#93d6e2" stroke-miterlimit="10" stroke-width="0.5"/>
    <polygon points="681.28 348.96 691.25 342.53 693.38 345.75 683.8 352.4 681.28 348.96" fill="none" stroke="#93d6e2" stroke-miterlimit="10" stroke-width="0.5"/>
    <polygon points="692.65 341.98 695.09 344.77 705.22 338.48 701.63 335.19 692.65 341.98" fill="none" stroke="#93d6e2" stroke-miterlimit="10" stroke-width="0.5"/>
    <polygon points="704.76 333.7 708.03 336.78 720.33 327.12 715.54 325.28 704.76 333.7" fill="none" stroke="#93d6e2" stroke-miterlimit="10" stroke-width="0.5"/>
    <polygon points="718.24 323.23 721.09 325.09 729.75 318.6 725.27 316.02 718.24 323.23" fill="none" stroke="#93d6e2" stroke-miterlimit="10" stroke-width="0.5"/>
    <polygon points="730.8 320.56 734.09 323.94 726.46 330.13 723.32 328.01 730.8 320.56" fill="none" stroke="#93d6e2" stroke-miterlimit="10" stroke-width="0.5"/>
    <polygon points="721.83 329.35 724 332.04 711.5 341.26 708.96 338.48 721.83 329.35" fill="none" stroke="#93d6e2" stroke-miterlimit="10" stroke-width="0.5"/>
    <polygon points="707.35 339.98 708.96 341.98 698.7 348.66 695.85 345.67 707.35 339.98" fill="none" stroke="#93d6e2" stroke-miterlimit="10" stroke-width="0.5"/>
    <polygon points="694.3 347.47 695.85 350.16 687.15 355.55 684.87 353.15 694.3 347.47" fill="none" stroke="#93d6e2" stroke-miterlimit="10" stroke-width="0.5"/>
    <polygon points="699.82 350.01 702.66 353.75 712.54 346.87 709.81 344.04 699.82 350.01" fill="none" stroke="#93d6e2" stroke-miterlimit="10" stroke-width="0.5"/>
    <polygon points="712.54 342.53 715.24 346.12 726.61 337.32 724 335.15 712.54 342.53" fill="none" stroke="#93d6e2" stroke-miterlimit="10" stroke-width="0.5"/>
    <polygon points="727.36 332.04 730.5 335.3 739.29 329.07 734.84 325.34 727.36 332.04" fill="none" stroke="#93d6e2" stroke-miterlimit="10" stroke-width="0.5"/>
    <polygon points="639.2 284.43 649.91 273.36 660.4 285.03 649.9 296.15 639.2 284.43" fill="none" stroke="#93d6e2" stroke-miterlimit="10"/>
    <rect x="635.45" y="271.59" width="10.32" height="5.52" transform="translate(-6.23 533.68) rotate(-45.03)" fill="none" stroke="#93d6e2" stroke-miterlimit="10" stroke-width="0.75"/>
    <line x1="657.23" y1="288.24" x2="660.83" y2="292.32" fill="none" stroke="#93d6e2" stroke-miterlimit="10" stroke-width="0.75"/>
    <line x1="653.35" y1="292.96" x2="656.57" y2="298.33" fill="none" stroke="#93d6e2" stroke-miterlimit="10" stroke-width="0.75"/>
    <polyline points="638.38 283.28 628.43 295.16 627.21 300.03 632.87 306.55 637.77 306.14 647.35 294.4" fill="none" stroke="#93d6e2" stroke-miterlimit="10"/>
    <line x1="658.41" y1="293.62" x2="662.15" y2="291.01" fill="none" stroke="#93d6e2" stroke-miterlimit="10"/>
    <line x1="654.72" y1="299.87" x2="658.41" y2="296.78" fill="none" stroke="#93d6e2" stroke-miterlimit="10"/>
    <polygon points="638.01 285.12 636.94 286.24 638.14 287.68 633.39 293.11 632.58 292.25 629.56 296.01 628.65 300.01 633.28 305.47 637.16 305.18 639.85 301.75 639 300.85 643.54 295.2 644.39 296.14 645.75 294.42 638.01 285.12" fill="none" stroke="#93d6e2" stroke-miterlimit="10" stroke-width="0.5"/>
    <line x1="643.91" y1="274.95" x2="646.22" y2="277.18" fill="none" stroke="#93d6e2" stroke-miterlimit="10" stroke-width="0.75"/>
    <polygon points="649.68 279.25 644.2 283.7 649.66 289.97 654.96 284.67 649.68 279.25" fill="#93d6e2"/>
    <g>
      <path d="M480,182.08a5.75,5.75,0,0,1,.63-1.73,6.31,6.31,0,0,0,2.59-2.6,7.15,7.15,0,0,0,1.15-3.66q0-1.56-1.93-2.13a4.19,4.19,0,0,1,1.94-1.11,6.14,6.14,0,0,0-1.28-2.95,2.93,2.93,0,0,0-2.28-1,3.74,3.74,0,0,0-1.33.26,6.9,6.9,0,0,0-1.47.8,5.87,5.87,0,0,1,.77-2.67,6.57,6.57,0,0,1,1.34-.52,5,5,0,0,1,1.28-.17,4.89,4.89,0,0,1,3.85,1.87,6.73,6.73,0,0,1,1.59,4.52,10.71,10.71,0,0,1-1.2,4.5,15.05,15.05,0,0,1-3,4.27,10.2,10.2,0,0,1,2-.2,11.41,11.41,0,0,1,3.72.61V174a17.06,17.06,0,0,1,.83-6,7.48,7.48,0,0,1,2.82-3.53,6.8,6.8,0,0,0,3.58,1.24,4.72,4.72,0,0,0,2.13-.49,8,8,0,0,1-.53,2.36,7,7,0,0,1-1.18.3,28.22,28.22,0,0,0-.8,6.59,10.64,10.64,0,0,0,.8,4.6,21.54,21.54,0,0,0,1.89-1.39l.43.57a20.66,20.66,0,0,0-3.19,3.73q-2.28-1.87-2.28-6.81a33.55,33.55,0,0,1,.73-7.28,6.41,6.41,0,0,1-2.12-.91,5.18,5.18,0,0,0-1.86,2.66,15.92,15.92,0,0,0-.56,4.74v6a4.55,4.55,0,0,0-1.47,1.63,10.91,10.91,0,0,0-3.77-.76A9.18,9.18,0,0,0,480,182.08Z" fill="#f8be3d"/>
      <path d="M503.73,181.91a6.52,6.52,0,0,1-2.7-1.48q-.58.85-.9,1.43l-1.75.9q1.18-1.46,2-2.59l.17-.23a5.2,5.2,0,0,1-1.22-3.42q0-2.42,2.7-4.47l.33-.26a8.91,8.91,0,0,0,1.34-1.19,5.29,5.29,0,0,1,2.53,1.43,12.1,12.1,0,0,0,.8-1.33l1.76-.84-.32.42Q507.17,172,507,172.2l-.23.27A5.3,5.3,0,0,1,508.1,176q0,2.44-2.78,4.54l-.42.32A7.6,7.6,0,0,0,503.73,181.91ZM502,178.09l3-4.25a6.89,6.89,0,0,0-2.23-1.57,3.92,3.92,0,0,0-1.59,3.23A4.67,4.67,0,0,0,502,178.09Zm3.42-3.77-3,4.25a6.26,6.26,0,0,0,2.31,1.7A4,4,0,0,0,506.3,177,4.52,4.52,0,0,0,505.39,174.32Z" fill="#f8be3d"/>
      <path d="M512.6,176v3.16a6.3,6.3,0,0,0,1.05,1,7.16,7.16,0,0,0-1.62,1.75,5.35,5.35,0,0,0-1.7-1.54,7,7,0,0,0,.33-2.07v-3.62a3.18,3.18,0,0,0-.46-1.92,5.39,5.39,0,0,0-1.43,1.45l-.5-.41a11,11,0,0,1,2.84-3.2,5.64,5.64,0,0,1,1.47,3.61,6.44,6.44,0,0,1,2.71-3.61,2.38,2.38,0,0,0,1.62,1,4.82,4.82,0,0,1-.92,2.18,3.51,3.51,0,0,1-1.45-.85A5.78,5.78,0,0,0,512.6,176Z" fill="#f8be3d"/>
      <path d="M520.89,176v3.16a6.3,6.3,0,0,0,1.05,1,7.16,7.16,0,0,0-1.62,1.75,5.35,5.35,0,0,0-1.7-1.54,7,7,0,0,0,.33-2.07v-3.62a3.18,3.18,0,0,0-.46-1.92,5.39,5.39,0,0,0-1.43,1.45l-.5-.41a11,11,0,0,1,2.84-3.2,5.64,5.64,0,0,1,1.47,3.61,6.44,6.44,0,0,1,2.71-3.61,2.38,2.38,0,0,0,1.62,1,4.82,4.82,0,0,1-.92,2.18,3.51,3.51,0,0,1-1.45-.85A5.78,5.78,0,0,0,520.89,176Z" fill="#f8be3d"/>
      <path d="M533.33,177.51a12.07,12.07,0,0,1-3.59,4.39,7.92,7.92,0,0,1-3-2.45,7,7,0,0,1-.75-3.61,12.41,12.41,0,0,1,.11-1.69,16.5,16.5,0,0,1,3.47-3.58,4.42,4.42,0,0,0,3.45,2l-.4,1.14a19.16,19.16,0,0,1-4.57,3.59,4,4,0,0,0,2.22,2.51,7.53,7.53,0,0,0,2.58-2.66Zm-5.47-1.13a16.45,16.45,0,0,0,3.39-2.54,6,6,0,0,1-2.78-1.48,5.72,5.72,0,0,0-.65,2.81Q527.81,175.58,527.86,176.38Z" fill="#f8be3d"/>
      <path d="M536.2,185.52V181a4.87,4.87,0,0,0-2.38.94l.41-1.27a5.16,5.16,0,0,1,2-1.09v-4.71a3.72,3.72,0,0,0-.47-2.1,4.54,4.54,0,0,0-1.43,1.42l-.49-.41a12.32,12.32,0,0,1,2.83-3.19,5.18,5.18,0,0,1,1.47,3.73,13.71,13.71,0,0,1,2.88-3.73,5.45,5.45,0,0,1,2.39,1.86,4.51,4.51,0,0,1,.87,2.69,6.75,6.75,0,0,1-2.12,4.78l-.47.48a10.92,10.92,0,0,0-1.09,1.29,8.9,8.9,0,0,0-2.46-.66v.12a11.49,11.49,0,0,1-1.42,4.64Zm1.92-6.15a9.36,9.36,0,0,1,2.95.65,6.36,6.36,0,0,0,1.27-3.84,3.43,3.43,0,0,0-1.87-3.35,11.42,11.42,0,0,0-2.34,2.49Z" fill="#f8be3d"/>
      <path d="M549.66,181.91a5.78,5.78,0,0,1-3.14-2,5.29,5.29,0,0,1-1.23-3.42q0-2.4,2.7-4.45l.33-.26a8.32,8.32,0,0,0,1.34-1.19,6.17,6.17,0,0,1,3.17,2.07A5.24,5.24,0,0,1,554,176q0,2.4-2.78,4.5l-.42.32A7.65,7.65,0,0,0,549.66,181.91Zm.92-1.64a4,4,0,0,0,1.64-3.29,4.52,4.52,0,0,0-1-2.77,6,6,0,0,0-2.58-1.94,3.8,3.8,0,0,0-1.59,3.22,4.67,4.67,0,0,0,.93,2.81A5.94,5.94,0,0,0,550.58,180.27Z" fill="#f8be3d"/>
      <path d="M558.52,176v3.16a6.3,6.3,0,0,0,1.05,1,7.16,7.16,0,0,0-1.62,1.75,5.35,5.35,0,0,0-1.7-1.54,7,7,0,0,0,.33-2.07v-3.62a3.18,3.18,0,0,0-.46-1.92,5.39,5.39,0,0,0-1.43,1.45l-.5-.41a11,11,0,0,1,2.84-3.2,5.64,5.64,0,0,1,1.47,3.61,6.44,6.44,0,0,1,2.71-3.61,2.38,2.38,0,0,0,1.62,1,4.82,4.82,0,0,1-.92,2.18,3.51,3.51,0,0,1-1.45-.85A5.78,5.78,0,0,0,558.52,176Z" fill="#f8be3d"/>
      <path d="M567.2,181.91a4.76,4.76,0,0,1-1.84-2,8.25,8.25,0,0,1-.53-3.28V172h-.19a6.35,6.35,0,0,0-2.15.34,4.62,4.62,0,0,1,.57-1.39,8.36,8.36,0,0,1,1.48-.16h.28v-.13a3.93,3.93,0,0,1,.83-2.26,7.57,7.57,0,0,1,2.22-2l.35.56a4.37,4.37,0,0,0-1.46,3.54v.32h.72A21.41,21.41,0,0,1,570,171a3.19,3.19,0,0,0-.69,1.26,14.26,14.26,0,0,0-2.09-.21h-.43v3.75a5.28,5.28,0,0,0,1.11,3.69,5.89,5.89,0,0,0,2.1-1.77l.5.31A15.65,15.65,0,0,1,567.2,181.91Z" fill="#f8be3d"/>
    </g>
    <g>
      <path d="M478.88,318.21a11,11,0,0,1-5.37-4.56,16.58,16.58,0,0,0,.37-2,16.21,16.21,0,0,0,.12-1.93,15.86,15.86,0,0,0-1.24-6.24,9.58,9.58,0,0,0-1.67,1.88l-.61-.36a11.7,11.7,0,0,1,3.36-4.26,11.81,11.81,0,0,1,1.81,3.92,12.56,12.56,0,0,1,5.1-3.92q4.55,2.7,4.55,7.36,0,4.87-4.44,8.29l-.64.51A7.63,7.63,0,0,0,478.88,318.21Zm1-2a8.89,8.89,0,0,0,2.94-6.93,7.33,7.33,0,0,0-3.36-6.3,12,12,0,0,0-3.62,2.45,22,22,0,0,1,.46,4.65q0,.66-.07,1.47t-.22,1.73A14.33,14.33,0,0,0,479.92,316.22Z" fill="#f8be3d"/>
      <path d="M494.49,313.64a12.07,12.07,0,0,1-3.59,4.39,7.92,7.92,0,0,1-3-2.45,7,7,0,0,1-.75-3.61,12.41,12.41,0,0,1,.11-1.69,16.5,16.5,0,0,1,3.47-3.58,4.42,4.42,0,0,0,3.45,2l-.4,1.14a19.16,19.16,0,0,1-4.57,3.59,4,4,0,0,0,2.22,2.51,7.53,7.53,0,0,0,2.58-2.66ZM489,312.51a16.45,16.45,0,0,0,3.39-2.54,6,6,0,0,1-2.78-1.48,5.72,5.72,0,0,0-.65,2.81Q489,311.71,489,312.51Z" fill="#f8be3d"/>
      <path d="M498.71,318a3.26,3.26,0,0,0-2.9-2.14,2.2,2.2,0,0,0-.78.16,4,4,0,0,1,1-1.87,4.36,4.36,0,0,1,3.89,2.42,3.18,3.18,0,0,0,1.34-2.66,2.34,2.34,0,0,0-.36-1.34,2.1,2.1,0,0,0-1.09-.79l-1.11,1.07-.41,0a2.25,2.25,0,0,1-1.88-.91,4,4,0,0,1-.69-2.46,7.81,7.81,0,0,1,3-2.85,4.58,4.58,0,0,0,1,.4,3.52,3.52,0,0,0,1,.14,3.67,3.67,0,0,0,1-.14,4.34,4.34,0,0,0,1-.4,3.9,3.9,0,0,1-.89,1.75,4.24,4.24,0,0,1-.9.32,4.09,4.09,0,0,1-.94.11,3.54,3.54,0,0,1-1.16-.19,4.24,4.24,0,0,1-1.1-.58,2.14,2.14,0,0,0-.24,1.08q0,2,1.83,2l1-1a3.12,3.12,0,0,1,2.15.84,3,3,0,0,1,.72,2.18,6.13,6.13,0,0,1-.57,2.54,9.94,9.94,0,0,1-1.72,1l-.51.24A6.16,6.16,0,0,0,498.71,318Z" fill="#f8be3d"/>
      <path d="M507.91,318a4.76,4.76,0,0,1-1.84-2,8.25,8.25,0,0,1-.53-3.28v-4.57h-.19a6.35,6.35,0,0,0-2.15.34,4.62,4.62,0,0,1,.57-1.39,8.36,8.36,0,0,1,1.48-.16h.28v-.13a3.93,3.93,0,0,1,.83-2.26,7.57,7.57,0,0,1,2.22-2l.35.56a4.37,4.37,0,0,0-1.46,3.54V307h.72a21.41,21.41,0,0,1,2.49.16,3.19,3.19,0,0,0-.69,1.26,14.26,14.26,0,0,0-2.09-.21h-.43v3.75a5.28,5.28,0,0,0,1.11,3.69,5.89,5.89,0,0,0,2.1-1.77l.5.31A15.65,15.65,0,0,1,507.91,318Z" fill="#f8be3d"/>
      <path d="M519.47,313.64a12.07,12.07,0,0,1-3.59,4.39,7.92,7.92,0,0,1-3-2.45,7,7,0,0,1-.75-3.61,12.41,12.41,0,0,1,.11-1.69,16.5,16.5,0,0,1,3.47-3.58,4.42,4.42,0,0,0,3.45,2l-.4,1.14a19.16,19.16,0,0,1-4.57,3.59,4,4,0,0,0,2.22,2.51,7.53,7.53,0,0,0,2.58-2.66ZM514,312.51a16.45,16.45,0,0,0,3.39-2.54,6,6,0,0,1-2.78-1.48,5.72,5.72,0,0,0-.65,2.81Q514,311.71,514,312.51Z" fill="#f8be3d"/>
      <path d="M524,312.1v3.16a6.3,6.3,0,0,0,1.05,1A7.16,7.16,0,0,0,523.4,318a5.35,5.35,0,0,0-1.7-1.54,7,7,0,0,0,.33-2.07V310.8a3.18,3.18,0,0,0-.46-1.92,5.39,5.39,0,0,0-1.43,1.45l-.5-.41a11,11,0,0,1,2.84-3.2,5.64,5.64,0,0,1,1.47,3.61,6.44,6.44,0,0,1,2.71-3.61,2.38,2.38,0,0,0,1.62,1,4.82,4.82,0,0,1-.92,2.18,3.51,3.51,0,0,1-1.45-.85A5.78,5.78,0,0,0,524,312.1Z" fill="#f8be3d"/>
      <path d="M530.63,321.65v-4.52a4.87,4.87,0,0,0-2.38.94l.41-1.27a5.16,5.16,0,0,1,2-1.09V311a3.72,3.72,0,0,0-.47-2.1,4.54,4.54,0,0,0-1.43,1.42l-.49-.41a12.32,12.32,0,0,1,2.83-3.19,5.18,5.18,0,0,1,1.47,3.73,13.71,13.71,0,0,1,2.88-3.73,5.45,5.45,0,0,1,2.39,1.86,4.51,4.51,0,0,1,.87,2.69,6.75,6.75,0,0,1-2.12,4.78l-.47.48a10.92,10.92,0,0,0-1.09,1.29,8.9,8.9,0,0,0-2.46-.66v.12a11.49,11.49,0,0,1-1.42,4.64Zm1.92-6.15a9.36,9.36,0,0,1,2.95.65,6.36,6.36,0,0,0,1.27-3.84A3.43,3.43,0,0,0,534.9,309a11.42,11.42,0,0,0-2.34,2.49Z" fill="#f8be3d"/>
      <path d="M544.09,318a5.78,5.78,0,0,1-3.14-2,5.29,5.29,0,0,1-1.23-3.42q0-2.4,2.7-4.45l.33-.26a8.32,8.32,0,0,0,1.34-1.19,6.17,6.17,0,0,1,3.17,2.07,5.24,5.24,0,0,1,1.2,3.37q0,2.4-2.78,4.5l-.42.32A7.65,7.65,0,0,0,544.09,318Zm.92-1.64a4,4,0,0,0,1.64-3.29,4.52,4.52,0,0,0-1-2.77,6,6,0,0,0-2.58-1.94,3.8,3.8,0,0,0-1.59,3.22,4.67,4.67,0,0,0,.93,2.81A5.94,5.94,0,0,0,545,316.4Z" fill="#f8be3d"/>
      <path d="M553,312.1v3.16a6.3,6.3,0,0,0,1.05,1,7.16,7.16,0,0,0-1.62,1.75,5.35,5.35,0,0,0-1.7-1.54,7,7,0,0,0,.33-2.07V310.8a3.18,3.18,0,0,0-.46-1.92,5.39,5.39,0,0,0-1.43,1.45l-.5-.41a11,11,0,0,1,2.84-3.2,5.64,5.64,0,0,1,1.47,3.61,6.44,6.44,0,0,1,2.71-3.61,2.38,2.38,0,0,0,1.62,1,4.82,4.82,0,0,1-.92,2.18,3.51,3.51,0,0,1-1.45-.85A5.78,5.78,0,0,0,553,312.1Z" fill="#f8be3d"/>
      <path d="M561.63,318a4.76,4.76,0,0,1-1.84-2,8.25,8.25,0,0,1-.53-3.28v-4.57h-.19a6.35,6.35,0,0,0-2.15.34,4.62,4.62,0,0,1,.57-1.39A8.36,8.36,0,0,1,559,307h.28v-.13a3.93,3.93,0,0,1,.83-2.26,7.57,7.57,0,0,1,2.22-2l.35.56a4.37,4.37,0,0,0-1.46,3.54V307h.72a21.41,21.41,0,0,1,2.49.16,3.19,3.19,0,0,0-.69,1.26,14.26,14.26,0,0,0-2.09-.21h-.43v3.75a5.28,5.28,0,0,0,1.11,3.69,5.89,5.89,0,0,0,2.1-1.77l.5.31A15.65,15.65,0,0,1,561.63,318Z" fill="#f8be3d"/>
    </g>
    <g>
      <path d="M632.63,90.34a7.35,7.35,0,0,1-2.09.26A8.64,8.64,0,0,1,626,89.31q-.22.38-.83,1.3-.21.33-.65,1.13l-2.59,1.46q1.08-1.48,3.32-4.41a9.23,9.23,0,0,1-3.65-7.43,13.06,13.06,0,0,1,.66-4.05,17.11,17.11,0,0,1,4.4-3.43v-2l1.25-.71a23.31,23.31,0,0,0-.55,4.88v.57a14.15,14.15,0,0,1,3.39-3.54,9.12,9.12,0,0,1,4.55,1.2q.7-1.19,1-1.87l2.62-1.34L636,74.86A8.24,8.24,0,0,1,638.83,81a11.4,11.4,0,0,1-.73,3.93,12.88,12.88,0,0,1-2,1.65q-.26.19-.66.53l-.45.38A10,10,0,0,0,632.63,90.34Zm-6-3.52V74.64A8.38,8.38,0,0,0,624,81.2,8,8,0,0,0,626.64,86.81Zm.7-1,6.49-9.38a4.92,4.92,0,0,0-2.86-1q-1.92,0-3.63,2.41Zm0,1.48a6.47,6.47,0,0,0,3.57,1.18,5.06,5.06,0,0,0,4-1.81,6.75,6.75,0,0,0,1.58-4.6,7.19,7.19,0,0,0-2-5.06Z" fill="#f8be3d"/>
      <path d="M643.12,90.42a3.26,3.26,0,0,0-2.9-2.14,2.2,2.2,0,0,0-.78.16,4,4,0,0,1,1-1.87A4.36,4.36,0,0,1,644.35,89a3.18,3.18,0,0,0,1.34-2.66,2.34,2.34,0,0,0-.36-1.34,2.1,2.1,0,0,0-1.09-.79l-1.11,1.07-.41,0a2.25,2.25,0,0,1-1.88-.91,4,4,0,0,1-.69-2.46,7.81,7.81,0,0,1,3-2.85,4.58,4.58,0,0,0,1,.4,3.52,3.52,0,0,0,1,.14,3.67,3.67,0,0,0,1-.14,4.34,4.34,0,0,0,1-.4,3.9,3.9,0,0,1-.89,1.75,4.24,4.24,0,0,1-.9.32,4.09,4.09,0,0,1-.94.11,3.54,3.54,0,0,1-1.16-.19,4.24,4.24,0,0,1-1.1-.58,2.14,2.14,0,0,0-.24,1.08q0,2,1.83,2l1-1a3.12,3.12,0,0,1,2.15.84,3,3,0,0,1,.72,2.18,6.13,6.13,0,0,1-.57,2.54,9.94,9.94,0,0,1-1.72,1l-.51.24A6.16,6.16,0,0,0,643.12,90.42Z" fill="#f8be3d"/>
      <path d="M652.32,90.42a4.76,4.76,0,0,1-1.84-2,8.25,8.25,0,0,1-.53-3.28V80.54h-.19a6.35,6.35,0,0,0-2.15.34,4.62,4.62,0,0,1,.57-1.39,8.36,8.36,0,0,1,1.48-.16H650v-.13a3.93,3.93,0,0,1,.83-2.26,7.57,7.57,0,0,1,2.22-2l.35.56A4.37,4.37,0,0,0,651.89,79v.32h.72a21.41,21.41,0,0,1,2.49.16,3.19,3.19,0,0,0-.69,1.26,14.26,14.26,0,0,0-2.09-.21h-.43v3.75A5.28,5.28,0,0,0,653,88a5.89,5.89,0,0,0,2.1-1.77l.5.31A15.65,15.65,0,0,1,652.32,90.42Z" fill="#f8be3d"/>
      <path d="M663.88,86a12.07,12.07,0,0,1-3.59,4.39,7.92,7.92,0,0,1-3-2.45,7,7,0,0,1-.75-3.61,12.41,12.41,0,0,1,.11-1.69,16.5,16.5,0,0,1,3.47-3.58,4.42,4.42,0,0,0,3.45,2l-.4,1.14a19.16,19.16,0,0,1-4.57,3.59,4,4,0,0,0,2.22,2.51,7.53,7.53,0,0,0,2.58-2.66Zm-5.47-1.13a16.45,16.45,0,0,0,3.39-2.54A6,6,0,0,1,659,80.87a5.72,5.72,0,0,0-.65,2.81Q658.36,84.1,658.41,84.9Z" fill="#f8be3d"/>
      <path d="M668.38,84.49v3.16a6.3,6.3,0,0,0,1.05,1,7.16,7.16,0,0,0-1.62,1.75,5.35,5.35,0,0,0-1.7-1.54,7,7,0,0,0,.33-2.07V83.19a3.18,3.18,0,0,0-.46-1.92,5.39,5.39,0,0,0-1.43,1.45l-.5-.41a11,11,0,0,1,2.84-3.2,5.64,5.64,0,0,1,1.47,3.61,6.44,6.44,0,0,1,2.71-3.61,2.38,2.38,0,0,0,1.62,1,4.82,4.82,0,0,1-.92,2.18,3.51,3.51,0,0,1-1.45-.85A5.78,5.78,0,0,0,668.38,84.49Z" fill="#f8be3d"/>
      <path d="M675,94V89.52a4.87,4.87,0,0,0-2.38.94l.41-1.27a5.16,5.16,0,0,1,2-1.09V83.38a3.72,3.72,0,0,0-.47-2.1,4.54,4.54,0,0,0-1.43,1.42l-.49-.41a12.32,12.32,0,0,1,2.83-3.19A5.18,5.18,0,0,1,677,82.83a13.71,13.71,0,0,1,2.88-3.73A5.45,5.45,0,0,1,682.23,81a4.51,4.51,0,0,1,.87,2.69A6.75,6.75,0,0,1,681,88.41l-.47.48a10.92,10.92,0,0,0-1.09,1.29,8.9,8.9,0,0,0-2.46-.66v.12a11.49,11.49,0,0,1-1.42,4.64ZM677,87.88a9.36,9.36,0,0,1,2.95.65,6.36,6.36,0,0,0,1.27-3.84,3.43,3.43,0,0,0-1.87-3.35A11.42,11.42,0,0,0,677,83.84Z" fill="#f8be3d"/>
      <path d="M688.5,90.42a5.78,5.78,0,0,1-3.14-2A5.29,5.29,0,0,1,684.13,85q0-2.4,2.7-4.45l.33-.26a8.32,8.32,0,0,0,1.34-1.19,6.17,6.17,0,0,1,3.17,2.07,5.24,5.24,0,0,1,1.2,3.37q0,2.4-2.78,4.5l-.42.32A7.65,7.65,0,0,0,688.5,90.42Zm.92-1.64a4,4,0,0,0,1.64-3.29,4.52,4.52,0,0,0-1-2.77,6,6,0,0,0-2.58-1.94A3.8,3.8,0,0,0,685.94,84a4.67,4.67,0,0,0,.93,2.81A5.94,5.94,0,0,0,689.42,88.78Z" fill="#f8be3d"/>
      <path d="M697.37,84.49v3.16a6.3,6.3,0,0,0,1.05,1,7.16,7.16,0,0,0-1.62,1.75,5.35,5.35,0,0,0-1.7-1.54,7,7,0,0,0,.33-2.07V83.19a3.18,3.18,0,0,0-.46-1.92,5.39,5.39,0,0,0-1.43,1.45l-.5-.41a11,11,0,0,1,2.84-3.2,5.64,5.64,0,0,1,1.47,3.61,6.44,6.44,0,0,1,2.71-3.61,2.38,2.38,0,0,0,1.62,1,4.82,4.82,0,0,1-.92,2.18,3.51,3.51,0,0,1-1.45-.85A5.78,5.78,0,0,0,697.37,84.49Z" fill="#f8be3d"/>
      <path d="M706,90.42a4.76,4.76,0,0,1-1.84-2,8.25,8.25,0,0,1-.53-3.28V80.54h-.19a6.35,6.35,0,0,0-2.15.34,4.62,4.62,0,0,1,.57-1.39,8.36,8.36,0,0,1,1.48-.16h.28v-.13A3.93,3.93,0,0,1,704.5,77a7.57,7.57,0,0,1,2.22-2l.35.56A4.37,4.37,0,0,0,705.61,79v.32h.72a21.41,21.41,0,0,1,2.49.16,3.19,3.19,0,0,0-.69,1.26,14.26,14.26,0,0,0-2.09-.21h-.43v3.75A5.28,5.28,0,0,0,706.72,88a5.89,5.89,0,0,0,2.1-1.77l.5.31A15.65,15.65,0,0,1,706,90.42Z" fill="#f8be3d"/>
    </g>
  </g>
</svg>
