<svg id="streg" xmlns="http://www.w3.org/2000/svg" width="1199.95" height="539.09" viewBox="0 0 1199.95 539.09">
  <title>overlaykbh</title>
  <polygon points="695.14 201.54 704.38 198.46 708.88 202.96 717.15 202.41 715.98 193.01 711.12 188.89 711.14 179.26 715.98 175.72 715.98 167.19 707.69 167.19 703.9 171.22 694.9 168.14 694.9 165.06 685.19 158.66 683.77 168.38 685.43 171.46 683.29 179.27 677 178.64 671.45 184.01 676.66 191.11 682.35 191.35 686.37 197.27 684.01 201.3 684.72 209.35 693.01 207.93 695.14 201.54" fill="none" stroke="#47a8a5" stroke-miterlimit="10"/>
  <polyline points="655.07 185.77 641.52 198.55 623.32 203.2 593.5 229.53 565.61 256.25 543.15 286.85 523.79 314.73 540.05 344.16 593.5 391.41" fill="none" stroke="#93d6e2" stroke-miterlimit="10"/>
  <polyline points="598.14 395.67 624.48 417.36 658.17 428.59 680.24 426.65 701.54 419.29 725.94 408.06 745.3 392.96 745.3 387.92 764.67 372.82 784.42 347.65 795.65 322.48 801.85 291.11 801.85 255.87" fill="none" stroke="#93d6e2" stroke-miterlimit="10"/>
  <path d="M803.86,256.54l.47,8.84,4.54.58,3.84,5.21-4,5.73h-3.26l-.23,19.31,3.61.58,3.28,6.8-5.26,4.72h-2.09l-6.17,19.2,3.22,2.09v8.84L796,341.12l-2.44-1s-9.07,15.47-9.89,15.82,1.75,3.49,1.75,3.49l-1.4,6h-5.24l-2-1.4-5.93,8.26,1.13,2.32-1.13,7.18H764.5L762.84,379l-9.95,7.18v7.18L745.3,393" fill="none" stroke="#47a8a5" stroke-miterlimit="10"/>
  <polyline points="745.3 391.41 750.96 391.41 750.96 385.85 762.8 376.69 765.33 380.49 769.44 380.49 770.38 374.48 768.8 372.43 776.7 361.53 779 363.59 783.18 363.59 783.65 359.64 781.44 356 792.65 337.84 795.97 339.42 800.39 336.74 799.92 330.26 796.76 328.21 804.02 306.41 806.95 306.41 810.4 303.01 808 298.26 804.02 297.88 804.02 274.83 807.81 274.83 810.4 271.18 807.99 267.19 804.02 266.93 804.26 264.03" fill="none" stroke="#47a8a5" stroke-miterlimit="10" stroke-width="0.5"/>
  <polyline points="743.22 395.48 745.83 397.94 728.17 411.54 729.63 413.92 727.09 419.91 720.33 418.22 718.18 414.61 698.44 423.98 699.51 427.9 694.6 432.89 687.3 430.2 687.3 426.75 669.25 431.05 669.25 435.43 661.8 438.88 656.11 434.27 656.11 430.2 641.9 427.44 639.9 433.12 632.91 434.97 630.15 428.59 632.68 423.6 621.62 419.91 618.86 424.67 610.79 424.6 609.79 417.91 612.71 414.38 606.26 408.69 602.96 411.84 593.74 412.15 593.74 404.01 597.5 399.55" fill="none" stroke="#47a8a5" stroke-miterlimit="10" stroke-width="0.5"/>
  <polyline points="813.87 271.06 826.79 279.14 823.29 319.78 826.79 326.24 820.33 329.74 813.87 362.84 815.49 370.38 810.4 370.38 786.69 399.18 786.69 405.63 779.96 405.63 740.4 435.51 740.4 443.05 732.86 438.88 692.49 446.01 690.61 453 683.07 447.62 651.04 450.04 645.39 454.62 643.24 448.43 614.17 443.05 606.1 447.08 606.1 440.42 578.11 419.36 572.46 419.63 575.95 413.17 593.74 397.29 596.45 399.23 592.53 403.52 592.53 413.52 603.49 413.28 606.58 410.42 611.1 414.71 608.72 417.6 609.91 425.9 619.44 425.9 622.53 421.37 631.1 424.23 628.96 428.59 632.29 436.37 640.62 434.23 642.77 428.59 655.07 431.13 655.07 435.18 661.34 440.42 670.38 436.61 670.38 431.85 686.1 428.59 686.1 431.37 694.67 434.47 701.09 428.59 699.99 424.47 717.76 416.37 719.42 419.23 727.52 421.85 731.09 413.99 729.9 411.85 747.99 398.28 744.27 394.77" fill="none" stroke="#47a8a5" stroke-miterlimit="10"/>
  <polyline points="813.36 272.07 825 279.72 821.65 321.34 824.05 324.98 819.18 328.35 811.93 363.75 813.68 368.69 810.4 368.69 784.98 398.99 784.98 403.77 779.72 403.77 738.58 434.71 738.58 439.81 733.32 436.3 691.22 443.96 689.63 449.86 683.41 445.55 650.08 448.1 646.41 451.13 644.82 446.83 614.04 441.09 607.51 444.6 607.51 438.88 578.49 417.18 574.66 417.97 577.85 413.66 593.74 398.99" fill="none" stroke="#93d6e2" stroke-miterlimit="10" stroke-width="0.5"/>
  <polyline points="693.17 165.74 693.17 169.74 703.63 173.23 706.73 170.26" fill="none" stroke="#93d6e2" stroke-miterlimit="10" stroke-width="0.5"/>
  <polyline points="712.54 175.69 709.32 178.27 709.32 189.64 712.03 191.71" fill="none" stroke="#93d6e2" stroke-miterlimit="10" stroke-width="0.5"/>
  <polyline points="707.38 199.2 704.66 196.49 693.17 200.62 691.88 205.14" fill="none" stroke="#93d6e2" stroke-miterlimit="10" stroke-width="0.5"/>
  <polyline points="686.06 200.23 687.87 197.26 682.83 190.03 680.25 190.03" fill="none" stroke="#93d6e2" stroke-miterlimit="10" stroke-width="0.5"/>
  <polyline points="685.68 168.97 687.1 171.68 684.64 180.6 681.54 180.6" fill="none" stroke="#93d6e2" stroke-miterlimit="10" stroke-width="0.5"/>
  <polyline points="700.91 167.28 700.91 163.63 704.56 163.63 703.49 158.66 699.63 159.99 686.11 153.77 686.11 150.55 681.54 148.84 681.54 153.77 684.06 154.63 680.25 168.14 676.68 168.14 676.68 173.23 667.45 182.72 664.45 181.87 664.45 183.7 659.73 185.77 664.45 187.23 664.45 190.03 668.1 187.87 675.18 195.13 673.67 200.23 677.75 200.81 681.54 212.06 678.48 214.82 680.8 219.7 685.48 217.26 684.78 213.35 695.34 210.6 697.05 213.82 702.41 211.25 699.63 207.82 699.63 201.81" fill="none" stroke="#93d6e2" stroke-miterlimit="10" stroke-width="0.5"/>
  <polyline points="655.07 184.01 650.17 178 635.72 178 633.7 190.03 639.41 195.13 623.28 198.51 620.25 195.13 608.15 195.13 606.81 204.56 610.51 208.93 598.14 219.7 593.36 214.64 580.25 214.64 578.24 228.09 583.62 232.79 570.17 245.9 566.13 242.54 551.01 242.54 549.66 255.87 555.72 260.36 545.29 275.15 539.92 272.07 528.15 274.14 528.82 288.59 534.87 291.28 526.81 304.39 520.42 304.39 508.65 311.12 515.19 321.68 523.79 321.68 527.69 331.27 521.14 335.2 519.83 345.52 528.67 349.78 536.21 345.52 542.11 351.58 534.9 355.84 534.08 366.82 545.22 368.13 551.94 363.54 560.13 371.08 553.41 375.67 554.07 386.64 564.88 388.12 571.6 382.38 578.64 388.12 572.46 394.51 574.66 408.11 589.43 395.48" fill="none" stroke="#47a8a5" stroke-miterlimit="10"/>
  <polyline points="589.43 393.2 575.69 405.32 573.89 394.67 580.61 387.96 571.43 380.42 564.39 386.32 555.38 384.51 554.72 376.81 562.59 370.92 551.61 360.92 544.4 366.17 536.05 364.85 536.05 356.99 544.57 352.24 536.05 343.39 529.16 347.49 521.46 344.54 522.28 336.18 529.98 331.43 524.58 320.29 516.88 320.29 510.98 311.61 520.81 305.87 527.53 305.87 537.03 290.64 530.31 287.52 529.82 275.4 539.32 273.76 546.04 276.87 557.84 259.83 551.45 255.08 551.94 243.94 564.72 243.94 570.12 248.2 585.85 232.31 579.63 226.74 581.86 216.25 591.91 216.25 598.14 222.31 612.72 208.72 608.3 203.97 609.45 196.26 619.44 196.26 622.72 200.03 642.21 195.45 635.17 188.89 636.81 179.88 648.93 179.88 653.35 184.27" fill="none" stroke="#47a8a5" stroke-miterlimit="10" stroke-width="0.5"/>
  <polygon points="618.88 184.42 625.43 180.82 625.29 172.76 613.53 168.22 611.41 180.5 618.88 184.42" fill="none" stroke="#93d6e2" stroke-miterlimit="10" stroke-width="0.5"/>
  <polygon points="539.83 297.26 526.08 313.97 529.25 319.96 551.82 310.79 539.83 297.26" fill="none" stroke="#93d6e2" stroke-miterlimit="10" stroke-width="0.5"/>
  <polygon points="552.72 314.57 559.42 321.27 543.91 341.01 531.22 323.38 552.72 314.57" fill="none" stroke="#93d6e2" stroke-miterlimit="10" stroke-width="0.5"/>
  <polygon points="562.63 324.01 572.26 333.53 560.28 354.2 546.18 343.75 562.63 324.01" fill="none" stroke="#93d6e2" stroke-miterlimit="10" stroke-width="0.5"/>
  <polygon points="573.19 338.42 561.79 356.62 567.49 363.1 582.13 341.53 573.19 338.42" fill="none" stroke="#93d6e2" stroke-miterlimit="10" stroke-width="0.5"/>
  <polygon points="575.54 334.97 582.41 337.79 592.46 330.56 586.82 325.81 575.54 334.97" fill="none" stroke="#93d6e2" stroke-miterlimit="10" stroke-width="0.5"/>
  <polygon points="571.09 329.77 581.92 322.72 579.66 308.02 562.99 320.22 571.09 329.77" fill="none" stroke="#93d6e2" stroke-miterlimit="10" stroke-width="0.5"/>
  <polygon points="555.16 310.18 561.37 318.35 576.09 307.81 577.72 297.62 572.82 297.26 555.16 310.18" fill="none" stroke="#93d6e2" stroke-miterlimit="10" stroke-width="0.5"/>
  <polygon points="553.04 308.61 541.76 295.78 563.78 269.83 570.5 294.08 553.04 308.61" fill="none" stroke="#93d6e2" stroke-miterlimit="10" stroke-width="0.5"/>
  <rect x="646.16" y="199.58" width="28.5" height="1.82" transform="translate(188.72 -303.34) rotate(30)" fill="#93d6e2"/>
  <rect x="649.11" y="196.91" width="25.31" height="1.82" transform="translate(187.57 -304.38) rotate(30)" fill="#93d6e2"/>
  <rect x="644.64" y="203.2" width="30.46" height="2.16" transform="translate(190.55 -302.57) rotate(30)" fill="#93d6e2"/>
  <rect x="642.84" y="206.33" width="30.46" height="2.16" transform="translate(191.87 -301.25) rotate(30)" fill="#93d6e2"/>
  <rect x="641.12" y="209.3" width="30.46" height="2.16" transform="translate(193.13 -299.99) rotate(30)" fill="#93d6e2"/>
  <rect x="639.1" y="211.8" width="30.46" height="2.16" transform="translate(194.11 -298.64) rotate(30)" fill="#93d6e2"/>
  <rect x="637.39" y="214.76" width="30.46" height="2.16" transform="translate(195.36 -297.39) rotate(30)" fill="#93d6e2"/>
  <rect x="635.69" y="217.72" width="30.46" height="2.16" transform="translate(196.61 -296.14) rotate(30)" fill="#93d6e2"/>
  <rect x="633.44" y="220.6" width="30.46" height="2.16" transform="translate(197.75 -294.64) rotate(30)" fill="#93d6e2"/>
  <polygon points="656.35 191.46 654.33 201.59 653.35 209.35 654.97 227.34 653.27 226.76 652.4 209.35 655.07 191.46 656.35 191.46" fill="#fff"/>
  <polygon points="633.42 217.27 650.91 227.48 645.1 234.17 628.2 223.23 633.42 217.27" fill="none" stroke="#93d6e2" stroke-miterlimit="10" stroke-width="0.5"/>
  <polygon points="625.43 205.14 634.77 210.38 627.26 222.7 614.04 213.92 625.43 205.14" fill="none" stroke="#93d6e2" stroke-miterlimit="10" stroke-width="0.5"/>
  <polygon points="627.04 204.63 635.58 209.05 641.25 201.61 636.01 201.61 627.04 204.63" fill="none" stroke="#93d6e2" stroke-miterlimit="10" stroke-width="0.5"/>
  <polygon points="651.49 228.7 657.98 232.62 647.11 245.38 640.8 241.1 651.49 228.7" fill="none" stroke="#93d6e2" stroke-miterlimit="10" stroke-width="0.5"/>
  <polygon points="638.95 241.29 645.09 245.35 642.02 248.31 636.52 244.8 638.95 241.29" fill="none" stroke="#93d6e2" stroke-miterlimit="10" stroke-width="0.5"/>
  <polygon points="635.95 230.43 643.27 234.79 636.01 243.65 629.76 239.03 635.95 230.43" fill="none" stroke="#93d6e2" stroke-miterlimit="10" stroke-width="0.5"/>
  <polygon points="615.09 215.84 634.14 228.06 610.58 256.81 593.74 236.8 615.09 215.84" fill="none" stroke="#93d6e2" stroke-miterlimit="10" stroke-width="0.5"/>
  <polygon points="627.66 241.29 634.14 245.21 623.28 257.97 616.97 253.69 627.66 241.29" fill="none" stroke="#93d6e2" stroke-miterlimit="10" stroke-width="0.5"/>
  <polygon points="635.09 246.07 641.58 249.99 630.71 262.75 624.4 258.47 635.09 246.07" fill="none" stroke="#93d6e2" stroke-miterlimit="10" stroke-width="0.5"/>
  <polygon points="643.28 250.89 649.77 254.81 638.9 267.56 632.59 263.29 643.28 250.89" fill="none" stroke="#93d6e2" stroke-miterlimit="10" stroke-width="0.5"/>
  <polygon points="656.43 236.47 662.92 240.38 652.05 253.14 645.74 248.87 656.43 236.47" fill="none" stroke="#93d6e2" stroke-miterlimit="10" stroke-width="0.5"/>
  <polygon points="651.1 255.44 657.58 259.36 646.71 272.12 640.41 267.84 651.1 255.44" fill="none" stroke="#93d6e2" stroke-miterlimit="10" stroke-width="0.5"/>
  <polygon points="663.87 241.29 670.35 245.21 659.48 257.97 653.18 253.69 663.87 241.29" fill="none" stroke="#93d6e2" stroke-miterlimit="10" stroke-width="0.5"/>
  <polygon points="544.79 180.6 555.49 190.03 523.79 234.17 510.98 225.72 544.79 180.6" fill="#145f66"/>
  <polygon points="561.03 185.77 577.1 168.22 582.17 154.58 605.76 136.48 600.99 121.06 572.46 143.18 566.48 158.66 548.34 176.32 561.03 185.77" fill="#145f66"/>
  <polygon points="519.3 238.48 508.65 230.43 482.44 277.23 494.5 285.27 519.3 238.48" fill="#145f66"/>
  <polygon points="479.09 288.59 492.49 293.06 489.81 319.23 473.06 319.09 479.09 288.59" fill="#145f66"/>
  <polygon points="473.06 323.49 486.46 329.5 482.77 354.2 477.08 361.6 467.69 362.84 473.06 323.49" fill="#145f66"/>
  <polygon points="733.73 55.7 729.01 142.61 731.37 153.42 729.01 165.74 720.93 175.69 720.93 183.7 724.3 185.77 727.33 185.77 727.33 205.33 720.93 205.33 720.93 213.92 707.38 255.87 699.62 261.12 693.17 275.33 699.62 282.45 706.73 271.06 708.75 274.27 698.53 296.92 700.61 298.4 697.94 305.81 694.3 305.81 691.87 311.58 656.78 296.04 655.75 298.4 689.21 313.21 683.73 322.54 669.37 336.16 657.23 341.49 655.07 344.6 654.56 354.2 653.35 354.2 656.34 357.18 659.3 354.81 664.04 363.69 665.37 362.84 659.45 353.33 662.56 350.22 668.63 356.59 671 354.96 664.63 348 697.93 324.98 703.73 329.5 705.66 327.72 701.55 323.49 708.07 319.09 716.77 324.98 692.13 355.86 681.26 343.54 679.81 344.99 690.44 357.06 691.89 358.76 719.67 327.72 730.78 333.24 732.23 336.77 731.99 329.5 712.18 319.09 711.94 315.76 706.87 314.07 713.39 301.26 725.95 306.93 721.12 319.23 723.77 320.59 729.57 308.99 758.4 321.07 767.74 324.98 764.84 333.63 749.86 327.72 747.93 331.22 737.54 327.72 740.93 346.44 745.3 346.44 745.3 354.17 738.51 354.17 734.4 338.62 734.65 348.61 737.06 356.82 741.89 359 749.14 357.79 769.43 335.81 780.06 310.68 783.68 281.58 782.48 262.75 766.05 262.29 759.77 262.75 757.6 271.06 760.49 271.06 761.94 265.79 773.05 272.12 773.3 294.5 767.02 315.03 759.29 319.38 730.78 306.82 746.48 272.07 744.07 271.06 729.33 302.47 719.67 297.64 721.6 282.9 730.78 267.56 738.03 269.55 739.24 267.56 733.2 265.79 737.06 256.55 748.66 262.29 746.72 267.56 747.93 267.56 753 256.55 756.39 253.14 757.84 245.38 759.04 245.38 759.53 236.47 755.66 237.04 756.14 224.2 759.53 222.7 759.53 213.92 747.93 212.88 747.93 209.05 759.04 209.4 759.04 205.33 770.16 205.14 774.02 221.68 772.33 222.7 780.54 259.23 783.68 259.23 774.99 225.72 782.72 222.7 783.68 218.8 785.13 207.41 789.72 206.33 786.82 204.28 784.89 205.33 762.67 200.23 764.12 193.52 783.92 200.23 785.38 194.01 764.36 187.48 765.57 171.06 789.72 180.6 789.72 178 765.81 168.22 768.95 151.25 781.51 154.39 784.17 146.66 769.91 142.31 774.02 122.02 786.82 138.69 799.14 142.79 802.28 135.06 780.78 124.44 796.25 119.12 841.42 115.5 733.73 55.7" fill="#145f66"/>
  <polygon points="653.35 361.6 649.82 357.14 612.66 381.33 604.1 391.41 599.98 393.92 609.86 405.32 653.35 361.6" fill="#145f66"/>
  <polygon points="577.1 420.76 523.79 463.83 528.55 469.13 523.79 473.11 519.61 470.46 515.3 474.77 515.3 480.07 508.65 474.77 506.69 476.75 515.63 484.04 498.73 500.61 500.39 500.61 530.54 475.43 516.96 507.24 482.5 515.85 482.5 521.49 504.7 515.19 510.98 517.18 503.37 539.09 521.93 539.09 534.18 509.56 551.75 516.18 545.78 509.89 535.51 506.24 542.8 490.01 589.43 430.37 577.1 420.76" fill="#145f66"/>
  <polygon points="684.06 246.07 690.33 249.63 694.3 244.8 687.87 241.29 684.06 246.07" fill="none" stroke="#93d6e2" stroke-miterlimit="10" stroke-width="0.5"/>
  <polygon points="689.18 240.51 695.45 244.07 699.42 239.24 692.99 235.73 689.18 240.51" fill="none" stroke="#93d6e2" stroke-miterlimit="10" stroke-width="0.5"/>
  <polygon points="694.3 234.78 700.57 238.34 704.54 233.51 698.11 230 694.3 234.78" fill="none" stroke="#93d6e2" stroke-miterlimit="10" stroke-width="0.5"/>
  <polygon points="698.42 228.31 704.68 231.87 708.66 227.04 702.23 223.53 698.42 228.31" fill="none" stroke="#93d6e2" stroke-miterlimit="10" stroke-width="0.5"/>
  <rect x="663.26" y="229.67" width="11.37" height="4.4" transform="translate(205.56 -303.41) rotate(30)" fill="none" stroke="#93d6e2" stroke-miterlimit="10"/>
  <rect x="666.12" y="224.72" width="11.37" height="4.4" transform="translate(203.46 -305.5) rotate(30)" fill="none" stroke="#93d6e2" stroke-miterlimit="10"/>
  <rect x="669.02" y="219.7" width="11.37" height="4.4" transform="translate(201.34 -307.62) rotate(30)" fill="none" stroke="#93d6e2" stroke-miterlimit="10"/>
  <rect x="668.39" y="251.07" width="11.48" height="11.48" rx="5.33" ry="5.33" transform="translate(255.07 -330.38) rotate(33.63)" fill="none" stroke="#93d6e2" stroke-miterlimit="10" stroke-width="1.5"/>
  <polygon points="671.8 246.07 687.1 254.41 671.8 275.08 656.35 265.89 671.8 246.07" fill="none" stroke="#93d6e2" stroke-miterlimit="10" stroke-width="0.5"/>
  <polygon points="656.35 267.56 647.17 278.56 664.91 288.59 671.72 276.6 656.35 267.56" fill="none" stroke="#93d6e2" stroke-miterlimit="10" stroke-width="0.5"/>
  <polygon points="672.67 278.08 667.36 288.59 674.13 292.6 679.82 282.06 672.67 278.08" fill="none" stroke="#93d6e2" stroke-miterlimit="10" stroke-width="0.5"/>
  <polygon points="682.15 284.1 675.94 293.9 684.06 298.19 689.18 288.59 682.15 284.1" fill="none" stroke="#93d6e2" stroke-miterlimit="10" stroke-width="0.5"/>
  <polygon points="684.92 282.06 690.43 285.34 691.88 282.06 687.1 279.2 684.92 282.06" fill="none" stroke="#93d6e2" stroke-miterlimit="10" stroke-width="0.5"/>
  <circle cx="643.27" cy="294.9" r="4.29" fill="none" stroke="#93d6e2" stroke-miterlimit="10" stroke-width="0.5"/>
  <polygon points="635.47 302.7 640.62 303.38 640.57 308.66 633.21 306.88 635.47 302.7" fill="none" stroke="#93d6e2" stroke-miterlimit="10" stroke-width="0.5"/>
  <polygon points="633.21 308.66 640.57 310.14 642.46 320.9 633.21 320.9 633.21 308.66" fill="none" stroke="#93d6e2" stroke-miterlimit="10" stroke-width="0.5"/>
  <polygon points="633.21 322.37 642.46 322.37 645.1 333.21 631.98 333.21 633.21 322.37" fill="none" stroke="#93d6e2" stroke-miterlimit="10" stroke-width="0.5"/>
  <polygon points="631.98 334.96 645.1 334.96 647.13 341.4 631.98 350.76 631.98 334.96" fill="none" stroke="#93d6e2" stroke-miterlimit="10" stroke-width="0.5"/>
  <polygon points="641.93 302.9 645.46 301.88 648.49 310.77 643.08 312.6 641.93 302.9" fill="none" stroke="#93d6e2" stroke-miterlimit="10" stroke-width="0.5"/>
  <polygon points="649.34 312.6 643.08 314.85 645.21 322.94 652.21 319.9 649.34 312.6" fill="none" stroke="#93d6e2" stroke-miterlimit="10" stroke-width="0.5"/>
  <polygon points="647.65 327.46 654.02 322.94 657.61 333.91 650.12 336.59 647.65 327.46" fill="none" stroke="#93d6e2" stroke-miterlimit="10" stroke-width="0.5"/>
  <polygon points="647.89 302.56 656.33 301.4 684.92 313.77 676.81 323.61 660.08 331.8 647.89 302.56" fill="none" stroke="#93d6e2" stroke-miterlimit="10" stroke-width="0.5"/>
  <polygon points="591.3 241.29 599.98 250.89 593.74 255.44 585.3 245.38 591.3 241.29" fill="none" stroke="#93d6e2" stroke-miterlimit="10" stroke-width="0.5"/>
  <polygon points="600.99 253.14 609.08 259.23 600.99 265.68 596.38 257.85 600.99 253.14" fill="none" stroke="#93d6e2" stroke-miterlimit="10" stroke-width="0.5"/>
  <polygon points="610.58 262.75 618.43 269.55 610.58 275.08 602.73 267.56 610.58 262.75" fill="none" stroke="#93d6e2" stroke-miterlimit="10" stroke-width="0.5"/>
  <polygon points="621.42 272.07 631.98 279.2 624.4 282.45 614.04 277.26 621.42 272.07" fill="none" stroke="#93d6e2" stroke-miterlimit="10" stroke-width="0.5"/>
  <polygon points="634.14 282.27 640.41 285.27 634.14 290.6 624.4 285.27 634.14 282.27" fill="none" stroke="#93d6e2" stroke-miterlimit="10" stroke-width="0.5"/>
  <polygon points="638.54 388.21 652.63 376.93 645.21 372.7 634.92 383.7 638.54 388.21" fill="none" stroke="#93d6e2" stroke-miterlimit="10" stroke-width="0.5"/>
  <polygon points="647.13 371.01 653.35 375.52 657.61 371.01 652.21 365.93 647.13 371.01" fill="none" stroke="#93d6e2" stroke-miterlimit="10" stroke-width="0.5"/>
  <polygon points="659.06 356.46 656.95 358.57 663.02 369 670.94 361.6 662.89 352.1 661.7 353.29 668.17 362.84 663.94 365.93 659.06 356.46" fill="none" stroke="#93d6e2" stroke-miterlimit="10" stroke-width="0.5"/>
  <polygon points="638.44 390.85 651.25 381.23 655.83 387.13 641.8 396.26 638.44 390.85" fill="none" stroke="#93d6e2" stroke-miterlimit="10" stroke-width="0.5"/>
  <polygon points="662.64 371.97 666.41 376.65 677.19 367.28 672.82 363.69 662.64 371.97" fill="none" stroke="#93d6e2" stroke-miterlimit="10" stroke-width="0.5"/>
  <polygon points="661.34 373.42 664.74 377.3 656.95 385.38 652.63 380.46 661.34 373.42" fill="none" stroke="#93d6e2" stroke-miterlimit="10" stroke-width="0.5"/>
  <polygon points="677.19 369 681.07 373.42 670.94 382.15 667.33 377.95 677.19 369" fill="none" stroke="#93d6e2" stroke-miterlimit="10" stroke-width="0.5"/>
  <polygon points="664.74 379.4 668.94 383.44 661.34 390.07 658.68 386.35 664.74 379.4" fill="none" stroke="#93d6e2" stroke-miterlimit="10" stroke-width="0.5"/>
  <polygon points="656.95 388.21 658.68 390.72 646.15 402.2 643.77 397.35 656.95 388.21" fill="none" stroke="#93d6e2" stroke-miterlimit="10" stroke-width="0.5"/>
  <polygon points="641.18 398.8 643.77 403.07 634.92 408.11 631.98 403.45 641.18 398.8" fill="none" stroke="#93d6e2" stroke-miterlimit="10" stroke-width="0.5"/>
  <polygon points="634.92 391.41 638.54 397.44 631.98 401.32 627.4 390.07 632.97 386.97 634.92 391.41" fill="none" stroke="#93d6e2" stroke-miterlimit="10" stroke-width="0.5"/>
  <polygon points="626.66 394.14 629.73 401.32 627.4 402.2 623.53 395.2 626.66 394.14" fill="none" stroke="#93d6e2" stroke-miterlimit="10" stroke-width="0.5"/>
  <polygon points="622.36 397.25 626.63 403.45 623.53 405.32 618.87 398.8 622.36 397.25" fill="none" stroke="#93d6e2" stroke-miterlimit="10" stroke-width="0.5"/>
  <polygon points="618.87 402.2 626.66 411.8 634.92 411.8 658.68 395.48 659.8 397.25 635.94 413.74 625.66 413.74 616.93 403.45 618.87 402.2" fill="none" stroke="#93d6e2" stroke-miterlimit="10" stroke-width="0.5"/>
  <polygon points="662.64 394.14 663.81 395.48 673.38 388.75 670.94 386.97 662.64 394.14" fill="none" stroke="#93d6e2" stroke-miterlimit="10" stroke-width="0.5"/>
  <polygon points="672.6 384.74 674.2 386.97 725.94 338.62 723.03 336.59 688.89 369 675.9 355.74 674.2 357.14 686.95 370.73 672.6 384.74" fill="none" stroke="#93d6e2" stroke-miterlimit="10" stroke-width="0.5"/>
  <polygon points="627.4 404.61 630.55 408.47 627.96 410.17 625 405.96 627.4 404.61" fill="none" stroke="#93d6e2" stroke-miterlimit="10" stroke-width="0.5"/>
  <polygon points="628.76 403.45 630.55 402.92 632.97 407.39 631.36 408.11 628.76 403.45" fill="none" stroke="#93d6e2" stroke-miterlimit="10" stroke-width="0.5"/>
  <polygon points="641.26 415.1 651.23 408.66 653.35 411.88 643.77 418.54 641.26 415.1" fill="none" stroke="#93d6e2" stroke-miterlimit="10" stroke-width="0.5"/>
  <polygon points="652.63 408.11 655.07 410.91 665.2 404.61 661.61 401.32 652.63 408.11" fill="none" stroke="#93d6e2" stroke-miterlimit="10" stroke-width="0.5"/>
  <polygon points="664.74 399.84 668.01 402.92 680.31 393.25 675.52 391.41 664.74 399.84" fill="none" stroke="#93d6e2" stroke-miterlimit="10" stroke-width="0.5"/>
  <polygon points="678.21 389.36 681.07 391.23 689.73 384.74 685.25 382.15 678.21 389.36" fill="none" stroke="#93d6e2" stroke-miterlimit="10" stroke-width="0.5"/>
  <polygon points="690.78 386.69 694.07 390.07 686.44 396.26 683.3 394.14 690.78 386.69" fill="none" stroke="#93d6e2" stroke-miterlimit="10" stroke-width="0.5"/>
  <polygon points="681.8 395.48 683.97 398.17 671.48 407.39 668.94 404.61 681.8 395.48" fill="none" stroke="#93d6e2" stroke-miterlimit="10" stroke-width="0.5"/>
  <polygon points="667.33 406.11 668.94 408.11 658.68 414.8 655.83 411.8 667.33 406.11" fill="none" stroke="#93d6e2" stroke-miterlimit="10" stroke-width="0.5"/>
  <polygon points="654.28 413.6 655.83 416.29 647.13 421.68 644.85 419.29 654.28 413.6" fill="none" stroke="#93d6e2" stroke-miterlimit="10" stroke-width="0.5"/>
  <polygon points="659.8 416.14 662.64 419.88 672.52 413 669.78 410.17 659.8 416.14" fill="none" stroke="#93d6e2" stroke-miterlimit="10" stroke-width="0.5"/>
  <polygon points="672.52 408.66 675.22 412.25 686.59 403.45 683.97 401.29 672.52 408.66" fill="none" stroke="#93d6e2" stroke-miterlimit="10" stroke-width="0.5"/>
  <polygon points="687.34 398.17 690.48 401.44 699.27 395.2 694.82 391.47 687.34 398.17" fill="none" stroke="#93d6e2" stroke-miterlimit="10" stroke-width="0.5"/>
  <polygon points="599.18 350.57 609.89 339.49 620.38 351.16 609.88 362.28 599.18 350.57" fill="none" stroke="#93d6e2" stroke-miterlimit="10"/>
  <rect x="595.43" y="337.72" width="10.32" height="5.52" transform="translate(-64.75 524.76) rotate(-45.03)" fill="none" stroke="#93d6e2" stroke-miterlimit="10" stroke-width="0.75"/>
  <line x1="617.21" y1="354.37" x2="620.81" y2="358.45" fill="none" stroke="#93d6e2" stroke-miterlimit="10" stroke-width="0.75"/>
  <line x1="613.33" y1="359.1" x2="616.55" y2="364.46" fill="none" stroke="#93d6e2" stroke-miterlimit="10" stroke-width="0.75"/>
  <polyline points="598.36 349.41 588.41 361.29 587.19 366.17 592.84 372.68 597.75 372.27 607.33 360.54" fill="none" stroke="#93d6e2" stroke-miterlimit="10"/>
  <line x1="618.39" y1="359.76" x2="622.13" y2="357.15" fill="none" stroke="#93d6e2" stroke-miterlimit="10"/>
  <line x1="614.7" y1="366" x2="618.39" y2="362.92" fill="none" stroke="#93d6e2" stroke-miterlimit="10"/>
  <polygon points="597.99 351.25 596.92 352.37 598.12 353.81 593.37 359.24 592.56 358.38 589.54 362.14 588.63 366.14 593.26 371.6 597.14 371.31 599.83 367.88 598.98 366.98 603.52 361.34 604.37 362.28 605.73 360.56 597.99 351.25" fill="none" stroke="#93d6e2" stroke-miterlimit="10" stroke-width="0.5"/>
  <line x1="603.89" y1="341.09" x2="606.2" y2="343.31" fill="none" stroke="#93d6e2" stroke-miterlimit="10" stroke-width="0.75"/>
  <polygon points="609.66 345.38 604.17 349.83 609.64 356.11 614.94 350.8 609.66 345.38" fill="#93d6e2"/>
  <g>
    <path d="M439.94,248.21a5.75,5.75,0,0,1,.63-1.73,6.31,6.31,0,0,0,2.59-2.6,7.15,7.15,0,0,0,1.15-3.66q0-1.56-1.93-2.13a4.19,4.19,0,0,1,1.94-1.11A6.14,6.14,0,0,0,443,234a2.93,2.93,0,0,0-2.28-1,3.74,3.74,0,0,0-1.33.26,6.9,6.9,0,0,0-1.47.8,5.87,5.87,0,0,1,.77-2.67,6.57,6.57,0,0,1,1.34-.52,5,5,0,0,1,1.28-.17,4.89,4.89,0,0,1,3.85,1.87,6.73,6.73,0,0,1,1.59,4.52,10.71,10.71,0,0,1-1.2,4.5,15.05,15.05,0,0,1-3,4.27,10.2,10.2,0,0,1,2-.2,11.41,11.41,0,0,1,3.72.61v-6.14a17.06,17.06,0,0,1,.83-6A7.48,7.48,0,0,1,452,230.7a6.8,6.8,0,0,0,3.58,1.24,4.72,4.72,0,0,0,2.13-.49,8,8,0,0,1-.53,2.36,7,7,0,0,1-1.18.3,28.22,28.22,0,0,0-.8,6.59,10.64,10.64,0,0,0,.8,4.6,21.54,21.54,0,0,0,1.89-1.39l.43.57a20.66,20.66,0,0,0-3.19,3.73q-2.28-1.87-2.28-6.81a33.55,33.55,0,0,1,.73-7.28,6.41,6.41,0,0,1-2.12-.91,5.18,5.18,0,0,0-1.86,2.66,15.92,15.92,0,0,0-.56,4.74v6a4.55,4.55,0,0,0-1.47,1.63,10.91,10.91,0,0,0-3.77-.76A9.18,9.18,0,0,0,439.94,248.21Z" fill="#f8be3d"/>
    <path d="M463.71,248a6.52,6.52,0,0,1-2.7-1.48q-.58.85-.9,1.43l-1.75.9q1.18-1.46,2-2.59l.17-.23a5.2,5.2,0,0,1-1.22-3.42q0-2.42,2.7-4.47l.33-.26a8.91,8.91,0,0,0,1.34-1.19,5.29,5.29,0,0,1,2.53,1.43,12.1,12.1,0,0,0,.8-1.33l1.76-.84-.32.42q-1.33,1.72-1.54,1.94l-.23.27a5.3,5.3,0,0,1,1.37,3.51q0,2.44-2.78,4.54l-.42.32A7.6,7.6,0,0,0,463.71,248ZM462,244.22l3-4.25a6.89,6.89,0,0,0-2.23-1.57,3.92,3.92,0,0,0-1.59,3.23A4.67,4.67,0,0,0,462,244.22Zm3.42-3.77-3,4.25a6.26,6.26,0,0,0,2.31,1.7,4,4,0,0,0,1.64-3.29A4.52,4.52,0,0,0,465.37,240.45Z" fill="#f8be3d"/>
    <path d="M472.58,242.1v3.16a6.3,6.3,0,0,0,1.05,1A7.16,7.16,0,0,0,472,248a5.35,5.35,0,0,0-1.7-1.54,7,7,0,0,0,.33-2.07V240.8a3.18,3.18,0,0,0-.46-1.92,5.39,5.39,0,0,0-1.43,1.45l-.5-.41a11,11,0,0,1,2.84-3.2,5.64,5.64,0,0,1,1.47,3.61,6.44,6.44,0,0,1,2.71-3.61,2.38,2.38,0,0,0,1.62,1,4.82,4.82,0,0,1-.92,2.18,3.51,3.51,0,0,1-1.45-.85A5.78,5.78,0,0,0,472.58,242.1Z" fill="#f8be3d"/>
    <path d="M480.87,242.1v3.16a6.3,6.3,0,0,0,1.05,1A7.16,7.16,0,0,0,480.3,248a5.35,5.35,0,0,0-1.7-1.54,7,7,0,0,0,.33-2.07V240.8a3.18,3.18,0,0,0-.46-1.92,5.39,5.39,0,0,0-1.43,1.45l-.5-.41a11,11,0,0,1,2.84-3.2,5.64,5.64,0,0,1,1.47,3.61,6.44,6.44,0,0,1,2.71-3.61,2.38,2.38,0,0,0,1.62,1,4.82,4.82,0,0,1-.92,2.18,3.51,3.51,0,0,1-1.45-.85A5.78,5.78,0,0,0,480.87,242.1Z" fill="#f8be3d"/>
    <path d="M493.31,243.64a12.07,12.07,0,0,1-3.59,4.39,7.92,7.92,0,0,1-3-2.45A7,7,0,0,1,486,242a12.41,12.41,0,0,1,.11-1.69,16.5,16.5,0,0,1,3.47-3.58,4.42,4.42,0,0,0,3.45,2l-.4,1.14A19.16,19.16,0,0,1,488,243.4a4,4,0,0,0,2.22,2.51,7.53,7.53,0,0,0,2.58-2.66Zm-5.47-1.13a16.45,16.45,0,0,0,3.39-2.54,6,6,0,0,1-2.78-1.48,5.72,5.72,0,0,0-.65,2.81Q487.79,241.71,487.84,242.51Z" fill="#f8be3d"/>
    <path d="M496.18,251.65v-4.52a4.87,4.87,0,0,0-2.38.94l.41-1.27a5.16,5.16,0,0,1,2-1.09V241a3.72,3.72,0,0,0-.47-2.1,4.54,4.54,0,0,0-1.43,1.42l-.49-.41a12.32,12.32,0,0,1,2.83-3.19,5.18,5.18,0,0,1,1.47,3.73,13.71,13.71,0,0,1,2.88-3.73,5.45,5.45,0,0,1,2.39,1.86,4.51,4.51,0,0,1,.87,2.69,6.75,6.75,0,0,1-2.12,4.78l-.47.48a10.92,10.92,0,0,0-1.09,1.29,8.9,8.9,0,0,0-2.46-.66v.12a11.49,11.49,0,0,1-1.42,4.64Zm1.92-6.15a9.36,9.36,0,0,1,2.95.65,6.36,6.36,0,0,0,1.27-3.84,3.43,3.43,0,0,0-1.87-3.35,11.42,11.42,0,0,0-2.34,2.49Z" fill="#f8be3d"/>
    <path d="M509.64,248a5.78,5.78,0,0,1-3.14-2,5.29,5.29,0,0,1-1.23-3.42q0-2.4,2.7-4.45l.33-.26a8.32,8.32,0,0,0,1.34-1.19,6.17,6.17,0,0,1,3.17,2.07,5.24,5.24,0,0,1,1.2,3.37q0,2.4-2.78,4.5l-.42.32A7.65,7.65,0,0,0,509.64,248Zm.92-1.64a4,4,0,0,0,1.64-3.29,4.52,4.52,0,0,0-1-2.77,6,6,0,0,0-2.58-1.94,3.8,3.8,0,0,0-1.59,3.22,4.67,4.67,0,0,0,.93,2.81A5.94,5.94,0,0,0,510.56,246.4Z" fill="#f8be3d"/>
    <path d="M518.5,242.1v3.16a6.3,6.3,0,0,0,1.05,1,7.16,7.16,0,0,0-1.62,1.75,5.35,5.35,0,0,0-1.7-1.54,7,7,0,0,0,.33-2.07V240.8a3.18,3.18,0,0,0-.46-1.92,5.39,5.39,0,0,0-1.43,1.45l-.5-.41a11,11,0,0,1,2.84-3.2,5.64,5.64,0,0,1,1.47,3.61,6.44,6.44,0,0,1,2.71-3.61,2.38,2.38,0,0,0,1.62,1,4.82,4.82,0,0,1-.92,2.18,3.51,3.51,0,0,1-1.45-.85A5.78,5.78,0,0,0,518.5,242.1Z" fill="#f8be3d"/>
    <path d="M527.17,248a4.76,4.76,0,0,1-1.84-2,8.25,8.25,0,0,1-.53-3.28v-4.57h-.19a6.35,6.35,0,0,0-2.15.34,4.62,4.62,0,0,1,.57-1.39,8.36,8.36,0,0,1,1.48-.16h.28v-.13a3.93,3.93,0,0,1,.83-2.26,7.57,7.57,0,0,1,2.22-2l.35.56a4.37,4.37,0,0,0-1.46,3.54V237h.72a21.41,21.41,0,0,1,2.49.16,3.19,3.19,0,0,0-.69,1.26,14.26,14.26,0,0,0-2.09-.21h-.43v3.75a5.28,5.28,0,0,0,1.11,3.69,5.89,5.89,0,0,0,2.1-1.77l.5.31A15.65,15.65,0,0,1,527.17,248Z" fill="#f8be3d"/>
  </g>
  <g>
    <path d="M438.86,384.34a11,11,0,0,1-5.37-4.56,16.58,16.58,0,0,0,.37-2,16.21,16.21,0,0,0,.12-1.93,15.86,15.86,0,0,0-1.24-6.24,9.58,9.58,0,0,0-1.67,1.88l-.61-.36a11.7,11.7,0,0,1,3.36-4.26,11.81,11.81,0,0,1,1.81,3.92,12.56,12.56,0,0,1,5.1-3.92q4.55,2.7,4.55,7.36,0,4.87-4.44,8.29l-.64.51A7.63,7.63,0,0,0,438.86,384.34Zm1-2a8.89,8.89,0,0,0,2.94-6.93,7.33,7.33,0,0,0-3.36-6.3,12,12,0,0,0-3.62,2.45,22,22,0,0,1,.46,4.65q0,.66-.07,1.47t-.22,1.73A14.33,14.33,0,0,0,439.9,382.36Z" fill="#f8be3d"/>
    <path d="M454.47,379.78a12.07,12.07,0,0,1-3.59,4.39,7.92,7.92,0,0,1-3-2.45,7,7,0,0,1-.75-3.61,12.41,12.41,0,0,1,.11-1.69,16.5,16.5,0,0,1,3.47-3.58,4.42,4.42,0,0,0,3.45,2l-.4,1.14a19.16,19.16,0,0,1-4.57,3.59,4,4,0,0,0,2.22,2.51,7.53,7.53,0,0,0,2.58-2.66ZM449,378.64a16.45,16.45,0,0,0,3.39-2.54,6,6,0,0,1-2.78-1.48,5.72,5.72,0,0,0-.65,2.81Q448.95,377.84,449,378.64Z" fill="#f8be3d"/>
    <path d="M458.68,384.17a3.26,3.26,0,0,0-2.9-2.14,2.2,2.2,0,0,0-.78.16,4,4,0,0,1,1-1.87,4.36,4.36,0,0,1,3.89,2.42,3.18,3.18,0,0,0,1.34-2.66,2.34,2.34,0,0,0-.36-1.34,2.1,2.1,0,0,0-1.09-.79L458.68,379l-.41,0a2.25,2.25,0,0,1-1.88-.91,4,4,0,0,1-.69-2.46,7.81,7.81,0,0,1,3-2.85,4.58,4.58,0,0,0,1,.4,3.52,3.52,0,0,0,1,.14,3.67,3.67,0,0,0,1-.14,4.34,4.34,0,0,0,1-.4,3.9,3.9,0,0,1-.89,1.75,4.24,4.24,0,0,1-.9.32,4.09,4.09,0,0,1-.94.11,3.54,3.54,0,0,1-1.16-.19,4.24,4.24,0,0,1-1.1-.58,2.14,2.14,0,0,0-.24,1.08q0,2,1.83,2l1-1a3.12,3.12,0,0,1,2.15.84,3,3,0,0,1,.72,2.18,6.13,6.13,0,0,1-.57,2.54,9.94,9.94,0,0,1-1.72,1l-.51.24A6.16,6.16,0,0,0,458.68,384.17Z" fill="#f8be3d"/>
    <path d="M467.88,384.17a4.76,4.76,0,0,1-1.84-2,8.25,8.25,0,0,1-.53-3.28v-4.57h-.19a6.35,6.35,0,0,0-2.15.34,4.62,4.62,0,0,1,.57-1.39,8.36,8.36,0,0,1,1.48-.16h.28V373a3.93,3.93,0,0,1,.83-2.26,7.57,7.57,0,0,1,2.22-2l.35.56a4.37,4.37,0,0,0-1.46,3.54v.32h.72a21.41,21.41,0,0,1,2.49.16,3.19,3.19,0,0,0-.69,1.26,14.26,14.26,0,0,0-2.09-.21h-.43V378a5.28,5.28,0,0,0,1.11,3.69,5.89,5.89,0,0,0,2.1-1.77l.5.31A15.65,15.65,0,0,1,467.88,384.17Z" fill="#f8be3d"/>
    <path d="M479.45,379.78a12.07,12.07,0,0,1-3.59,4.39,7.92,7.92,0,0,1-3-2.45,7,7,0,0,1-.75-3.61,12.41,12.41,0,0,1,.11-1.69,16.5,16.5,0,0,1,3.47-3.58,4.42,4.42,0,0,0,3.45,2l-.4,1.14a19.16,19.16,0,0,1-4.57,3.59,4,4,0,0,0,2.22,2.51,7.53,7.53,0,0,0,2.58-2.66ZM474,378.64a16.45,16.45,0,0,0,3.39-2.54,6,6,0,0,1-2.78-1.48,5.72,5.72,0,0,0-.65,2.81Q473.93,377.84,474,378.64Z" fill="#f8be3d"/>
    <path d="M483.95,378.23v3.16a6.3,6.3,0,0,0,1.05,1,7.16,7.16,0,0,0-1.62,1.75,5.35,5.35,0,0,0-1.7-1.54,7,7,0,0,0,.33-2.07v-3.62a3.18,3.18,0,0,0-.46-1.92,5.39,5.39,0,0,0-1.43,1.45l-.5-.41a11,11,0,0,1,2.84-3.2,5.64,5.64,0,0,1,1.47,3.61,6.44,6.44,0,0,1,2.71-3.61,2.38,2.38,0,0,0,1.62,1,4.82,4.82,0,0,1-.92,2.18,3.51,3.51,0,0,1-1.45-.85A5.78,5.78,0,0,0,483.95,378.23Z" fill="#f8be3d"/>
    <path d="M490.61,387.79v-4.52a4.87,4.87,0,0,0-2.38.94l.41-1.27a5.16,5.16,0,0,1,2-1.09v-4.71a3.72,3.72,0,0,0-.47-2.1,4.54,4.54,0,0,0-1.43,1.42l-.49-.41a12.32,12.32,0,0,1,2.83-3.19,5.18,5.18,0,0,1,1.47,3.73,13.71,13.71,0,0,1,2.88-3.73,5.45,5.45,0,0,1,2.39,1.86,4.51,4.51,0,0,1,.87,2.69,6.75,6.75,0,0,1-2.12,4.78l-.47.48a10.92,10.92,0,0,0-1.09,1.29,8.9,8.9,0,0,0-2.46-.66v.12a11.49,11.49,0,0,1-1.42,4.64Zm1.92-6.15a9.36,9.36,0,0,1,2.95.65,6.36,6.36,0,0,0,1.27-3.84,3.43,3.43,0,0,0-1.87-3.35,11.42,11.42,0,0,0-2.34,2.49Z" fill="#f8be3d"/>
    <path d="M504.07,384.17a5.78,5.78,0,0,1-3.14-2,5.29,5.29,0,0,1-1.23-3.42q0-2.4,2.7-4.45l.33-.26a8.32,8.32,0,0,0,1.34-1.19,6.17,6.17,0,0,1,3.17,2.07,5.24,5.24,0,0,1,1.2,3.37q0,2.4-2.78,4.5l-.42.32A7.65,7.65,0,0,0,504.07,384.17Zm.92-1.64a4,4,0,0,0,1.64-3.29,4.52,4.52,0,0,0-1-2.77,6,6,0,0,0-2.58-1.94,3.8,3.8,0,0,0-1.59,3.22,4.67,4.67,0,0,0,.93,2.81A5.94,5.94,0,0,0,505,382.53Z" fill="#f8be3d"/>
    <path d="M512.93,378.23v3.16a6.3,6.3,0,0,0,1.05,1,7.16,7.16,0,0,0-1.62,1.75,5.35,5.35,0,0,0-1.7-1.54,7,7,0,0,0,.33-2.07v-3.62a3.18,3.18,0,0,0-.46-1.92,5.39,5.39,0,0,0-1.43,1.45l-.5-.41a11,11,0,0,1,2.84-3.2,5.64,5.64,0,0,1,1.47,3.61,6.44,6.44,0,0,1,2.71-3.61,2.38,2.38,0,0,0,1.62,1,4.82,4.82,0,0,1-.92,2.18,3.51,3.51,0,0,1-1.45-.85A5.78,5.78,0,0,0,512.93,378.23Z" fill="#f8be3d"/>
    <path d="M521.6,384.17a4.76,4.76,0,0,1-1.84-2,8.25,8.25,0,0,1-.53-3.28v-4.57h-.19a6.35,6.35,0,0,0-2.15.34,4.62,4.62,0,0,1,.57-1.39,8.36,8.36,0,0,1,1.48-.16h.28V373a3.93,3.93,0,0,1,.83-2.26,7.57,7.57,0,0,1,2.22-2l.35.56a4.37,4.37,0,0,0-1.46,3.54v.32h.72a21.41,21.41,0,0,1,2.49.16,3.19,3.19,0,0,0-.69,1.26,14.26,14.26,0,0,0-2.09-.21h-.43V378a5.28,5.28,0,0,0,1.11,3.69,5.89,5.89,0,0,0,2.1-1.77l.5.31A15.65,15.65,0,0,1,521.6,384.17Z" fill="#f8be3d"/>
  </g>
  <g>
    <path d="M592.61,156.47a7.35,7.35,0,0,1-2.09.26,8.64,8.64,0,0,1-4.57-1.28q-.22.38-.83,1.3-.21.33-.65,1.13l-2.59,1.46q1.08-1.48,3.32-4.41a9.23,9.23,0,0,1-3.65-7.43,13.06,13.06,0,0,1,.66-4.05,17.11,17.11,0,0,1,4.4-3.43v-2l1.25-.71a23.31,23.31,0,0,0-.55,4.88v.57a14.15,14.15,0,0,1,3.39-3.54,9.12,9.12,0,0,1,4.55,1.2q.7-1.19,1-1.87l2.62-1.34L596,141a8.24,8.24,0,0,1,2.83,6.13,11.4,11.4,0,0,1-.73,3.93,12.88,12.88,0,0,1-2,1.65q-.26.19-.66.53l-.45.38A10,10,0,0,0,592.61,156.47Zm-6-3.52V140.78a8.38,8.38,0,0,0-2.63,6.56A8,8,0,0,0,586.62,152.94Zm.7-1,6.49-9.38a4.92,4.92,0,0,0-2.86-1q-1.92,0-3.63,2.41Zm0,1.48a6.47,6.47,0,0,0,3.57,1.18,5.06,5.06,0,0,0,4-1.81,6.75,6.75,0,0,0,1.58-4.6,7.19,7.19,0,0,0-2-5.06Z" fill="#f8be3d"/>
    <path d="M603.1,156.56a3.26,3.26,0,0,0-2.9-2.14,2.2,2.2,0,0,0-.78.16,4,4,0,0,1,1-1.87,4.36,4.36,0,0,1,3.89,2.42,3.18,3.18,0,0,0,1.34-2.66,2.34,2.34,0,0,0-.36-1.34,2.1,2.1,0,0,0-1.09-.79l-1.11,1.07-.41,0a2.25,2.25,0,0,1-1.88-.91,4,4,0,0,1-.69-2.46,7.81,7.81,0,0,1,3-2.85,4.58,4.58,0,0,0,1,.4,3.52,3.52,0,0,0,1,.14,3.67,3.67,0,0,0,1-.14,4.34,4.34,0,0,0,1-.4,3.9,3.9,0,0,1-.89,1.75,4.24,4.24,0,0,1-.9.32,4.09,4.09,0,0,1-.94.11,3.54,3.54,0,0,1-1.16-.19,4.24,4.24,0,0,1-1.1-.58,2.14,2.14,0,0,0-.24,1.08q0,2,1.83,2l1-1a3.12,3.12,0,0,1,2.15.84,3,3,0,0,1,.72,2.18,6.13,6.13,0,0,1-.57,2.54,9.94,9.94,0,0,1-1.72,1l-.51.24A6.16,6.16,0,0,0,603.1,156.56Z" fill="#f8be3d"/>
    <path d="M612.3,156.56a4.76,4.76,0,0,1-1.84-2,8.25,8.25,0,0,1-.53-3.28v-4.57h-.19a6.35,6.35,0,0,0-2.15.34,4.62,4.62,0,0,1,.57-1.39,8.36,8.36,0,0,1,1.48-.16h.28v-.13a3.93,3.93,0,0,1,.83-2.26,7.57,7.57,0,0,1,2.22-2l.35.56a4.37,4.37,0,0,0-1.46,3.54v.32h.72a21.41,21.41,0,0,1,2.49.16,3.19,3.19,0,0,0-.69,1.26,14.26,14.26,0,0,0-2.09-.21h-.43v3.75a5.28,5.28,0,0,0,1.11,3.69,5.89,5.89,0,0,0,2.1-1.77l.5.31A15.65,15.65,0,0,1,612.3,156.56Z" fill="#f8be3d"/>
    <path d="M623.86,152.16a12.07,12.07,0,0,1-3.59,4.39,7.92,7.92,0,0,1-3-2.45,7,7,0,0,1-.75-3.61,12.41,12.41,0,0,1,.11-1.69,16.5,16.5,0,0,1,3.47-3.58,4.42,4.42,0,0,0,3.45,2l-.4,1.14a19.16,19.16,0,0,1-4.57,3.59,4,4,0,0,0,2.22,2.51,7.53,7.53,0,0,0,2.58-2.66ZM618.39,151a16.45,16.45,0,0,0,3.39-2.54A6,6,0,0,1,619,147a5.72,5.72,0,0,0-.65,2.81Q618.34,150.23,618.39,151Z" fill="#f8be3d"/>
    <path d="M628.36,150.62v3.16a6.3,6.3,0,0,0,1.05,1,7.16,7.16,0,0,0-1.62,1.75,5.35,5.35,0,0,0-1.7-1.54,7,7,0,0,0,.33-2.07v-3.62a3.18,3.18,0,0,0-.46-1.92,5.39,5.39,0,0,0-1.43,1.45l-.5-.41a11,11,0,0,1,2.84-3.2,5.64,5.64,0,0,1,1.47,3.61,6.44,6.44,0,0,1,2.71-3.61,2.38,2.38,0,0,0,1.62,1,4.82,4.82,0,0,1-.92,2.18,3.51,3.51,0,0,1-1.45-.85A5.78,5.78,0,0,0,628.36,150.62Z" fill="#f8be3d"/>
    <path d="M635,160.17v-4.52a4.87,4.87,0,0,0-2.38.94l.41-1.27a5.16,5.16,0,0,1,2-1.09v-4.71a3.72,3.72,0,0,0-.47-2.1,4.54,4.54,0,0,0-1.43,1.42l-.49-.41a12.32,12.32,0,0,1,2.83-3.19,5.18,5.18,0,0,1,1.47,3.73,13.71,13.71,0,0,1,2.88-3.73,5.45,5.45,0,0,1,2.39,1.86,4.51,4.51,0,0,1,.87,2.69,6.75,6.75,0,0,1-2.12,4.78l-.47.48a10.92,10.92,0,0,0-1.09,1.29,8.9,8.9,0,0,0-2.46-.66v.12a11.49,11.49,0,0,1-1.42,4.64Zm1.92-6.15a9.36,9.36,0,0,1,2.95.65,6.36,6.36,0,0,0,1.27-3.84,3.43,3.43,0,0,0-1.87-3.35,11.42,11.42,0,0,0-2.34,2.49Z" fill="#f8be3d"/>
    <path d="M648.48,156.56a5.78,5.78,0,0,1-3.14-2,5.29,5.29,0,0,1-1.23-3.42q0-2.4,2.7-4.45l.33-.26a8.32,8.32,0,0,0,1.34-1.19,6.17,6.17,0,0,1,3.17,2.07,5.24,5.24,0,0,1,1.2,3.37q0,2.4-2.78,4.5l-.42.32A7.65,7.65,0,0,0,648.48,156.56Zm.92-1.64a4,4,0,0,0,1.64-3.29,4.52,4.52,0,0,0-1-2.77,6,6,0,0,0-2.58-1.94,3.8,3.8,0,0,0-1.59,3.22,4.67,4.67,0,0,0,.93,2.81A5.94,5.94,0,0,0,649.4,154.92Z" fill="#f8be3d"/>
    <path d="M657.35,150.62v3.16a6.3,6.3,0,0,0,1.05,1,7.16,7.16,0,0,0-1.62,1.75,5.35,5.35,0,0,0-1.7-1.54,7,7,0,0,0,.33-2.07v-3.62a3.18,3.18,0,0,0-.46-1.92,5.39,5.39,0,0,0-1.43,1.45l-.5-.41a11,11,0,0,1,2.84-3.2,5.64,5.64,0,0,1,1.47,3.61,6.44,6.44,0,0,1,2.71-3.61,2.38,2.38,0,0,0,1.62,1,4.82,4.82,0,0,1-.92,2.18,3.51,3.51,0,0,1-1.45-.85A5.78,5.78,0,0,0,657.35,150.62Z" fill="#f8be3d"/>
    <path d="M666,156.56a4.76,4.76,0,0,1-1.84-2,8.25,8.25,0,0,1-.53-3.28v-4.57h-.19a6.35,6.35,0,0,0-2.15.34,4.62,4.62,0,0,1,.57-1.39,8.36,8.36,0,0,1,1.48-.16h.28v-.13a3.93,3.93,0,0,1,.83-2.26,7.57,7.57,0,0,1,2.22-2l.35.56a4.37,4.37,0,0,0-1.46,3.54v.32h.72a21.41,21.41,0,0,1,2.49.16,3.19,3.19,0,0,0-.69,1.26,14.26,14.26,0,0,0-2.09-.21h-.43v3.75a5.28,5.28,0,0,0,1.11,3.69,5.89,5.89,0,0,0,2.1-1.77l.5.31A15.65,15.65,0,0,1,666,156.56Z" fill="#f8be3d"/>
  </g>
</svg>
