<svg xmlns="http://www.w3.org/2000/svg" width="605.28" height="69.31" viewBox="0 0 605.28 69.31">
  <title>1849</title>
  <g id="timeline">
    <line x1="13.45" y1="20.6" x2="585.58" y2="20.6" fill="#fff" stroke="#145f66" stroke-miterlimit="10"/>
    <g>
      <line x1="13.45" y1="4.47" x2="13.45" y2="35.68" fill="#fff"/>
      <path d="M69.43,39.11c.21,2.6.3,5.2.38,7.8s.1,5.2.12,7.8,0,5.2-.12,7.8l-.14,3.9c-.08,1.3-.13,2.6-.25,3.9-.11-1.3-.16-2.6-.25-3.9L69,62.52c-.09-2.6-.1-5.2-.12-7.8s0-5.2.12-7.8S69.22,41.71,69.43,39.11Z" transform="translate(-55.98 -34.64)" fill="#145f66"/>
    </g>
    <g>
      <line x1="585.58" y1="6.27" x2="585.58" y2="37.47" fill="#fff"/>
      <path d="M641.56,40.91c.21,2.6.3,5.2.38,7.8s.1,5.2.12,7.8,0,5.2-.12,7.8l-.14,3.9c-.08,1.3-.13,2.6-.25,3.9-.11-1.3-.16-2.6-.25-3.9l-.14-3.9c-.09-2.6-.1-5.2-.12-7.8s0-5.2.12-7.8S641.35,43.51,641.56,40.91Z" transform="translate(-55.98 -34.64)" fill="#145f66"/>
    </g>
    <g>
      <line x1="344.64" x2="344.64" y2="42.07" fill="#fff"/>
      <path d="M400.62,34.64c.21,3.51.3,7,.38,10.52s.1,7,.12,10.52,0,7-.12,10.52l-.14,5.26c-.08,1.75-.13,3.51-.25,5.26-.11-1.75-.16-3.51-.25-5.26l-.14-5.26c-.09-3.51-.1-7-.12-10.52s0-7,.12-10.52S400.41,38.15,400.62,34.64Z" transform="translate(-55.98 -34.64)" fill="#145f66"/>
    </g>
    <g>
      <line x1="179.04" x2="179.04" y2="42.07" fill="#fff"/>
      <path d="M235,34.64c.21,3.51.3,7,.38,10.52s.1,7,.12,10.52,0,7-.12,10.52l-.14,5.26c-.08,1.75-.13,3.51-.25,5.26-.11-1.75-.16-3.51-.25-5.26l-.14-5.26c-.09-3.51-.1-7-.12-10.52s0-7,.12-10.52S234.81,38.15,235,34.64Z" transform="translate(-55.98 -34.64)" fill="#145f66"/>
    </g>
    <g>
      <line x1="492.21" y1="1.06" x2="492.21" y2="43.13" fill="#fff"/>
      <path d="M548.18,35.7c.21,3.51.3,7,.38,10.52s.1,7,.12,10.52,0,7-.12,10.52l-.14,5.26c-.08,1.75-.13,3.51-.25,5.26-.11-1.75-.16-3.51-.25-5.26l-.14-5.26c-.09-3.51-.1-7-.12-10.52s0-7,.12-10.52S548,39.21,548.18,35.7Z" transform="translate(-55.98 -34.64)" fill="#145f66"/>
    </g>
    <text transform="translate(0 54.15)" font-size="17.01" fill="#231f20" font-family="MyriadPro-Regular, Myriad Pro">1600</text>
    <text transform="translate(565.88 59.16)" font-size="17.01" fill="#231f20" font-family="MyriadPro-Regular, Myriad Pro">1950</text>
    <text transform="translate(162.82 56.27)" font-size="17.01" fill="#231f20" font-family="MyriadPro-Regular, Myriad Pro">1700</text>
    <text transform="translate(332.71 56.27)" font-size="17.01" fill="#231f20" font-family="MyriadPro-Regular, Myriad Pro">1800</text>
    <text transform="translate(477.88 56.27)" font-size="17.01" fill="#231f20" font-family="MyriadPro-Regular, Myriad Pro">1900</text>
  </g>
  <g id="_1711" data-name="1711">
    <circle cx="191.33" cy="21.03" r="6.89" fill="#f6851f"/>
  </g>
  <g id="_1943" data-name="1943">
    <circle cx="548.5" cy="20.6" r="6.89" fill="#f6851f"/>
    <circle cx="191.33" cy="21.03" r="6.89" fill="#c6d8db"/>
  </g>
  <g id="_1642" data-name="1642">
    <circle cx="60.35" cy="21.15" r="6.89" fill="#f6851f"/>
    <circle cx="548.5" cy="20.6" r="6.89" fill="#c6d8db"/>
    <circle cx="191.33" cy="21.03" r="6.89" fill="#c6d8db"/>
    <circle cx="548.5" cy="20.07" r="6.89" fill="#c6d8db"/>
  </g>
  <g id="_1728N" data-name="1728N">
    <circle cx="60.35" cy="21.15" r="6.89" fill="#c6d8db"/>
    <circle cx="223.89" cy="20.07" r="6.89" fill="#f6851f"/>
  </g>
  <g id="_1650" data-name="1650">
    <circle cx="96.25" cy="20.07" r="6.89" fill="#f6851f"/>
    <circle cx="223.89" cy="20.07" r="6.89" fill="#c6d8db"/>
  </g>
  <g id="_1844" data-name="1844">
    <circle cx="407.95" cy="21.15" r="6.89" fill="#f6851f"/>
    <circle cx="96.25" cy="19.79" r="6.89" fill="#c6d8db"/>
  </g>
  <g id="_1847" data-name="1847">
    <circle cx="414.83" cy="33.91" r="6.89" fill="#f6851f"/>
    <circle cx="407.95" cy="21.14" r="6.89" fill="#c6d8db"/>
  </g>
  <g id="_1728" data-name="1728">
    <circle cx="414.83" cy="33.91" r="6.89" fill="#c6d8db"/>
    <circle cx="223.89" cy="37.1" r="6.89" fill="#f6851f"/>
  </g>
  <g id="_1657" data-name="1657">
    <circle cx="118.86" cy="20.07" r="6.89" fill="#f6851f"/>
    <circle cx="223.89" cy="20.07" r="6.89" fill="#c6d8db"/>
    <circle cx="223.89" cy="37.1" r="6.89" fill="#c6d8db"/>
  </g>
  <g id="_1794" data-name="1794">
    <circle cx="328.31" cy="21.03" r="6.89" fill="#f6851f"/>
    <circle cx="474.7" cy="20.6" r="6.89" fill="#f6851f"/>
    <circle cx="118.86" cy="20.07" r="6.89" fill="#c6d8db"/>
  </g>
  <g id="_1772" data-name="1772">
    <circle cx="305.09" cy="21.15" r="6.89" fill="#f6851f"/>
    <circle cx="328.31" cy="21.15" r="6.89" fill="#c6d8db"/>
    <circle cx="474.7" cy="20.6" r="6.89" fill="#c6d8db"/>
  </g>
  <g id="_1849" data-name="1849">
    <circle cx="421.72" cy="21.03" r="6.89" fill="#f6851f"/>
    <circle cx="305.09" cy="21.14" r="6.89" fill="#c6d8db"/>
  </g>
</svg>
