<?xml version="1.0" encoding="utf-8"?>
<!-- Generator: Adobe Illustrator 21.0.2, SVG Export Plug-In . SVG Version: 6.00 Build 0)  -->
<svg version="1.1" xmlns="http://www.w3.org/2000/svg" xmlns:xlink="http://www.w3.org/1999/xlink" x="0px" y="0px"
	 viewBox="0 0 736.3 148.5" style="enable-background:new 0 0 736.3 148.5;" xml:space="preserve">
<style type="text/css">
	.st0{fill:#FFFFFF;stroke:#145F66;stroke-miterlimit:10;}
	.st1{fill:#FFFFFF;}
	.st2{fill:#145F66;}
	.st3{fill:none;}
	.st4{font-family:'MyriadPro-Regular';}
	.st5{font-size:17.0114px;}
	.st6{fill:#F6851F;}
	.st7{fill:#C6D8DB;}
</style>
<g id="timeline">
	<line class="st0" x1="69.4" y1="55.2" x2="641.6" y2="55.2"/>
	<g>
		<line class="st1" x1="69.4" y1="39.1" x2="69.4" y2="70.3"/>
		<path class="st2" d="M69.4,39.1c0.2,2.6,0.3,5.2,0.4,7.8c0.1,2.6,0.1,5.2,0.1,7.8c0,2.6,0,5.2-0.1,7.8l-0.1,3.9
			c-0.1,1.3-0.1,2.6-0.2,3.9c-0.1-1.3-0.2-2.6-0.2-3.9L69,62.5c-0.1-2.6-0.1-5.2-0.1-7.8c0-2.6,0-5.2,0.1-7.8
			C69.1,44.3,69.2,41.7,69.4,39.1z"/>
	</g>
	<g>
		<line class="st1" x1="641.6" y1="40.9" x2="641.6" y2="72.1"/>
		<path class="st2" d="M641.6,40.9c0.2,2.6,0.3,5.2,0.4,7.8c0.1,2.6,0.1,5.2,0.1,7.8c0,2.6,0,5.2-0.1,7.8l-0.1,3.9
			c-0.1,1.3-0.1,2.6-0.2,3.9c-0.1-1.3-0.2-2.6-0.2-3.9l-0.1-3.9c-0.1-2.6-0.1-5.2-0.1-7.8c0-2.6,0-5.2,0.1-7.8
			C641.3,46.1,641.4,43.5,641.6,40.9z"/>
	</g>
	<g>
		<line class="st1" x1="400.6" y1="34.6" x2="400.6" y2="76.7"/>
		<path class="st2" d="M400.6,34.6c0.2,3.5,0.3,7,0.4,10.5c0.1,3.5,0.1,7,0.1,10.5c0,3.5,0,7-0.1,10.5l-0.1,5.3
			c-0.1,1.8-0.1,3.5-0.2,5.3c-0.1-1.8-0.2-3.5-0.2-5.3l-0.1-5.3c-0.1-3.5-0.1-7-0.1-10.5c0-3.5,0-7,0.1-10.5
			C400.3,41.7,400.4,38.1,400.6,34.6z"/>
	</g>
	<g>
		<line class="st1" x1="235" y1="34.6" x2="235" y2="76.7"/>
		<path class="st2" d="M235,34.6c0.2,3.5,0.3,7,0.4,10.5c0.1,3.5,0.1,7,0.1,10.5c0,3.5,0,7-0.1,10.5l-0.1,5.3
			c-0.1,1.8-0.1,3.5-0.2,5.3c-0.1-1.8-0.2-3.5-0.2-5.3l-0.1-5.3c-0.1-3.5-0.1-7-0.1-10.5c0-3.5,0-7,0.1-10.5
			C234.7,41.7,234.8,38.1,235,34.6z"/>
	</g>
	<g>
		<line class="st1" x1="548.2" y1="35.7" x2="548.2" y2="77.8"/>
		<path class="st2" d="M548.2,35.7c0.2,3.5,0.3,7,0.4,10.5c0.1,3.5,0.1,7,0.1,10.5c0,3.5,0,7-0.1,10.5l-0.1,5.3
			c-0.1,1.8-0.1,3.5-0.2,5.3c-0.1-1.8-0.2-3.5-0.2-5.3l-0.1-5.3c-0.1-3.5-0.1-7-0.1-10.5c0-3.5,0-7,0.1-10.5
			C547.9,42.7,548,39.2,548.2,35.7z"/>
	</g>
	<rect x="56" y="76.7" class="st3" width="39.4" height="25.1"/>
	<text transform="matrix(1 0 0 1 55.9773 88.7878)" class="st4 st5">1600</text>
	<rect x="621.9" y="81.7" class="st3" width="39.4" height="19.3"/>
	<text transform="matrix(1 0 0 1 621.8605 93.8034)" class="st4 st5">1950</text>
	<rect x="218.8" y="78.8" class="st3" width="39.4" height="25.1"/>
	<text transform="matrix(1 0 0 1 218.7985 90.9138)" class="st4 st5">1700</text>
	<rect x="388.7" y="78.8" class="st3" width="39.4" height="25.1"/>
	<text transform="matrix(1 0 0 1 388.6828 90.9138)" class="st4 st5">1800</text>
	<rect x="533.9" y="78.8" class="st3" width="39.4" height="25.1"/>
	<text transform="matrix(1 0 0 1 533.8566 90.9138)" class="st4 st5">1900</text>
</g>
<g id="Layer_1">
</g>
<g id="_x31_711">
	<circle class="st6" cx="247.3" cy="55.7" r="6.9"/>
</g>
<g id="_x31_943">
	<circle class="st6" cx="604.5" cy="55.2" r="6.9"/>
	<circle class="st7" cx="247.3" cy="55.7" r="6.9"/>
</g>
<g id="_x31_642">
	<circle class="st6" cx="116.3" cy="55.8" r="6.9"/>
	<circle class="st7" cx="604.5" cy="55.2" r="6.9"/>
	<circle class="st7" cx="247.3" cy="55.7" r="6.9"/>
	<circle class="st7" cx="604.5" cy="54.7" r="6.9"/>
</g>
<g id="_x31_728N">
	<circle class="st7" cx="116.3" cy="55.8" r="6.9"/>
	<circle class="st6" cx="279.9" cy="54.7" r="6.9"/>
</g>
<g id="_x31_650">
	<circle class="st6" cx="152.2" cy="54.7" r="6.9"/>
	<circle class="st7" cx="279.9" cy="54.7" r="6.9"/>
</g>
<g id="_x31_844">
	<circle class="st6" cx="463.9" cy="55.8" r="6.9"/>
	<circle class="st7" cx="152.2" cy="54.4" r="6.9"/>
</g>
<g id="_x31_847">
	<circle class="st6" cx="470.8" cy="68.5" r="6.9"/>
	<circle class="st7" cx="463.9" cy="55.8" r="6.9"/>
</g>
<g id="_x31_728_1_">
	<circle class="st7" cx="470.8" cy="68.5" r="6.9"/>
	<circle class="st6" cx="279.9" cy="71.7" r="6.9"/>
</g>
<g id="_x31_657">
	<circle class="st6" cx="174.8" cy="54.7" r="6.9"/>
	<circle class="st7" cx="279.9" cy="54.7" r="6.9"/>
	<circle class="st7" cx="279.9" cy="71.7" r="6.9"/>
</g>
<g id="_x31_794">
	<circle class="st6" cx="384.3" cy="55.7" r="6.9"/>
	<circle class="st6" cx="530.7" cy="55.2" r="6.9"/>
	<circle class="st7" cx="174.8" cy="54.7" r="6.9"/>
</g>
<g id="_x31_772">
	<circle class="st6" cx="361.1" cy="55.8" r="6.9"/>
	<circle class="st7" cx="384.3" cy="55.8" r="6.9"/>
	<circle class="st7" cx="530.7" cy="55.2" r="6.9"/>
</g>
<g id="_x31_849">
	<circle class="st6" cx="477.7" cy="55.7" r="6.9"/>
	<circle class="st7" cx="361.1" cy="55.8" r="6.9"/>
</g>
</svg>
