<?xml version="1.0" encoding="utf-8"?>
<!-- Generator: Adobe Illustrator 21.0.2, SVG Export Plug-In . SVG Version: 6.00 Build 0)  -->
<svg version="1.1" id="Layer_1" xmlns="http://www.w3.org/2000/svg" xmlns:xlink="http://www.w3.org/1999/xlink" x="0px" y="0px"
	 viewBox="0 0 736.3 148.5" style="enable-background:new 0 0 736.3 148.5;" xml:space="preserve">
<style type="text/css">
	.st0{fill:none;stroke:#145F66;stroke-miterlimit:10;}
	.st1{fill:none;}
	.st2{fill:#145F66;}
	.st3{font-family:'MyriadPro-Regular';}
	.st4{font-size:17.0114px;}
</style>
<g id="timeline">
	<line class="st0" x1="69.4" y1="55.2" x2="641.6" y2="55.2"/>
	<g>
		<path class="st2" d="M69.4,39.1c0.2,2.6,0.3,5.2,0.4,7.8s0.1,5.2,0.1,7.8s0,5.2-0.1,7.8l-0.1,3.9c-0.1,1.3-0.1,2.6-0.2,3.9
			c-0.1-1.3-0.2-2.6-0.2-3.9L69,62.5c-0.1-2.6-0.1-5.2-0.1-7.8s0-5.2,0.1-7.8C69.1,44.3,69.2,41.7,69.4,39.1z"/>
	</g>
	<g>
		<path class="st2" d="M641.6,40.9c0.2,2.6,0.3,5.2,0.4,7.8c0.1,2.6,0.1,5.2,0.1,7.8s0,5.2-0.1,7.8l-0.1,3.9
			c-0.1,1.3-0.1,2.6-0.2,3.9c-0.1-1.3-0.2-2.6-0.2-3.9l-0.1-3.9c-0.1-2.6-0.1-5.2-0.1-7.8s0-5.2,0.1-7.8
			C641.3,46.1,641.4,43.5,641.6,40.9z"/>
	</g>
	<g>
		<path class="st2" d="M400.6,34.6c0.2,3.5,0.3,7,0.4,10.5s0.1,7,0.1,10.5s0,7-0.1,10.5l-0.1,5.3c-0.1,1.8-0.1,3.5-0.2,5.3
			c-0.1-1.8-0.2-3.5-0.2-5.3l-0.1-5.3c-0.1-3.5-0.1-7-0.1-10.5s0-7,0.1-10.5C400.3,41.7,400.4,38.1,400.6,34.6z"/>
	</g>
	<g>
		<path class="st2" d="M235,34.6c0.2,3.5,0.3,7,0.4,10.5c0.1,3.5,0.1,7,0.1,10.5s0,7-0.1,10.5l-0.1,5.3c-0.1,1.8-0.1,3.5-0.2,5.3
			c-0.1-1.8-0.2-3.5-0.2-5.3l-0.1-5.3c-0.1-3.5-0.1-7-0.1-10.5s0-7,0.1-10.5C234.7,41.7,234.8,38.1,235,34.6z"/>
	</g>
	<g>
		<path class="st2" d="M548.2,35.7c0.2,3.5,0.3,7,0.4,10.5c0.1,3.5,0.1,7,0.1,10.5s0,7-0.1,10.5l-0.1,5.3c-0.1,1.8-0.1,3.5-0.2,5.3
			c-0.1-1.8-0.2-3.5-0.2-5.3l-0.1-5.3c-0.1-3.5-0.1-7-0.1-10.5s0-7,0.1-10.5C547.9,42.7,548,39.2,548.2,35.7z"/>
	</g>
	<rect x="56" y="76.7" class="st1" width="39.4" height="25.1"/>
	<text transform="matrix(1 0 0 1 55.9773 88.7878)" class="st3 st4">1600</text>
	<rect x="621.9" y="81.7" class="st1" width="39.4" height="19.3"/>
	<text transform="matrix(1 0 0 1 621.8605 93.8033)" class="st3 st4">1950</text>
	<rect x="218.8" y="78.8" class="st1" width="39.4" height="25.1"/>
	<text transform="matrix(1 0 0 1 218.7985 90.9138)" class="st3 st4">1700</text>
	<rect x="388.7" y="78.8" class="st1" width="39.4" height="25.1"/>
	<text transform="matrix(1 0 0 1 388.6828 90.9138)" class="st3 st4">1800</text>
	<rect x="533.9" y="78.8" class="st1" width="39.4" height="25.1"/>
	<text transform="matrix(1 0 0 1 533.8566 90.9138)" class="st3 st4">1900</text>
</g>
</svg>
